<svg width="43" height="42" viewBox="0 0 43 42" fill="none" xmlns="http://www.w3.org/2000/svg">
<path fill-rule="evenodd" clip-rule="evenodd" d="M11.7182 0.911355C11.4963 1.41268 11.2632 2.06901 11.2001 2.37016C11.1371 2.67114 10.9206 3.04678 10.7193 3.20464C10.0381 3.73909 9.93926 4.40573 9.93608 8.48622C9.93338 11.8554 9.90065 12.3461 9.65292 12.7235C9.1376 13.5088 7.85352 13.4925 7.08348 12.6908C6.84021 12.4375 5.98754 11.2461 5.18858 10.0433C4.38963 8.8403 3.5484 7.72179 3.31927 7.55759C3.08997 7.39339 2.6433 7.25914 2.32645 7.25914C1.8051 7.25914 1.72199 7.19669 1.45011 6.60138C1.28501 6.23953 1.03347 5.80097 0.891097 5.62663C0.637649 5.31597 0.633995 5.31756 0.70995 5.70587C0.752535 5.92381 0.935272 7.19495 1.1161 8.5306C1.48316 11.2426 1.73169 12.0318 2.79744 13.8684C5.17571 17.9676 5.24595 18.1775 5.41359 21.6858C5.51449 23.7932 5.62302 24.6651 5.88076 25.4377C6.45884 27.1707 8.1111 29.2207 9.85981 30.3751C10.4377 30.7566 10.7068 30.8268 11.5893 30.8271C14.4457 30.8284 16.6425 28.2357 17.5819 23.7551C18.6463 18.6791 18.7996 18.2117 20.6073 14.5322C22.035 11.6265 22.3196 10.9229 22.3747 10.1628C22.4329 9.3597 22.3919 9.19946 22.0129 8.75012L21.5855 8.2434L21.9166 7.7088C22.3522 7.00586 22.3388 6.71708 21.8904 7.14059C21.6937 7.32618 21.055 7.71973 20.4709 8.01517C19.1601 8.678 18.7232 9.23623 18.2568 10.8448C17.6183 13.0463 16.4191 13.8691 15.2628 12.8986C14.3636 12.1438 14.2666 11.7673 14.1265 8.48083C13.952 4.39638 13.6879 3.44144 12.5885 2.92109L12.052 2.66718L12.1634 1.33359C12.2246 0.600068 12.2403 0 12.1982 0C12.1561 0 11.9401 0.410031 11.7182 0.911355ZM32.0575 12.0061C31.8357 12.5073 31.6018 13.1671 31.5379 13.4722C31.4739 13.7773 31.2805 14.1254 31.1083 14.2458C30.3764 14.7571 30.2737 15.3715 30.2572 19.3366C30.2488 21.3851 30.2308 23.1893 30.2175 23.3457C30.1733 23.8598 29.463 24.4085 28.8417 24.4085C27.7904 24.4085 27.4297 24.0663 25.6718 21.4008C23.9281 18.7573 23.542 18.3861 22.5339 18.385C22.0633 18.3845 21.9799 18.3124 21.7197 17.6816C21.5604 17.2948 21.3222 16.8894 21.1904 16.7803C20.9826 16.6082 20.9638 16.654 21.0477 17.1271C21.101 17.427 21.2823 18.6798 21.4509 19.911C21.8108 22.5407 22.0342 23.1852 23.4085 25.5604C25.4714 29.1253 25.7344 29.9508 25.7437 32.888C25.7541 36.1578 26.3979 37.854 28.4451 40.0042C29.8297 41.4584 30.7995 41.9976 32.0347 42C33.6829 42.0032 35.6816 40.5371 36.6633 38.6047C37.321 37.3101 37.6488 36.2125 38.2285 33.3635C38.9596 29.7707 39.0133 29.6182 40.97 25.5978C42.5806 22.2884 42.6667 22.0605 42.6667 21.1063C42.6667 20.2411 42.6145 20.0588 42.2917 19.7981L41.9166 19.4952L42.252 18.7836C42.664 17.9093 42.669 17.8286 42.2878 18.2089C42.123 18.3732 41.4775 18.7753 40.8532 19.1025C39.4782 19.8232 39.0127 20.3445 38.6875 21.5265C38.5512 22.0218 38.2854 22.772 38.0967 23.1933C37.566 24.3779 36.5179 24.7465 35.578 24.079C34.7169 23.4675 34.5987 23.012 34.4703 19.8121C34.3054 15.7013 33.9585 14.455 32.8663 14.0498L32.3774 13.8684L32.4753 12.4816C32.529 11.7189 32.5479 11.0948 32.5171 11.0948C32.4863 11.0948 32.2795 11.5049 32.0575 12.0061Z" fill="black"/>
</svg>
