<svg width="68" height="68" viewBox="0 0 68 68" fill="none" xmlns="http://www.w3.org/2000/svg">
<g clip-path="url(#clip0_287_181)">
<path d="M34 3.77783C28.0226 3.77783 22.1795 5.55033 17.2094 8.87119C12.2394 12.1921 8.36576 16.9121 6.07831 22.4345C3.79087 27.9569 3.19236 34.0336 4.3585 39.8961C5.52463 45.7587 8.40302 51.1437 12.6297 55.3704C16.8563 59.5971 22.2414 62.4754 28.1039 63.6416C33.9665 64.8077 40.0432 64.2092 45.5656 61.9218C51.0879 59.6343 55.808 55.7606 59.1289 50.7906C62.4497 45.8206 64.2222 39.9774 64.2222 34.0001C64.2222 25.9846 61.0381 18.2975 55.3704 12.6297C49.7026 6.96195 42.0154 3.77783 34 3.77783ZM34 60.4445C28.7698 60.4445 23.657 58.8936 19.3083 55.9878C14.9595 53.0821 11.57 48.952 9.56853 44.1199C7.56701 39.2878 7.04332 33.9707 8.06369 28.841C9.08405 23.7113 11.6026 18.9993 15.301 15.301C18.9993 11.6027 23.7112 9.0841 28.841 8.06373C33.9707 7.04337 39.2878 7.56706 44.1199 9.56857C48.952 11.5701 53.082 14.9595 55.9878 19.3083C58.8935 23.6571 60.4445 28.7698 60.4445 34.0001C60.4445 41.0136 57.6584 47.7398 52.6991 52.6991C47.7398 57.6584 41.0135 60.4445 34 60.4445Z" fill="#E9FF00"/>
<path d="M52.8889 22.8557C52.535 22.5039 52.0563 22.3064 51.5573 22.3064C51.0582 22.3064 50.5795 22.5039 50.2256 22.8557L29.2589 43.7279L17.9256 32.3946C17.5799 32.0213 17.1001 31.8007 16.5918 31.7812C16.0835 31.7618 15.5882 31.945 15.215 32.2907C14.8418 32.6363 14.6212 33.1161 14.6017 33.6244C14.5822 34.1328 14.7655 34.628 15.1111 35.0012L29.2589 49.1112L52.8889 25.5379C53.066 25.3623 53.2065 25.1534 53.3024 24.9232C53.3983 24.693 53.4477 24.4461 53.4477 24.1968C53.4477 23.9474 53.3983 23.7005 53.3024 23.4704C53.2065 23.2402 53.066 23.0313 52.8889 22.8557Z" fill="#E9FF00"/>
</g>
<defs>
<clipPath id="clip0_287_181">
<rect width="68" height="68" fill="white"/>
</clipPath>
</defs>
</svg>
