<svg width="88" height="67" viewBox="0 0 88 67" fill="none" xmlns="http://www.w3.org/2000/svg">
<rect x="2" y="2.125" width="84" height="62" rx="22" fill="#E9FF00"/>
<path fill-rule="evenodd" clip-rule="evenodd" d="M47.6255 15.6377L47.5522 15.7109C47.8086 15.4546 48.1015 15.2715 48.4311 15.1982C48.1382 15.2349 47.8818 15.3813 47.6255 15.6377ZM49.0903 15.125C49.2001 15.125 49.31 15.1616 49.4198 15.1982C49.31 15.1616 49.2001 15.1616 49.0903 15.125ZM48.9438 15.125H48.9072H49.0536H48.9438ZM55.1325 25.3419C55.6452 25.3419 56.0846 25.1954 56.4508 24.8292C56.817 24.463 57.0001 24.0602 57.0001 23.5475C57.0001 23.0348 56.8536 22.5954 56.4874 22.2292L54.1072 19.7391L50.2255 15.6743C50.5917 16.0039 50.7015 16.4799 50.7015 16.9926V21.4968L51.4339 22.2658L53.8142 24.756C54.1804 25.1588 54.6198 25.3419 55.1325 25.3419Z" fill="black"/>
<path fill-rule="evenodd" clip-rule="evenodd" d="M50.2253 15.6743C50.0056 15.4546 49.7492 15.2715 49.4197 15.1982H49.3831C49.2732 15.1616 49.1633 15.1616 49.0535 15.125H48.4309C48.1014 15.1982 47.8084 15.3813 47.5521 15.6377C47.5155 15.6743 47.5155 15.7109 47.4788 15.7109C47.1859 16.0405 47.0394 16.4433 47.0394 16.9194V33.5813C45.245 32.1531 43.1943 31.4207 40.8507 31.4207C38.1408 31.4207 35.7972 32.3728 33.8929 34.3137C31.9521 36.2545 31 38.5616 31 41.2714C31 43.9813 31.9521 46.3249 33.8929 48.2291C35.8338 50.17 38.1408 51.1221 40.8507 51.1221C43.5605 51.1221 45.8676 50.17 47.8084 48.2291C49.7492 46.3249 50.7014 44.0179 50.7014 41.2714V17.0292C50.738 16.4799 50.5915 16.0405 50.2253 15.6743Z" fill="black"/>
<rect x="2" y="2.125" width="84" height="62" rx="22" stroke="black" stroke-width="4"/>
</svg>
