<svg width="150" height="151" viewBox="0 0 150 151" fill="none" xmlns="http://www.w3.org/2000/svg">
<g clip-path="url(#clip0_1404_370)">
<path d="M80.5146 86.6569C99.8998 86.6569 115.615 70.9421 115.615 51.5569C115.615 32.1717 99.8998 16.4569 80.5146 16.4569C61.1294 16.4569 45.4146 32.1717 45.4146 51.5569C45.4146 70.9421 61.1294 86.6569 80.5146 86.6569Z" fill="#E9FF00"/>
<path d="M33.7145 135.128C39.2534 135.128 43.7435 130.638 43.7435 125.099C43.7435 119.56 39.2534 115.07 33.7145 115.07C28.1757 115.07 23.6855 119.56 23.6855 125.099C23.6855 130.638 28.1757 135.128 33.7145 135.128Z" fill="#E9FF00"/>
<path d="M83.8566 123.428C89.3954 123.428 93.8856 118.938 93.8856 113.399C93.8856 107.86 89.3954 103.37 83.8566 103.37C78.3178 103.37 73.8276 107.86 73.8276 113.399C73.8276 118.938 78.3178 123.428 83.8566 123.428Z" fill="#E9FF00"/>
<path d="M104.161 92.3775C116.348 79.1661 128.535 62.5962 128.535 49.1907C128.529 43.4947 126.709 37.9487 123.34 33.3565C119.97 28.7643 115.225 25.3646 109.793 23.6502C104.361 21.9359 98.5244 21.9959 93.129 23.8217C87.7335 25.6474 83.0597 29.144 79.785 33.8045C76.5096 29.1455 71.8358 25.6503 66.4409 23.8255C61.0459 22.0007 55.2101 21.9411 49.779 23.6553C44.3479 25.3694 39.6037 28.7683 36.2338 33.3595C32.8638 37.9507 31.0433 43.4956 31.0359 49.1907C31.0497 50.5397 31.1735 51.8831 31.4062 53.2128" stroke="#2A3042" stroke-width="4.81765" stroke-miterlimit="10" stroke-linecap="square" stroke-linejoin="round"/>
<path d="M89.5303 110.128L89.5358 56.5026L40.7812 66.2521V119.878" stroke="#2A3042" stroke-width="4.81765" stroke-miterlimit="10" stroke-linejoin="round"/>
<path d="M40.7854 85.7525L89.5358 76.003M31.0303 129.628C33.616 129.628 36.0959 128.6 37.9243 126.772C39.7527 124.944 40.7798 122.464 40.7798 119.878C40.7798 117.292 39.7527 114.812 37.9243 112.984C36.0959 111.156 33.616 110.128 31.0303 110.128C28.4446 110.128 25.9647 111.156 24.1363 112.984C22.3079 114.812 21.2808 117.292 21.2808 119.878C21.2808 122.464 22.3079 124.944 24.1363 126.772C25.9647 128.6 28.4446 129.628 31.0303 129.628ZM79.7849 119.877C81.0652 119.877 82.333 119.624 83.5159 119.134C84.6987 118.645 85.7735 117.926 86.6789 117.021C87.5842 116.116 88.3023 115.041 88.7923 113.858C89.2822 112.675 89.5344 111.407 89.5344 110.127C89.5344 108.847 89.2822 107.579 88.7923 106.396C88.3023 105.213 87.5842 104.138 86.6789 103.233C85.7735 102.328 84.6987 101.61 83.5159 101.12C82.333 100.63 81.0652 100.378 79.7849 100.378C77.199 100.378 74.719 101.405 72.8904 103.233C71.0619 105.062 70.0347 107.542 70.0347 110.128C70.0347 112.714 71.0619 115.194 72.8904 117.022C74.719 118.851 77.199 119.877 79.7849 119.877Z" stroke="#2A3042" stroke-width="4.81765" stroke-miterlimit="10" stroke-linejoin="round"/>
</g>
<defs>
<clipPath id="clip0_1404_370">
<rect width="117" height="119.753" fill="white" transform="translate(17 15.375)"/>
</clipPath>
</defs>
</svg>
