<svg width="150" height="151" viewBox="0 0 150 151" fill="none" xmlns="http://www.w3.org/2000/svg">
<g clip-path="url(#clip0_1404_378)">
<path fill-rule="evenodd" clip-rule="evenodd" d="M64.2407 24.0785C81.9514 16.8403 102.209 25.1856 109.459 42.6926C116.711 60.1983 108.21 80.2777 90.4992 87.5159C72.7885 94.7529 52.5339 86.4076 45.2813 68.9019C41.7174 60.3099 52.199 53.6324 55.4268 45.657C58.8156 37.3791 55.2308 27.8242 64.2407 24.0785Z" fill="#E9FF00"/>
<mask id="mask0_1404_378" style="mask-type:luminance" maskUnits="userSpaceOnUse" x="14" y="28" width="93" height="109">
<path d="M14 28.8534H106.115V136.077H14V28.8534Z" fill="white"/>
</mask>
<g mask="url(#mask0_1404_378)">
<path d="M66.3911 94.4855C75.612 94.4855 83.087 87.0106 83.087 77.7897C83.087 68.5689 75.612 61.0939 66.3911 61.0939C57.1703 61.0939 49.6953 68.5689 49.6953 77.7897C49.6953 87.0106 57.1703 94.4855 66.3911 94.4855Z" fill="#E9FF00"/>
<path d="M100.023 86.2363C103.313 80.3322 104.694 73.2627 104.177 65.9142C102.881 47.3286 87.8113 32.2149 69.1738 30.7977C47.5123 29.1584 29.3058 45.6064 28.1909 66.567L16.8293 91.7652H28.4557V110.613C28.4557 115.711 32.6089 119.851 37.7264 119.851H55.4021M94.1955 132.59V95.3902M55.4021 119.867V132.59" stroke="#2A3042" stroke-width="4.54255" stroke-miterlimit="10" stroke-linecap="round"/>
<path d="M78.7793 73.6105C79.6995 78.2764 76.6599 82.7917 71.9759 83.708C67.2919 84.6243 62.761 81.5964 61.8421 76.9292C60.9206 72.2621 63.9602 67.7468 68.6443 66.8318C70.2809 66.5102 71.9757 66.6689 73.5243 67.2886" stroke="#2A3042" stroke-width="4.54255" stroke-miterlimit="10" stroke-linecap="square"/>
<path d="M62.6637 51.0925V32.076M77.9566 51.0925V33.4933M87.0053 78.4036C88.7419 69.2212 82.6795 60.3749 73.4646 58.6448C64.2497 56.9147 55.3723 62.9563 53.6357 72.1388C51.8979 81.3199 57.9615 90.1675 67.1764 91.8976C76.3913 93.6276 85.2688 87.586 87.0053 78.4036Z" stroke="#2A3042" stroke-width="4.54255" stroke-miterlimit="10" stroke-linecap="square"/>
</g>
<path fill-rule="evenodd" clip-rule="evenodd" d="M129.607 81.5938C129.286 82.3634 129.607 83.3238 130.328 83.7093C130.488 83.7825 130.662 83.8204 130.837 83.8205C131.013 83.8206 131.187 83.7829 131.347 83.7099C131.507 83.6368 131.649 83.5302 131.764 83.3973C131.879 83.2644 131.964 83.1083 132.013 82.9397C132.253 82.3647 132.414 81.7871 132.654 81.2096C134.099 76.9811 134.901 72.3685 134.901 67.4651C134.901 62.6604 134.099 57.9517 132.735 53.7233C132.575 53.1457 132.334 52.5681 132.093 51.9919C131.773 51.2235 131.051 50.8394 130.409 51.2235C129.687 51.6077 129.447 52.5681 129.687 53.3378C129.929 53.914 130.09 54.3943 130.249 54.9718C131.584 59.002 132.26 63.221 132.253 67.4664C132.253 71.887 131.531 76.1154 130.249 79.9597C130.008 80.5373 129.847 81.0175 129.607 81.5938ZM122.736 58.1529C123.744 60.9602 124.384 64.0582 124.384 67.3483C124.384 70.5437 123.835 73.6417 122.737 76.545C122.553 77.1265 122.279 77.6093 122.096 78.0934C121.73 78.9656 122.096 79.9338 122.828 80.3206C123.561 80.6113 124.476 80.3206 124.751 79.5457C125.027 78.9656 125.21 78.3854 125.483 77.804C126.676 74.6086 127.315 71.0278 127.315 67.4457C127.315 63.7662 126.675 60.2814 125.485 57.0886C125.3 56.5059 125.027 55.9257 124.751 55.3456C124.596 54.9908 124.307 54.7111 123.948 54.5663C123.588 54.4215 123.186 54.4231 122.828 54.5708C122.628 54.6621 122.448 54.794 122.301 54.9581C122.154 55.1221 122.043 55.3148 121.974 55.5241C121.906 55.7333 121.881 55.9545 121.902 56.1737C121.923 56.393 121.989 56.6055 122.096 56.7979C122.279 57.0873 122.462 57.6675 122.736 58.1529ZM116.655 74.7747C116.329 75.621 116.655 76.5606 117.308 76.9357C117.96 77.2186 118.693 76.9357 119.021 76.1842C119.264 75.621 119.508 75.0577 119.67 74.4931C120.436 72.2283 120.821 69.8454 120.812 67.4457C120.812 65.0018 120.405 62.6539 119.672 60.3982C119.509 59.8336 119.264 59.2691 119.019 58.7071C118.694 57.9543 117.96 57.6727 117.307 57.9543C116.575 58.3307 116.248 59.2704 116.655 60.1166C116.899 60.5851 117.063 61.1497 117.226 61.6195C117.797 63.4054 118.122 65.3794 118.122 67.4457C118.122 69.5119 117.797 71.3912 117.226 73.2731C117.063 73.7416 116.901 74.3049 116.655 74.7747Z" fill="#2A3042"/>
</g>
<defs>
<clipPath id="clip0_1404_378">
<rect width="122" height="120.702" fill="white" transform="translate(14 15.375)"/>
</clipPath>
</defs>
</svg>
