<svg width="150" height="150" viewBox="0 0 150 150" fill="none" xmlns="http://www.w3.org/2000/svg">
<path fill-rule="evenodd" clip-rule="evenodd" d="M91.4998 114.835C91.7688 115.362 92.1723 115.738 92.7095 115.738C93.1122 115.738 93.4485 115.512 93.7167 115.211C93.9857 114.91 94.1202 114.458 94.1202 114.006C94.1202 113.403 94.1202 112.801 94.053 112.124C93.9184 112.048 93.7167 112.048 93.583 111.973L92.037 111.371L91.7688 113.404C91.7049 113.886 91.615 114.363 91.4998 114.835Z" fill="#384652"/>
<path fill-rule="evenodd" clip-rule="evenodd" d="M34.9256 104.74C14.8249 101.836 32.3611 69.5496 50.8677 55.4462C66.9487 43.1405 96.6142 50.4682 105.903 68.5137C115.191 86.5574 107.566 123.475 88.2278 129.628C68.127 135.92 66.8797 109.372 34.9256 104.74Z" fill="#E9FF00"/>
<path fill-rule="evenodd" clip-rule="evenodd" d="M66.3773 93.9689C66.2376 102.424 66.1686 109.31 66.1686 111.628C66.1686 119.674 72.1467 126.22 79.5146 126.22C85.5618 126.22 90.7739 121.72 92.3733 115.515L91.8868 114.969C91.609 115.242 91.2613 115.447 90.8438 115.447C90.2883 115.447 89.8017 115.107 89.5231 114.561C88.2723 119.401 84.2411 122.879 79.5837 122.879C73.8841 122.879 69.2267 117.834 69.2267 111.56C69.2267 110.198 69.2267 107.401 69.2966 103.651C68.6711 103.446 68.2536 102.833 68.2536 102.083C68.2536 101.332 68.7401 100.719 69.3656 100.515C69.3656 98.9461 69.4354 97.31 69.4354 95.6059H69.0878C68.7401 95.6059 68.3235 95.6059 67.9758 95.5368C67.2115 95.4687 66.5852 94.7193 66.5852 93.9008H66.3773V93.9689ZM66.1686 93.9008H66.3031V93.761C66.3704 92.8587 67.1093 92.1643 67.9156 92.2333C68.3191 92.3032 68.7218 92.3032 69.1253 92.2333C69.1926 87.5794 69.259 82.5777 69.3262 77.5761C69.4608 68.8238 69.5953 60.3492 69.6625 54.5142H68.6545C67.8483 54.5142 67.1766 53.7499 67.1766 52.8467H66.773C66.7058 58.6817 66.5721 67.9206 66.4376 77.5071C66.3031 83.1333 66.2358 88.8302 66.1686 93.9008Z" fill="#384652"/>
<path fill-rule="evenodd" clip-rule="evenodd" d="M67.042 92.8194V92.9644C67.042 93.8327 67.5408 94.6293 68.2902 94.7027C68.6641 94.7743 68.9759 94.7743 69.2877 94.7743H69.6004C69.6004 93.616 69.6004 92.4569 69.6625 91.2987H68.5392C67.7906 91.1537 67.104 91.8787 67.042 92.8194ZM67.18 52.9585H67.5949C67.5949 52.0527 68.285 51.2867 69.1148 51.2867H70.2198V47.4573C70.2198 42.1639 74.0893 37.7773 78.7869 37.7773C83.5545 37.7773 87.3541 42.0949 87.3541 47.4573C87.3541 47.8757 87.2851 48.2932 87.2161 48.8505L87.0781 49.7555C87.3541 49.3379 87.7682 48.9894 88.322 48.9894C89.0819 48.9894 89.7038 49.6166 89.8418 50.4516C90.6018 50.173 91.4307 50.104 92.1907 50.104C96.9582 50.104 100.758 54.4216 100.758 59.784C100.758 61.1073 100.551 62.3608 100.067 63.5444C100.689 63.5444 101.242 63.9619 101.449 64.659C101.518 64.7987 101.518 64.9376 101.518 65.0765L102.762 64.9367C103.394 63.2916 103.722 61.5449 103.729 59.7823C103.729 52.61 98.5471 46.7603 92.1217 46.7603C91.4997 46.7603 90.8778 46.8301 90.2559 46.9699C89.9799 40.0737 84.8664 34.5034 78.6489 34.5034C72.2235 34.5034 67.042 40.3532 67.042 47.5263C67.249 48.3622 67.249 50.3119 67.18 52.9585Z" fill="#384652"/>
<path fill-rule="evenodd" clip-rule="evenodd" d="M68.5592 51.0997C67.7312 51.0997 67.042 51.9007 67.042 52.8467C67.042 53.7927 67.732 54.5937 68.5592 54.5937H69.5935C69.5935 53.2835 69.5935 52.1191 69.6625 51.0997H68.5592ZM69.6625 100.015C69.1707 100.242 68.789 100.926 68.789 101.762C68.789 102.598 69.1165 103.282 69.6083 103.509C69.6625 102.446 69.6625 101.306 69.6625 100.015Z" fill="#384652"/>
<path fill-rule="evenodd" clip-rule="evenodd" d="M68.8614 100.147C68.8614 101.204 68.8614 102.261 68.7889 103.187C68.9339 103.252 69.0781 103.252 69.2956 103.252C70.4306 103.254 71.538 103.603 72.4688 104.252C73.3995 104.902 74.1089 105.821 74.5016 106.886C74.7199 107.546 75.3698 107.877 75.9489 107.877C76.1656 107.877 76.3106 107.81 76.5272 107.745C77.3221 107.415 77.7562 106.49 77.3946 105.696C76.0931 102.261 72.8384 100.015 69.2231 100.015C69.121 100.099 68.9935 100.146 68.8614 100.147ZM69.7297 91.5109C69.7297 92.6665 69.6624 93.7549 69.6624 94.7743C73.0079 94.7062 76.1542 92.9391 78.3624 89.9482C81.3069 85.869 81.8424 80.2953 79.7687 75.6047C79.4333 74.7888 78.4969 74.449 77.8269 74.8569C77.0915 75.2649 76.8233 76.2842 77.2242 77.1001C78.7642 80.567 78.3624 84.8497 76.1542 87.8405C74.4806 90.0836 72.206 91.3755 69.7297 91.5109ZM69.6624 54.5937H77.6811C78.5485 54.5937 79.2708 53.7927 79.2708 52.8467C79.2708 51.9007 78.5485 51.0997 77.6811 51.0997H69.7349C69.6624 52.0457 69.6624 53.2835 69.6624 54.5937ZM84.7852 102.509C84.2838 103.27 84.4987 104.308 85.2141 104.861C87.7909 106.729 89.3666 109.84 89.3666 113.23C89.3666 113.507 89.4383 113.783 89.5815 113.991C89.7248 113.576 89.7964 113.091 89.868 112.607L90.1536 110.671L91.8718 111.294C92.0151 111.363 92.2299 111.432 92.3732 111.432C91.8718 107.628 89.9388 104.239 87.0038 102.094C86.2168 101.541 85.2857 101.679 84.7852 102.509ZM86.3872 93.2317C86.0561 94.0868 86.3872 95.1543 87.1157 95.5115C87.8441 95.867 88.7045 95.5115 89.0356 94.6555C90.1606 91.5939 92.4116 89.4582 94.9937 88.7454L94.7954 87.8912C94.6626 87.9619 94.5298 87.9619 94.3979 87.9619C93.8022 87.9619 93.272 87.5348 93.0737 86.8936C93.0073 86.6089 92.8754 86.3241 92.7427 86.0394C89.9624 87.25 87.645 89.8129 86.3872 93.2317ZM87.1322 60.5509V60.9422C87.1322 62.2464 87.7917 63.4841 88.7805 64.2021C89.1762 63.485 89.5055 62.7023 89.7029 61.855C89.7689 61.5983 89.7689 61.3291 89.7029 61.0724C89.5719 60.5509 89.2417 60.0941 88.7141 59.8993C88.1874 59.7036 87.5279 59.9639 87.1322 60.5509Z" fill="#384652"/>
<path fill-rule="evenodd" clip-rule="evenodd" d="M87.1322 50.2586V60.1509C87.4371 59.5237 88.0468 59.245 88.5944 59.4538C89.0827 59.6635 89.3867 60.1509 89.509 60.7081L89.7527 60.6383V50.0489L89.2041 50.2586L87.1322 51.2334L87.3768 49.3528C87.2545 49.6314 87.1322 49.9101 87.1322 50.2586Z" fill="#384652"/>
<path fill-rule="evenodd" clip-rule="evenodd" d="M87.3768 49.2375L87.1322 51.0998L89.2041 50.1346L89.7527 49.9275C89.6915 49.0995 89.0827 48.4793 88.4119 48.4793C88.0467 48.4793 87.6205 48.7553 87.3768 49.2375ZM88.5883 79.925C87.7934 79.925 87.1322 80.6639 87.1322 81.5374C87.1322 82.4109 87.7943 83.1499 88.5883 83.1499C90.4401 83.1499 92.0954 84.2924 93.0213 86.0394C93.9274 85.6385 94.8854 85.3671 95.8671 85.2332C94.6093 82.0755 91.7643 79.925 88.5883 79.925ZM89.8671 61.5537C89.655 62.4398 89.3226 63.2927 88.8792 64.0886C89.6557 64.652 90.6436 65.0747 91.6324 65.0747H94.314C95.1613 65.0747 95.8671 64.2999 95.8671 63.3845C95.8671 62.4682 95.1613 61.6935 94.314 61.6935H91.6324C90.855 61.6935 90.22 61.2008 90.1501 60.7073L89.8671 60.7772C90.0086 60.9894 89.9379 61.2716 89.8671 61.5537ZM92.3731 114.901L92.8544 115.459C93.7489 115.669 94.7115 115.738 95.6059 115.738C103.446 115.738 109.843 108.483 109.843 99.6239C109.842 98.2879 109.704 96.9556 109.431 95.6478C109.568 96.5545 109.706 97.4611 109.706 98.3687C109.706 99.2754 109.018 100.042 108.192 100.042C107.642 100.042 107.161 99.6929 106.885 99.2055V99.6248C106.885 106.669 101.795 112.39 95.6059 112.39C94.6425 112.39 93.6109 112.25 92.6483 111.971C92.7173 112.53 92.7854 113.157 92.7854 113.785C92.7854 114.204 92.6483 114.622 92.3731 114.901Z" fill="#384652"/>
<path fill-rule="evenodd" clip-rule="evenodd" d="M92.3732 86.0175C92.5225 86.2796 92.6719 86.5416 92.747 86.8037C92.9706 87.4588 93.6432 87.7864 94.2407 87.7864C94.3892 87.7864 94.5394 87.7864 94.6888 87.7209C94.763 87.7209 94.763 87.7208 94.8373 87.6553C95.6592 87.3278 96.1073 86.4106 95.7344 85.6245C95.6592 85.4935 95.585 85.2969 95.5099 85.1659C94.5394 85.3624 93.4187 85.6245 92.3732 86.0175Z" fill="#384652"/>
<path fill-rule="evenodd" clip-rule="evenodd" d="M94.9938 87.2771L95.1982 88.1506C95.8812 88.0047 96.4953 87.8589 97.1775 87.8589C99.7709 87.8589 102.091 89.1691 103.729 91.2803C103.455 90.8436 103.115 90.4068 102.773 90.0426L101.341 88.4415L102.978 87.2037C103.251 86.9854 103.455 86.8404 103.729 86.622C101.886 85.1659 99.6338 84.2924 97.2456 84.2924C96.7678 84.2924 96.29 84.2924 95.8812 84.3649C95.9494 84.5108 96.0175 84.6566 96.0856 84.875C96.359 85.821 96.0175 86.8404 95.2663 87.1312C95.0619 87.2771 94.9938 87.2771 94.9938 87.2771ZM99.6748 64.6624L98.4877 66.4417L99.8967 66.8226C100.194 66.6322 100.564 66.5046 100.935 66.3142C101.603 66.0609 102.048 65.425 101.974 64.7262C101.974 64.5995 101.9 64.4729 101.9 64.3454C101.677 63.7732 101.084 63.3924 100.416 63.3286C100.194 63.7741 99.9718 64.2178 99.6748 64.6624Z" fill="#384652"/>
<path fill-rule="evenodd" clip-rule="evenodd" d="M98.4875 67.3117L99.1339 67.5153C103.662 68.8028 106.753 73.0724 106.753 77.9517C106.753 81.4081 105.243 84.5256 102.656 86.5591C103.526 87.1643 104.322 87.8694 105.027 88.6599C108.046 86.0167 109.843 82.1541 109.843 77.9517C109.843 72.2592 106.608 67.2445 101.722 65.0756L100.428 65.211C100.5 65.8888 100.069 66.5667 99.4938 66.8374C99.1348 66.9728 98.7749 67.1082 98.4875 67.3117ZM100.235 88.5524L101.677 89.9876C102.037 90.3282 102.398 90.7388 102.686 91.0794C103.769 92.3102 104.562 93.8135 104.85 95.453C105.067 96.4095 105.211 97.3659 105.283 98.3215C105.572 98.8002 106.005 99.1418 106.581 99.1418C107.446 99.1418 108.096 98.4587 108.096 97.5703C108.096 96.682 108.023 95.8627 107.879 95.0425C107.374 92.8561 106.365 90.8069 104.995 89.0311C104.287 88.2344 103.488 87.5235 102.615 86.9129C102.398 87.1182 102.11 87.2544 101.893 87.4597L100.235 88.5524Z" fill="#384652"/>
<path fill-rule="evenodd" clip-rule="evenodd" d="M102.855 91.2803C103.67 92.5766 104.311 94.0781 104.602 95.6478C104.311 94.01 103.728 92.5085 102.855 91.2803ZM105.475 88.6599C106.748 90.503 107.639 92.5819 108.096 94.7743C107.721 92.5568 106.823 90.4607 105.475 88.6599ZM104.777 95.6478C104.951 96.2715 105.039 96.896 105.039 97.5817C105.039 97.8315 105.126 98.0813 105.301 98.2683C105.301 97.3948 105.126 96.5213 104.777 95.6478Z" fill="#384652"/>
<path d="M63.9324 93.8091C63.8625 88.7061 63.7926 83.1202 63.7227 77.5342C63.583 68.0175 63.4432 58.7769 63.3733 53.0538C63.3733 50.4333 63.3034 48.5029 63.3034 47.6058C63.3034 40.5026 58.0625 34.7104 51.5637 34.7104C45.2746 34.7104 40.1035 40.2274 39.824 47.0537C39.1951 46.9166 38.5662 46.8476 37.9373 46.8476C31.4385 46.8476 26.1976 52.6397 26.1976 59.7429C26.1976 61.5353 26.547 63.2596 27.1759 64.8459C22.2843 67.1213 19 72.4304 19 78.4304C19 82.8442 20.747 86.9819 23.8217 89.7404C24.5205 88.9123 25.2891 88.1541 26.1976 87.5339C23.5422 85.3956 22.0048 82.017 22.0048 78.4304C22.0048 73.2593 25.1494 68.7076 29.7614 67.3973L30.4602 67.1903C32.3469 68.4316 33.5349 70.638 33.6048 73.1213C33.6048 74.0175 34.3036 74.7757 35.1421 74.7757C35.9807 74.7757 36.6795 74.0175 36.6795 73.1213C36.6096 68.9146 34.1638 65.0529 30.6 63.6047C30.3204 63.5348 30.1807 63.4666 29.971 63.4666C29.4819 62.2944 29.2723 61.0532 29.2723 59.7429C29.2723 54.502 33.1855 50.1573 37.9373 50.1573C38.7059 50.1573 39.5445 50.2953 40.3132 50.5023C40.3831 49.6742 41.0818 49.054 41.8505 49.054C41.7108 49.054 41.571 49.054 41.5011 49.123C41.3614 49.1921 41.2216 49.1921 41.0818 49.3301L40.8722 49.5371C40.6626 49.7432 40.5228 49.9502 40.4529 50.2953C40.4529 50.3643 40.3831 50.5023 40.3831 50.5713V61.0532C40.3132 61.5353 39.7541 62.0184 38.9156 62.0184H36.2602C35.4216 62.0184 34.7228 62.7766 34.7228 63.6737C34.7228 64.5699 35.4216 65.328 36.2602 65.328H38.9156C39.9638 65.328 40.9421 64.9839 41.6409 64.3628C43.318 67.5354 46.3927 69.6038 49.7469 69.8798H49.8866C50.6553 69.8798 51.3541 69.1897 51.424 68.2935C51.4939 67.3973 50.8649 66.5701 50.0264 66.5011C47.0216 66.2941 44.436 64.0178 43.5975 60.8462L43.3879 60.4321V50.7783C43.3879 50.4333 43.318 50.0883 43.1083 49.8812L42.9686 48.985C42.8987 48.433 42.8288 48.0198 42.8288 47.6058C42.8288 42.3648 46.7421 38.0201 51.4939 38.0201C56.3854 38.0201 60.2288 42.2958 60.2288 47.6058V51.3985C60.2288 52.1576 60.2288 53.0538 60.2986 53.95C60.2986 52.9847 60.2986 52.1567 60.2288 51.3985L52.542 51.3994C51.7035 51.3994 51.0047 52.1576 51.0047 53.0538C51.0047 53.95 51.7035 54.709 52.542 54.709H60.2986C60.3685 60.5011 60.5083 68.9146 60.648 77.6032C60.7179 82.5681 60.7878 87.5339 60.8577 92.1538C58.2721 92.0158 55.8264 90.7056 54.2191 88.4991C51.9131 85.3956 51.4939 81.1199 53.1011 77.6032C53.4505 76.776 53.171 75.7418 52.4722 75.3278C51.7035 74.9137 50.7951 75.2579 50.4457 76.086C48.2794 80.8447 48.8384 86.4988 51.9131 90.6366C54.1493 93.6711 57.5035 95.3953 60.9974 95.5325C60.9974 97.2567 61.0673 98.981 61.0673 100.498C61.6962 100.704 62.1854 101.325 62.1854 102.084C62.1854 102.843 61.7661 103.464 61.1372 103.67C61.2071 107.463 61.2071 110.291 61.2071 111.669C61.2071 117.945 56.5252 123.116 50.7951 123.116C46.1132 123.116 41.9903 119.6 40.8023 114.704C40.9421 114.497 41.012 114.221 41.012 113.945C41.012 110.634 42.5493 107.463 45.065 105.601C45.7638 105.049 45.9734 104.015 45.4842 103.257C44.9951 102.498 44.0867 102.291 43.3879 102.774C40.4529 104.911 38.5662 108.36 38.1469 112.083C38.2168 112.083 38.2168 112.083 38.2867 112.014C38.2168 112.014 38.2168 112.014 38.1469 112.083C37.1686 112.359 36.1903 112.497 35.1421 112.497C28.853 112.497 23.6819 106.842 23.6819 99.8772V99.4632C23.8217 99.257 23.8915 98.981 23.8915 98.636C23.8915 97.8778 23.9614 97.1187 24.1012 96.4296C24.4506 94.6363 25.2193 93.05 26.3373 91.8088C26.4771 91.6018 26.6867 91.3956 26.8265 91.2576C26.6867 91.4646 26.4771 91.6018 26.3373 91.8088C28.0144 89.8085 30.3903 88.5681 33.0457 88.5681C33.6746 88.5681 34.2337 88.6371 34.8626 88.7752C34.9325 88.7752 35.0023 88.7752 35.1421 88.8442C37.9373 89.5333 40.2433 91.6708 41.4312 94.5673C41.7806 95.3953 42.6891 95.8085 43.4577 95.3953C44.2264 95.0503 44.5758 94.0152 44.2264 93.188C44.0867 92.7749 43.877 92.3608 43.6674 92.0158C42.5493 89.7404 40.8023 88.0161 38.7758 86.7749C38.7059 86.7059 38.6361 86.7059 38.5662 86.6368C38.2168 86.4298 37.8674 86.2918 37.518 86.0857C36.5589 85.6738 35.5479 85.3952 34.5132 85.2576C34.024 85.1886 33.6048 85.1886 33.1156 85.1886C30.6698 85.1886 28.3638 86.0167 26.4771 87.3959C25.6385 88.0161 24.8 88.7752 24.1012 89.6024C24.0313 89.6714 23.9614 89.7404 23.9614 89.8094C24.0313 89.7395 24.1012 89.6714 24.1012 89.6024C22.6265 91.4154 21.6402 93.5756 21.2361 95.8775C20.955 97.1454 20.8144 98.4405 20.8169 99.7392C20.8169 108.566 27.3156 115.669 35.2819 115.669C36.2602 115.669 37.1686 115.531 38.077 115.393C39.6843 121.669 44.9252 126.22 51.0047 126.22C58.4119 126.22 64.4215 119.6 64.4215 111.462C64.142 109.325 64.0721 102.361 63.9324 93.8091ZM29.971 63.4666C29.971 63.5356 30.0409 63.5356 30.0409 63.6047C30.0409 63.6737 30.0409 63.6737 30.1108 63.7427C30.1108 63.6728 30.1108 63.6728 30.0409 63.6047C29.971 63.6047 29.971 63.5348 29.971 63.4666ZM28.7831 64.2248C28.7132 64.3628 28.6433 64.4318 28.5735 64.5699C28.5735 64.6389 28.5735 64.7079 28.5036 64.7769C28.5036 64.707 28.5036 64.6389 28.5735 64.5699C28.6433 64.4318 28.7132 64.2938 28.7831 64.2248ZM29.4819 66.7073C29.6216 66.7772 29.8313 66.8453 29.971 66.9143C30.0409 66.9842 30.1108 66.9842 30.1807 67.0523C30.2506 67.1222 30.3204 67.1222 30.3903 67.1903C30.1108 67.0523 29.8313 66.8453 29.4819 66.7073ZM34.0939 85.9477C34.1638 85.8097 34.1638 85.7407 34.2337 85.6026C34.1638 85.7407 34.0939 85.8787 34.0939 85.9477ZM20.6771 98.774C20.6771 98.291 20.6771 97.8778 20.747 97.3948C20.6771 97.8778 20.6771 98.36 20.6771 98.774C20.6771 99.6702 21.3759 100.429 22.2144 100.429C21.3759 100.429 20.6771 99.7392 20.6771 98.774ZM23.1928 100.015C22.9831 100.222 22.7036 100.36 22.3542 100.429C22.7036 100.429 22.9831 100.291 23.1928 100.015ZM38.2867 115.117C38.3566 115.255 38.4963 115.324 38.6361 115.393C38.4963 115.324 38.4264 115.255 38.2867 115.117ZM39.4047 115.6C39.7541 115.6 40.1035 115.462 40.3132 115.255C40.0337 115.462 39.7541 115.6 39.4047 115.6Z" fill="#2A3042"/>
<path fill-rule="evenodd" clip-rule="evenodd" d="M53.5902 108.567C53.7999 108.635 53.9396 108.704 54.1493 108.704C54.7782 108.704 55.3372 108.291 55.5468 107.67C56.3155 105.394 58.342 103.877 60.5782 103.877C60.7179 103.877 60.9275 103.877 61.0673 103.808C61.6962 103.601 62.1155 102.981 62.1155 102.222C62.1155 101.463 61.6263 100.842 60.9974 100.636C60.8577 100.566 60.7179 100.566 60.5782 100.566C57.0842 100.566 53.9396 102.981 52.6818 106.497C52.4023 107.256 52.7517 108.223 53.5902 108.567ZM41.9903 83.3962C42.8288 83.3962 43.5276 82.6371 43.5276 81.7409C43.5276 80.8447 42.8288 80.0857 41.9903 80.0857C38.7059 80.0857 35.6313 82.293 34.3036 85.5336C35.3517 85.6716 36.3301 85.9476 37.3084 86.3608C38.2168 84.5684 40.0337 83.3962 41.9903 83.3962ZM26.1976 91.9468C25.1494 93.188 24.3108 94.7743 23.9614 96.5676C24.3807 94.9123 25.1494 93.3269 26.1976 91.9468Z" fill="#2A3042"/>
<path fill-rule="evenodd" clip-rule="evenodd" d="M102.855 91.2803C103.67 92.5766 104.311 94.0781 104.602 95.6478C104.311 94.01 103.728 92.5085 102.855 91.2803ZM105.475 88.6599C106.748 90.5029 107.639 92.5818 108.096 94.7743C107.721 92.5568 106.823 90.4607 105.475 88.6599ZM104.777 95.6478C104.951 96.2714 105.039 96.896 105.039 97.5817C105.039 97.8315 105.126 98.0813 105.301 98.2682C105.301 97.3948 105.126 96.5213 104.777 95.6478Z" fill="#384652"/>
<path fill-rule="evenodd" clip-rule="evenodd" d="M69.8853 99.6868C69.7473 99.6868 69.6093 99.6868 69.4722 99.7558C68.852 99.9628 68.3716 100.586 68.3716 101.346C68.3716 102.106 68.7839 102.727 69.4032 102.934C69.5412 103.003 69.6783 103.003 69.8853 103.003C72.0865 103.003 74.0833 104.523 74.8398 106.803C74.927 107.101 75.1082 107.363 75.3562 107.55C75.6042 107.737 75.9059 107.838 76.2164 107.84C76.4225 107.84 76.5606 107.771 76.7667 107.702C77.524 107.356 77.9372 106.389 77.593 105.56C76.4225 102.106 73.326 99.6868 69.8853 99.6868ZM88.1911 79.234C87.3656 79.234 86.6773 79.994 86.6773 80.8919C86.6773 81.7907 87.3656 82.5507 88.1911 82.5507C90.118 82.5507 91.8388 83.7255 92.8022 85.5214C93.7455 85.1093 94.7415 84.8304 95.7616 84.6925C94.454 81.4448 91.4946 79.234 88.1911 79.234Z" fill="#2A3042"/>
<path d="M108.906 95.3333C108.356 93.0535 107.392 90.9117 106.015 89.0459C105.327 88.2161 104.571 87.4562 103.675 86.8343C103.538 86.9041 103.469 86.9731 103.331 87.1112C103.469 87.0413 103.538 86.9731 103.675 86.8343C101.817 85.4524 99.5464 84.6243 97.1382 84.6243C96.656 84.6243 96.1747 84.6243 95.7615 84.6925C94.7414 84.8306 93.7454 85.1099 92.8021 85.5223C89.9109 86.7652 87.5027 89.322 86.1951 92.6386C85.8509 93.4684 86.1951 94.5044 86.9524 94.8503C87.7097 95.1953 88.6033 94.8503 88.9483 94.0205C90.1188 91.0497 92.458 88.9769 95.1414 88.286C95.8305 88.1471 96.4498 88.0091 97.1382 88.0091C99.7525 88.0091 102.093 89.253 103.744 91.2567C103.607 91.0497 103.4 90.8427 103.263 90.7038C103.4 90.9117 103.607 91.0497 103.744 91.2567C104.855 92.5909 105.612 94.1829 105.946 95.8862C106.222 96.8541 106.36 97.89 106.36 98.926V99.3409C106.36 106.32 101.267 111.986 95.0732 111.986C94.1098 111.986 93.0773 111.848 92.1138 111.572C91.6325 107.772 89.7738 104.385 86.9515 102.243C86.2641 101.691 85.3696 101.898 84.8874 102.727C84.4062 103.486 84.6123 104.523 85.3006 105.076C87.7778 106.942 89.2925 110.052 89.2925 113.437C89.2925 113.713 89.3615 113.99 89.4986 114.197C88.26 119.103 84.2681 122.626 79.657 122.626C74.0142 122.626 69.4031 117.514 69.4031 111.157C69.4031 109.775 69.4031 106.942 69.4721 103.141C68.8519 102.934 68.4396 102.312 68.4396 101.552C68.4396 100.792 68.9218 100.171 69.5402 99.9628C69.5402 98.3731 69.6101 96.7152 69.6101 94.9883C73.0508 94.9184 76.2853 93.1225 78.5564 90.0819C81.5839 85.9363 82.1351 80.2708 80.0011 75.5033C79.657 74.6735 78.6935 74.3285 78.0061 74.7434C77.2488 75.1574 76.9736 76.1934 77.3859 77.0232C78.9695 80.5469 78.5564 84.9004 76.2853 87.9401C74.6335 90.1509 72.2935 91.4638 69.7472 91.6026C69.8162 86.9731 69.8852 81.9977 69.9534 77.0232C70.0914 68.3163 70.2285 59.8871 70.2975 54.0827H77.9371C78.7625 54.0827 79.4508 53.3228 79.4508 52.424C79.4508 51.526 78.7625 50.7661 77.9371 50.7661H70.3665V46.9664C70.3665 41.7141 74.2204 37.3615 78.9005 37.3615C83.6488 37.3615 87.4345 41.6451 87.4345 46.9655C87.4345 47.3804 87.3647 47.7953 87.2965 48.3474L87.1585 49.2462C87.0214 49.5222 86.8834 49.7983 86.8834 50.1442V60.3701C86.8834 61.7528 87.5717 63.0657 88.6041 63.8256C89.3615 64.3777 90.3249 64.7926 91.2884 64.7926H93.9036C94.7291 64.7926 95.4174 64.0327 95.4174 63.1347C95.4174 62.2359 94.7291 61.476 93.9036 61.476H91.2884C90.5311 61.476 89.9118 60.992 89.8428 60.509V49.7292C89.7738 48.9003 89.0854 48.2793 88.3971 48.2793C89.1544 48.2793 89.7738 48.9003 89.9118 49.7292C90.6682 49.4532 91.4945 49.3842 92.2518 49.3842C97.0001 49.3842 100.786 53.6678 100.786 58.9882C100.786 60.3011 100.579 61.545 100.097 62.7198C99.8905 62.7198 99.6844 62.7198 99.5464 62.7897C95.9677 64.2397 93.5595 68.1092 93.5595 72.3247C93.5595 73.2227 94.1788 73.9826 95.0732 73.9826C95.8987 73.9826 96.587 73.2227 96.587 72.3247C96.587 69.837 97.8256 67.6253 99.6844 66.3823L100.373 66.5894C104.845 67.9022 108.011 72.4627 108.011 77.6451C108.011 81.3068 106.498 84.6243 103.882 86.7653C104.744 87.4112 105.529 88.1532 106.222 88.9769C109.25 86.2132 110.971 82.0676 110.971 77.6451C110.971 71.6329 107.736 66.3125 102.919 64.0327C103.549 62.4012 103.876 60.6682 103.882 58.9192C103.882 51.802 98.7201 45.9986 92.32 45.9986C91.7007 45.9986 91.0814 46.0676 90.4621 46.2056C90.1869 39.3653 85.0945 33.837 78.9005 33.837C72.4996 33.837 67.3381 39.6413 67.3381 46.7585C67.3381 47.6565 67.3381 49.5912 67.27 52.2178C67.2001 58.0213 67.063 67.2113 66.9259 76.7463C66.856 82.3436 66.7878 87.9401 66.7188 93.0535C66.5817 101.622 66.5127 108.6 66.5127 110.95C66.5127 119.103 72.4315 125.736 79.726 125.736C85.7138 125.736 90.8752 121.176 92.458 114.887C93.3524 115.095 94.3159 115.164 95.2104 115.164C103.056 115.164 109.457 107.978 109.457 99.2029C109.387 97.959 109.249 96.6462 108.906 95.3333ZM100.029 62.6508C99.9587 62.7888 99.8905 62.9268 99.8905 63.0657C99.9595 62.9268 99.9595 62.7888 100.029 62.6508ZM98.2388 66.0364L99.3394 64.1017L98.2396 66.0364L98.5139 66.1063L98.2388 66.0364ZM101.198 65.3455C101.043 65.5804 100.829 65.7709 100.578 65.8984C100.235 66.0412 99.9115 66.227 99.6154 66.4514C99.8905 66.2435 100.234 66.1055 100.578 65.8984C100.784 65.7604 100.992 65.6215 101.198 65.3455Z" fill="#2A3042"/>
<path fill-rule="evenodd" clip-rule="evenodd" d="M126.439 24.0216V51.1006C126.439 58.4362 120.42 64.3323 113.086 64.3323H94.6818L84.3056 74.684V64.4004H77.5238V37.2523C77.5238 29.9176 83.543 24.0216 90.8769 24.0216H126.439Z" fill="#E9FF00"/>
<path d="M112.153 53.0433C109.945 53.0433 109.945 49.0401 112.153 49.0401C115.534 49.0401 115.534 53.0433 112.153 53.0433ZM104.425 38.2734V37.0313C104.425 36.6863 104.287 35.7892 104.425 35.5132C104.563 35.3062 105.529 35.1681 105.805 35.0991C108.082 34.4091 110.565 33.719 112.843 32.9591C113.464 32.7521 113.878 32.5451 115.051 32.3389V33.5801C115.051 34.0632 114.982 34.8231 114.844 35.2372C114.775 35.5132 114.775 35.3062 114.499 35.5132C114.223 35.6512 113.74 35.7202 113.464 35.7892C111.187 36.4094 108.841 37.0313 106.563 37.7214C105.805 37.8594 104.977 38.0664 104.425 38.2734ZM99.9395 54.0093C96.6281 54.0093 96.6281 50.0061 99.9395 50.0061C102.7 50.0061 102.7 54.0093 99.9395 54.0093ZM117.604 51.0412C117.604 44.0018 117.742 36.8933 117.673 29.8538C117.673 29.0939 117.328 28.2658 116.362 28.4038C115.948 28.4737 115.465 28.6799 115.052 28.8179C113.188 29.5079 111.256 30.1299 109.393 30.8199C107.392 31.51 105.391 32.2 103.39 32.96C102.976 33.0971 102.631 33.2351 102.217 33.3731C101.527 33.6491 100.699 33.7872 100.561 34.6161C100.492 34.9611 100.492 35.3062 100.492 35.6512V46.9699C98.8354 46.3488 96.145 47.1769 94.9711 48.9711C93.7298 50.8342 93.8678 53.4573 95.248 55.2514C96.6281 56.9775 99.0424 57.6675 101.113 56.9085C103.114 56.1485 104.356 54.1474 104.425 52.0082C104.494 49.5231 104.425 47.038 104.425 44.5538V42.5526C104.425 42.3456 104.356 41.7246 104.425 41.5866C104.632 41.2415 106.288 41.1035 106.633 41.0345C109.323 40.2746 111.601 39.5155 114.914 38.7564V46.2108C111.049 44.6918 107.392 47.4529 107.53 51.1792C107.668 54.8374 111.601 57.3225 114.913 55.6655C115.741 55.2514 116.431 54.5614 116.914 53.8023C117.328 53.2503 117.949 51.8003 117.604 51.0412Z" fill="#2A3042"/>
<path d="M128.607 50.6849V23.3865H93.0869C85.7478 23.3865 79.7233 29.3988 79.7233 36.7247V64.0239H86.5095V74.4595L96.8953 64.0239H115.244C122.653 64.0929 128.607 58.0789 128.607 50.6849ZM132 20.069V50.7547C132 59.9456 124.522 67.4795 115.313 67.4795H98.2798L83.116 82.5454V67.4104H76.3307V36.7247C76.3307 27.533 83.8086 20 93.0179 20H132V20.069Z" fill="#2A3042"/>
</svg>
