<svg width="151" height="151" viewBox="0 0 151 151" fill="none" xmlns="http://www.w3.org/2000/svg">
<g clip-path="url(#clip0_1404_246)">
<path fill-rule="evenodd" clip-rule="evenodd" d="M124.828 84.1548C130.482 108.738 115.316 133.321 90.9967 139.035C66.6771 144.749 42.3576 129.419 36.7043 104.837C31.051 80.2534 46.2166 55.6727 70.5361 49.9587C82.4712 47.1457 88.9321 62.2035 98.625 68.0997C108.675 74.2676 121.867 71.6368 124.828 84.1548Z" fill="#E9FF00"/>
<path fill-rule="evenodd" clip-rule="evenodd" d="M61.3034 37.8005L63.2208 39.7406C63.8599 40.3873 64.499 40.9414 65.0455 41.4955C66.4026 42.7114 67.772 43.9138 69.1534 45.1009C69.6103 45.4713 70.0673 45.8402 70.4316 46.118C71.6187 47.041 72.2579 47.504 72.2579 47.504C72.2579 47.504 92.3419 32.9001 92.3419 21.7165C92.3441 20.09 91.9848 18.4833 91.2902 17.0125C90.5955 15.5418 89.5827 14.2438 88.3251 13.2123C88.0519 13.0286 87.7786 12.7508 87.5039 12.5656C86.3312 11.7332 84.9917 11.1655 83.5781 10.9018C82.8464 10.7181 82.1162 10.7181 81.3875 10.7181C80.4752 10.7181 79.3791 10.9944 78.3757 11.4559C78.1024 11.5485 77.8292 11.7337 77.6455 11.8263C77.3722 12.0115 77.099 12.1041 76.9153 12.2893C76.642 12.473 76.4599 12.6567 76.1851 12.8434C75.9119 13.0286 75.7297 13.2123 75.4549 13.3975C73.6287 15.0613 72.3505 17.1866 72.3505 19.3134C72.3505 17.9274 71.804 16.6325 70.9827 15.4302L70.1599 14.322C69.9777 14.1368 69.7955 13.859 69.5223 13.6753C68.9727 13.1197 68.3352 12.6582 67.7871 12.2893C67.5139 12.1041 67.2406 12.0115 67.0554 11.8263C66.9553 11.7293 66.8284 11.6648 66.6911 11.6411C66.4178 11.55 66.1446 11.3648 65.8713 11.2722C65.504 11.087 65.047 10.9944 64.6827 10.9033C64.4094 10.8092 64.1362 10.8092 63.9525 10.7181C63.6792 10.7181 63.4955 10.6255 63.2223 10.6255C59.8446 10.6255 56.8312 12.1952 54.8228 14.5998C53.2195 16.5889 52.3495 19.0691 52.359 21.6239C52.359 22.3632 52.45 23.0099 52.5411 23.7492C52.7233 24.49 52.907 25.2293 53.1802 25.9671C53.3624 26.3375 53.4535 26.7079 53.6372 27.0768C54.0015 27.8161 54.3674 28.5569 54.8228 29.2947C55.6797 30.8399 56.6892 32.2954 57.8362 33.6394C58.8638 35.1284 60.0248 36.5206 61.305 37.799" fill="#E9FF00"/>
<path fill-rule="evenodd" clip-rule="evenodd" d="M68.1409 48.5576C67.7842 48.2124 67.4334 47.8612 67.0888 47.504C67.4942 47.8198 67.8175 48.2418 68.1409 48.5576ZM62.8792 44.3434C62.2143 43.9715 61.5509 43.6603 60.7752 43.2898C61.5494 43.6618 62.2143 43.9715 62.8792 44.3434ZM69.1929 49.6111C69.1929 49.6111 68.4187 49.2361 67.0888 48.5576C68.3063 49.2361 69.1929 49.6111 69.1929 49.6111ZM59.7231 41.1828C60.3881 41.9585 61.1623 42.6234 61.8272 43.2898L59.7231 41.1828Z" fill="#E9FF00"/>
<path d="M52.7018 32.1259C52.342 31.4883 51.9822 30.7597 51.624 30.1206C51.4418 29.7562 51.3522 29.483 51.1731 29.1186C50.9098 28.4759 50.7282 27.8027 50.6327 27.1148C50.5431 26.4772 50.4535 25.8396 50.4535 25.202C50.4535 22.7412 51.2627 20.5552 52.7003 18.8231C54.5007 16.546 57.2894 15.1797 60.3468 15.1797C60.5259 15.1797 60.7961 15.1797 60.9768 15.2708C61.2455 15.2708 61.4261 15.3619 61.6948 15.3619C62.0561 15.4529 62.4144 15.544 62.7757 15.7262C63.0459 15.8173 63.2251 15.9084 63.4953 16.0905C63.5848 16.1816 63.764 16.1816 63.8551 16.2727C64.1238 16.3638 64.3044 16.546 64.5746 16.7281C65.1135 17.0925 65.6525 17.5479 66.1929 18.0033C66.372 18.1855 66.5527 18.3676 66.7318 18.6409C67.002 18.9141 67.2722 19.2785 67.4514 19.6443C68.1725 20.7374 68.7114 22.0125 68.7114 23.1966C68.7114 21.2839 69.8803 19.28 71.5896 17.8227C71.7688 17.6405 72.039 17.4583 72.2181 17.2746C72.3988 17.0925 72.669 16.9103 72.8496 16.8192C73.1183 16.637 73.2975 16.546 73.5677 16.3638C73.8379 16.2727 74.0186 16.0905 74.2873 15.9994C75.1875 15.544 76.1757 15.2708 77.076 15.2708C77.7955 15.2708 78.424 15.3619 79.054 15.4529C80.314 15.7262 81.574 16.2727 82.5607 17.0014C82.8325 17.1835 83.1012 17.3657 83.2818 17.5479C85.5286 19.3711 86.8797 22.1947 86.8797 25.2931C86.8797 35.496 68.6218 48.7974 68.6218 48.7974C68.6218 48.7974 67.9918 48.342 66.9125 47.5222C66.5527 47.249 66.1929 46.9742 65.7435 46.6114C64.4714 45.5335 63.2114 44.439 61.9666 43.3308C61.4261 42.7843 60.8857 42.3289 60.2572 41.7824L58.5479 40.0518C57.3957 38.8721 56.3144 37.6251 55.3098 36.3173C54.4111 34.7674 53.4214 33.4011 52.7018 32.1259ZM56.3907 43.8773C61.1559 48.7048 65.8331 52.0749 66.0122 52.2571L68.6233 54.1714L71.2299 52.2586C71.409 52.0764 76.0877 48.7063 80.8529 43.8773C81.6636 43.0576 82.4727 42.1467 83.2818 41.327C97.5821 47.2474 107.746 61.4612 107.746 78.04C107.746 99.9048 90.2073 117.669 68.6218 117.669C47.0348 117.669 29.4965 99.9048 29.4965 78.04C29.4965 61.4612 39.6615 47.1564 53.9603 41.327C54.7709 42.2378 55.5816 43.0576 56.3907 43.8773ZM68.7099 122.316C92.7258 122.316 112.333 102.548 112.333 78.1326C112.333 60.0934 101.631 44.606 86.3407 37.7732C89.6668 33.2189 91.3762 29.0291 91.3762 25.202C91.3762 17.1835 84.9016 10.6255 76.9849 10.6255C74.1977 10.6255 71.2314 11.9007 68.7114 14.1778C66.1914 11.9007 63.1355 10.6255 60.3468 10.6255C52.4316 10.6255 45.9555 17.1835 45.9555 25.202C45.9555 29.0275 47.6663 33.2174 50.9924 37.7732C35.7024 44.6075 25 60.186 25 78.1326C25.0896 102.457 44.6074 122.318 68.7114 122.318" fill="#2A3042"/>
<path fill-rule="evenodd" clip-rule="evenodd" d="M39.0151 90.2286C37.713 86.4797 37.051 82.5384 37.0568 78.5698C37.0568 74.4437 37.7612 70.4982 39.0151 66.911C39.173 66.3721 39.4083 65.9228 39.5646 65.3854C39.8789 64.6673 39.5646 63.7717 38.8602 63.4119C38.2318 63.1432 37.4484 63.4119 37.2131 64.1299C36.9778 64.6673 36.8215 65.2047 36.5862 65.7436C35.1759 69.6906 34.47 73.9944 34.47 78.5698C34.47 83.0542 35.2533 87.4475 36.6651 91.3945C36.8215 91.9319 37.0568 92.4708 37.2921 93.0097C37.6063 93.7263 38.3107 94.0845 38.9377 93.7263C39.642 93.368 39.8789 92.4708 39.642 91.7528C39.4083 91.2154 39.2519 90.766 39.0151 90.2286ZM43.6148 88.1671C43.7909 88.7288 44.0581 89.2904 44.3253 89.8506C44.6805 90.5975 45.479 90.8799 46.1925 90.5975C46.3868 90.5101 46.5608 90.3833 46.7034 90.225C46.8461 90.0667 46.9542 89.8806 47.021 89.6783C47.0878 89.476 47.1118 89.262 47.0915 89.0499C47.0712 88.8379 47.007 88.6323 46.903 88.4464C46.6358 87.9788 46.4582 87.4187 46.2806 86.9511C45.3029 84.2368 44.6805 81.2431 44.6805 78.0613C44.6805 74.9735 45.2134 71.9799 46.2806 69.173C46.4582 68.6113 46.7254 68.1437 46.903 67.6761C47.2582 66.8336 46.903 65.8985 46.191 65.5235C45.4805 65.2427 44.5925 65.5235 44.3238 66.2719C44.0581 66.8336 43.8805 67.3953 43.6133 67.957C42.4565 71.0432 41.8357 74.5059 41.8357 77.9671C41.8357 81.7107 42.4581 85.0793 43.6133 88.1656L43.6148 88.1671ZM49.8905 86.7431C50.2063 87.4445 50.9198 87.7086 51.5528 87.4445C52.2633 87.0938 52.5806 86.2163 52.1844 85.4285C51.9475 84.9882 51.7897 84.463 51.6318 84.0258C51.0523 82.2715 50.7581 80.4356 50.7604 78.588C50.7604 76.6601 51.0777 74.9052 51.6318 73.1518C51.7897 72.6251 51.9475 72.1863 52.1844 71.7491C52.5016 70.9597 52.1844 70.0823 51.5513 69.7316C50.9198 69.469 50.2063 69.7316 49.889 70.433C49.6522 70.9597 49.4154 71.485 49.2575 72.0118C48.5156 74.1246 48.1408 76.3488 48.1493 78.588C48.1493 80.8682 48.544 83.0603 49.2575 85.1643C49.4139 85.6911 49.6522 86.2164 49.8905 86.7431ZM99.8275 91.7907C99.6795 92.148 99.6691 92.5474 99.7983 92.9119C99.9276 93.2764 100.187 93.58 100.527 93.7642C101.15 94.0329 101.93 93.7642 102.164 93.0477C102.398 92.5103 102.552 91.9698 102.786 91.4324C104.242 87.3139 104.98 82.976 104.968 78.6078C104.968 74.1219 104.189 69.7286 102.864 65.7831C102.69 65.2321 102.482 64.6927 102.241 64.1679C101.93 63.4513 101.229 63.0931 100.606 63.4513C99.905 63.8096 99.6712 64.7053 99.905 65.4233C100.139 65.9607 100.295 66.4101 100.451 66.9475C101.746 70.698 102.404 74.6387 102.398 78.6063C102.403 82.5739 101.745 86.5145 100.45 90.265C100.216 90.804 100.061 91.2533 99.8275 91.7907ZM93.1571 69.9153C94.1348 72.5355 94.7572 75.4259 94.7572 78.497C94.7572 81.48 94.2228 84.3704 93.1571 87.0801C92.978 87.6221 92.7123 88.073 92.5347 88.5253C92.1795 89.3375 92.5347 90.2408 93.2452 90.6021C93.9571 90.8738 94.8452 90.6021 95.1124 89.8795C95.3796 89.3375 95.5572 88.7971 95.8244 88.2551C96.9812 85.2721 97.602 81.9308 97.602 78.588C97.602 75.1557 96.9796 71.904 95.8244 68.9225C95.6468 68.3805 95.3796 67.8386 95.1124 67.2981C94.7572 66.574 93.9571 66.3038 93.2452 66.574C92.4467 66.9353 92.0914 67.8386 92.5347 68.6523C92.7123 68.9225 92.8899 69.4629 93.1571 69.9153ZM87.2518 85.4285C86.9361 86.2179 87.2518 87.0938 87.8864 87.4445C88.5179 87.7086 89.2314 87.4445 89.5487 86.7431C89.7855 86.2164 90.0223 85.6911 90.1802 85.1643C90.9225 83.0512 91.2975 80.8272 91.2884 78.588C91.2884 76.3079 90.8937 74.1158 90.1802 72.0118C90.0238 71.485 89.7855 70.9597 89.5471 70.433C89.2314 69.7316 88.5179 69.469 87.8849 69.7316C87.1744 70.0823 86.8571 70.9597 87.2533 71.7491C87.4886 72.1863 87.648 72.7131 87.8059 73.1503C88.36 74.8187 88.6773 76.6601 88.6773 78.588C88.6773 80.516 88.36 82.2709 87.8059 84.0258C87.648 84.463 87.4886 84.9897 87.2518 85.4285Z" fill="#2A3042"/>
<path fill-rule="evenodd" clip-rule="evenodd" d="M70.2451 84.3841C71.2877 84.3894 72.3082 84.083 73.1754 83.5041C74.0426 82.9252 74.717 82.1004 75.112 81.1354C75.3746 80.4948 75.5097 79.8086 75.5067 79.1163C75.5067 76.188 73.1689 73.8471 70.2466 73.8471C69.2043 73.8427 68.1844 74.1495 67.3176 74.7283C66.4508 75.307 65.7765 76.1314 65.3812 77.0958C65.1178 77.7362 64.9836 78.4224 64.9865 79.1148C64.8893 82.0417 67.3243 84.3825 70.2466 84.3825L70.2451 84.3841Z" fill="#2A3042"/>
</g>
<defs>
<clipPath id="clip0_1404_246">
<rect width="126" height="130.554" fill="white" transform="translate(12.5 10.375)"/>
</clipPath>
</defs>
</svg>
