<svg width="186" height="258" viewBox="0 0 186 258" fill="none" xmlns="http://www.w3.org/2000/svg">
<path fill-rule="evenodd" clip-rule="evenodd" d="M118.814 3.66386L118.291 4.18727C120.122 2.35535 122.216 1.04683 124.571 0.523422C122.478 0.785126 120.646 1.83194 118.814 3.66386ZM129.282 1.52588e-05C130.067 1.52588e-05 130.852 0.261719 131.637 0.523422C130.852 0.261719 130.067 0.261719 129.282 1.52588e-05ZM128.235 1.52588e-05H127.974H129.02H128.235ZM172.463 73.0153C176.127 73.0153 179.267 71.9684 181.884 69.3514C184.501 66.7344 185.81 63.8556 185.81 60.1918C185.81 56.5279 184.763 53.3875 182.146 50.7705L165.135 32.9746L137.395 3.92557C140.012 6.2809 140.797 9.68304 140.797 13.3469V45.5364L146.031 51.0322L163.042 68.828C165.659 71.7067 168.799 73.0153 172.463 73.0153Z" fill="#E9FF00"/>
<path fill-rule="evenodd" clip-rule="evenodd" d="M137.394 3.92555C135.824 2.35533 133.992 1.04681 131.637 0.523407H131.375C130.59 0.261703 129.805 0.261703 129.02 0H124.571C122.216 0.523407 120.122 1.83192 118.29 3.66385C118.028 3.92555 118.028 4.18725 117.767 4.18725C115.673 6.54258 114.626 9.42132 114.626 12.8235V131.899C101.803 121.692 87.1472 116.458 70.3982 116.458C51.0321 116.458 34.2831 123.262 20.6746 137.133C6.80427 151.003 0 167.49 0 186.856C0 206.222 6.80427 222.971 20.6746 236.58C34.5448 250.45 51.0321 257.254 70.3982 257.254C89.7642 257.254 106.252 250.45 120.122 236.58C133.992 222.971 140.796 206.484 140.796 186.856V13.6086C141.058 9.68302 140.011 6.54258 137.394 3.92555Z" fill="#E9FF00"/>
</svg>
