<svg width="234" height="52" viewBox="0 0 234 52" fill="none" xmlns="http://www.w3.org/2000/svg">
<path d="M118.8 0.799988V26L126.612 2.05999L118.8 26L133.668 5.58799L118.8 26L139.212 11.132L118.8 26L142.74 18.188L118.8 26H144H118.8L142.74 33.812L118.8 26L139.212 40.868L118.8 26L133.668 46.412L118.8 26L126.612 49.94L118.8 26V51.2V26L110.988 49.94L118.8 26L103.932 46.412L118.8 26L98.3881 40.868L118.8 26L94.8601 33.812L118.8 26H93.6001H118.8L94.8601 18.188L118.8 26L98.3881 11.132L118.8 26L103.932 5.58799L118.8 26L110.988 2.05999L118.8 26V0.799988Z" stroke="#E9FF00" stroke-width="3.168" stroke-miterlimit="10" stroke-linecap="square"/>
<path d="M3.03744 35.5641H0.672V16.7481H5.40288L12.2304 35.5641L18.6278 16.7481H23.305V35.5641H20.9395V16.9094H20.9126L14.6227 35.5641H9.83808L3.06432 16.8019H3.03744V35.5641ZM41.1963 16.7481V19.0329H28.1326V24.9465H41.1963V27.1507H28.1326V33.2525H41.1963V35.5641H25.7134V16.7481H41.1963ZM61.732 16.7481V35.5641H56.7323L46.0072 16.7481H48.5339L59.3397 35.5641V16.7481H61.732ZM43.6149 35.5641V16.7481H46.0072V35.5641H43.6149ZM84.3282 26.1561C84.3282 29.2205 83.4591 31.559 81.7209 33.1718C79.9826 34.7667 77.4828 35.5641 74.2213 35.5641C70.9241 35.5641 68.4153 34.7667 66.6949 33.1718C64.9925 31.559 64.1413 29.2205 64.1413 26.1561C64.1413 23.056 65.0194 20.7174 66.7756 19.1405C68.5317 17.5456 71.0226 16.7481 74.2482 16.7481C77.4738 16.7481 79.9557 17.5277 81.694 19.0867C83.4501 20.6278 84.3282 22.9843 84.3282 26.1561ZM81.8821 26.0755C81.8821 23.7817 81.246 22.0435 79.9737 20.8608C78.7013 19.6601 76.8108 19.0598 74.302 19.0598C71.7394 19.0598 69.813 19.6691 68.5228 20.8877C67.2325 22.1062 66.5874 23.8624 66.5874 26.1561C66.5874 28.5037 67.2325 30.2777 68.5228 31.4784C69.8309 32.6611 71.7573 33.2525 74.302 33.2525C76.8645 33.2525 78.7641 32.6163 80.0005 31.344C81.2549 30.0717 81.8821 28.3155 81.8821 26.0755ZM87.0103 22.2585C87.0103 21.0937 87.2612 20.1529 87.763 19.4361C88.2647 18.7193 88.9099 18.1638 89.6983 17.7696C90.5047 17.3574 91.4007 17.0886 92.3863 16.9632C93.3719 16.8198 94.3486 16.7481 95.3163 16.7481C96.3377 16.7481 97.3412 16.8109 98.3268 16.9363C99.3303 17.0438 100.226 17.2947 101.015 17.6889C101.803 18.0832 102.439 18.6477 102.923 19.3824C103.407 20.1171 103.649 21.1027 103.649 22.3392H101.284C101.284 21.5507 101.113 20.9325 100.773 20.4845C100.432 20.0185 99.9844 19.6781 99.4289 19.463C98.8734 19.2301 98.2372 19.0867 97.5204 19.0329C96.8036 18.9613 96.0689 18.9254 95.3163 18.9254C94.6174 18.9254 93.9095 18.9523 93.1927 19.0061C92.4939 19.0598 91.8577 19.2032 91.2843 19.4361C90.7287 19.6512 90.2718 19.9827 89.9134 20.4307C89.555 20.8608 89.3758 21.4521 89.3758 22.2048C89.3758 22.9753 89.6356 23.5936 90.1553 24.0595C90.6929 24.5254 91.5172 24.8121 92.6283 24.9197L98.9719 25.4841C100.567 25.6275 101.794 26.0576 102.655 26.7744C103.515 27.4733 103.945 28.5485 103.945 30C103.945 31.2723 103.676 32.2758 103.138 33.0105C102.601 33.7453 101.902 34.3008 101.042 34.6771C100.182 35.0534 99.2228 35.2953 98.1655 35.4029C97.1083 35.5104 96.0689 35.5641 95.0475 35.5641C94.0619 35.5641 93.0763 35.5014 92.0907 35.376C91.1051 35.2326 90.2091 34.9638 89.4027 34.5696C88.6142 34.1574 87.9691 33.5929 87.4673 32.8761C86.9835 32.1414 86.7415 31.1737 86.7415 29.9731H89.107C89.107 30.7078 89.2772 31.2992 89.6177 31.7472C89.9582 32.1952 90.4062 32.5446 90.9617 32.7955C91.5351 33.0285 92.1803 33.1897 92.8971 33.2793C93.6139 33.351 94.3396 33.3869 95.0743 33.3869C95.8807 33.3869 96.6692 33.36 97.4398 33.3062C98.2283 33.2525 98.9361 33.1181 99.5633 32.903C100.191 32.688 100.692 32.3654 101.069 31.9353C101.463 31.5053 101.66 30.9139 101.66 30.1613C101.66 29.7133 101.579 29.3459 101.418 29.0592C101.275 28.7545 101.06 28.5126 100.773 28.3334C100.504 28.1542 100.164 28.0198 99.7515 27.9302C99.3572 27.8406 98.9182 27.7689 98.4343 27.7152L92.0638 27.1238C90.4331 26.9805 89.1787 26.5056 88.3006 25.6992C87.4404 24.8928 87.0103 23.7459 87.0103 22.2585Z" fill="white"/>
<path d="M117.168 31.065V28.1896C117.048 28.8785 116.838 29.4277 116.539 29.837C116.239 30.2364 115.91 30.5459 115.55 30.7655C115.191 30.9752 114.831 31.11 114.472 31.1699C114.122 31.2398 113.833 31.2747 113.603 31.2747C112.984 31.2747 112.435 31.1799 111.956 30.9902C111.487 30.8005 111.092 30.5359 110.773 30.1964C110.453 29.847 110.214 29.4327 110.054 28.9534C109.894 28.4742 109.814 27.94 109.814 27.351C109.814 26.8019 109.894 26.2977 110.054 25.8384C110.214 25.3692 110.443 24.9648 110.743 24.6254C111.052 24.2759 111.432 24.0064 111.881 23.8167C112.34 23.617 112.859 23.5171 113.439 23.5171C113.588 23.5171 113.768 23.5321 113.978 23.5621C114.197 23.582 114.432 23.632 114.682 23.7118C114.931 23.7817 115.186 23.8865 115.445 24.0263C115.705 24.1661 115.95 24.3508 116.179 24.5804C116.409 24.8001 116.608 25.0746 116.778 25.4041C116.958 25.7336 117.088 26.128 117.168 26.5872V20.5968H118.5V31.065H117.168ZM117.168 27.351C117.168 27.0515 117.113 26.747 117.003 26.4375C116.893 26.128 116.708 25.8484 116.449 25.5988C116.199 25.3492 115.865 25.1495 115.445 24.9998C115.036 24.84 114.522 24.7601 113.903 24.7601C113.503 24.7601 113.134 24.83 112.795 24.9698C112.465 25.1096 112.176 25.2993 111.926 25.5389C111.686 25.7785 111.497 26.0581 111.357 26.3776C111.227 26.6871 111.162 27.0115 111.162 27.351C111.162 27.7004 111.227 28.0349 111.357 28.3544C111.497 28.6739 111.691 28.9584 111.941 29.208C112.191 29.4576 112.485 29.6573 112.825 29.8071C113.174 29.9468 113.563 30.0167 113.993 30.0167C114.592 30.0167 115.091 29.9368 115.49 29.7771C115.9 29.6174 116.229 29.4127 116.479 29.1631C116.728 28.9035 116.903 28.614 117.003 28.2945C117.113 27.975 117.168 27.6605 117.168 27.351ZM119.247 27.321C119.247 26.0231 119.622 25.0696 120.371 24.4606C121.129 23.8416 122.188 23.5321 123.546 23.5321C124.215 23.5321 124.809 23.607 125.328 23.7568C125.857 23.8965 126.301 24.1212 126.661 24.4307C127.02 24.7302 127.295 25.1196 127.484 25.5988C127.674 26.078 127.769 26.6521 127.769 27.321C127.769 28.579 127.394 29.5225 126.646 30.1515C125.897 30.7705 124.863 31.08 123.546 31.08C122.917 31.08 122.338 31.0051 121.808 30.8554C121.289 30.6956 120.84 30.461 120.461 30.1515C120.081 29.832 119.782 29.4376 119.562 28.9684C119.352 28.4992 119.247 27.95 119.247 27.321ZM120.565 27.3061C120.565 27.7853 120.63 28.1946 120.76 28.5341C120.9 28.8636 121.095 29.1281 121.344 29.3278C121.604 29.5275 121.918 29.6723 122.288 29.7621C122.657 29.852 123.081 29.8969 123.561 29.8969C124.469 29.8969 125.178 29.6773 125.687 29.238C126.196 28.7887 126.451 28.1447 126.451 27.3061C126.451 26.4275 126.196 25.7785 125.687 25.3592C125.178 24.9399 124.469 24.7302 123.561 24.7302C122.632 24.7302 121.898 24.9548 121.359 25.4041C120.83 25.8434 120.565 26.4774 120.565 27.3061Z" fill="black"/>
<path d="M133.277 17.4361L133.274 17.4615C133.66 17.7911 134.079 18.2474 134.478 18.8305C134.874 19.439 135.054 19.946 134.997 20.3263L132.796 35.0051H133.206L135.392 20.4277L142.924 30.0361L153.295 18.146L150.766 35.0051H153.202L155.837 17.4361H153.35L144.361 27.8051L136.584 17.4361H133.277Z" fill="white"/>
<path d="M159.126 17.4361L156.491 35.0051H166.463L170.636 28.7178C169.697 29.6812 168.832 30.4924 168.041 31.1516C167.221 31.8361 166.331 32.4699 165.346 33.053C164.361 33.6361 163.348 34.0671 162.255 34.3459C161.163 34.6248 160.041 34.7516 158.844 34.7009L160.084 26.4361H167.877L167.934 26.0558H160.141L161.384 17.7657C162.794 17.7657 164.086 17.8671 165.205 18.0953C166.325 18.3235 167.232 18.6023 167.926 18.9319C168.594 19.2615 169.221 19.6925 169.782 20.2249C170.344 20.7573 170.762 21.2136 171.035 21.6192C171.303 22.0502 171.59 22.5319 171.942 23.0896C172.269 23.6474 172.515 24.053 172.712 24.2812L170.226 17.4361H159.126Z" fill="white"/>
<path d="M180.142 35.36C181.94 35.3347 183.466 34.9037 184.737 34.1178C186.009 33.3319 186.752 32.1403 186.965 30.5431C187.119 29.3516 186.831 28.3629 186.107 27.5516C185.357 26.7403 184.401 26.1065 183.261 25.6756C182.12 25.2446 180.955 24.8136 179.81 24.408C178.666 24.0023 177.695 23.4699 176.919 22.8361C176.142 22.2023 175.795 21.4418 175.91 20.5037C176.04 19.4643 176.696 18.6784 177.878 18.146C179.061 17.6136 180.395 17.4361 181.932 17.6136C183.469 17.7911 184.785 18.2474 185.872 19.0333C186.638 19.5657 187.213 20.1742 187.576 20.8333C187.913 21.4925 188.062 22.3798 187.993 23.5206H188.121L188.289 17.6136L187.389 17.4615C186.786 17.3854 185.929 17.284 184.838 17.208C183.722 17.1319 182.645 17.1319 181.616 17.1573C180.561 17.1826 179.59 17.3347 178.757 17.5883C177.898 17.8418 177.212 18.146 176.727 18.4756C176.212 18.8305 175.767 19.2361 175.42 19.6671C175.073 20.0981 174.807 20.5037 174.677 20.8587C174.547 21.2136 174.447 21.5432 174.397 21.8728C174.301 22.684 174.421 23.4192 174.788 24.053C175.129 24.6868 175.638 25.2192 176.317 25.6502C176.97 26.0812 177.708 26.4615 178.526 26.8164C179.345 27.1713 180.167 27.5009 180.989 27.8305C181.786 28.1601 182.531 28.4896 183.195 28.8446C183.86 29.1995 184.385 29.6305 184.749 30.1122C185.108 30.6192 185.255 31.1769 185.16 31.8107C185.111 32.1403 184.985 32.4699 184.807 32.7995C184.629 33.129 184.345 33.484 183.988 33.8136C183.627 34.1685 183.124 34.4474 182.479 34.6502C181.803 34.8783 181.045 34.9797 180.195 35.0051C179.448 35.0304 178.741 34.9544 178.094 34.8276C177.421 34.7009 176.792 34.4474 176.183 34.0671C175.569 33.7121 175.048 33.2558 174.649 32.6727C174.22 32.115 173.894 31.3798 173.672 30.4671C173.446 29.5798 173.371 28.5403 173.422 27.3488H173.268L173.069 34.1431C173.142 34.1685 173.336 34.2445 173.702 34.3713C174.067 34.4981 174.287 34.5741 174.385 34.5995C174.484 34.6248 174.703 34.7009 175.047 34.8023C175.361 34.929 175.636 34.9797 175.811 35.0051C175.987 35.0304 176.236 35.0812 176.609 35.1572C176.982 35.2333 177.311 35.2586 177.641 35.284C177.945 35.3093 178.329 35.3093 178.761 35.3347C179.193 35.36 179.655 35.36 180.142 35.36Z" fill="white"/>
<path d="M189.731 17.4361L189.727 17.4615C190.113 17.7911 190.532 18.2474 190.932 18.8305C191.328 19.439 191.508 19.946 191.451 20.3263L189.249 35.0051H189.659L191.846 20.4277L199.377 30.0361L209.748 18.146L207.22 35.0051H209.655L212.29 17.4361H209.804L200.814 27.8051L193.038 17.4361H189.731Z" fill="white"/>
<path d="M232.303 25.4474C232.423 22.9375 231.603 20.884 229.851 19.2361C228.069 17.6136 225.894 16.9038 223.278 17.0812C220.659 17.284 218.397 18.3488 216.445 20.2502C214.494 22.1516 213.471 24.3572 213.351 26.8671C213.256 29.3769 214.072 31.4558 215.854 33.0783C217.61 34.7009 219.811 35.4107 222.427 35.2333C225.047 35.0304 227.308 33.9657 229.26 32.0643C231.186 30.1629 232.209 27.9572 232.303 25.4474ZM230.611 25.4474C229.983 27.7544 228.628 29.7826 226.542 31.5572C224.452 33.3572 222.359 34.3206 220.26 34.4727C218.468 34.6248 217.011 33.915 215.939 32.3431C214.863 30.7967 214.614 28.8699 215.213 26.5882C215.815 24.2812 217.115 22.2784 219.095 20.5291C221.071 18.8052 223.083 17.8671 225.106 17.715C226.949 17.5629 228.461 18.2474 229.669 19.7685C230.872 21.315 231.18 23.1911 230.611 25.4474Z" fill="white"/>
</svg>
