<svg width="84" height="19" viewBox="0 0 84 19" fill="none" xmlns="http://www.w3.org/2000/svg">
<path d="M9 0.5L11.0206 6.71885H17.5595L12.2694 10.5623L14.2901 16.7812L9 12.9377L3.70993 16.7812L5.73056 10.5623L0.440492 6.71885H6.97937L9 0.5Z" fill="#E9FF00"/>
<path d="M31 0.5L33.0206 6.71885H39.5595L34.2694 10.5623L36.2901 16.7812L31 12.9377L25.7099 16.7812L27.7306 10.5623L22.4405 6.71885H28.9794L31 0.5Z" fill="#E9FF00"/>
<path d="M53 0.5L55.0206 6.71885H61.5595L56.2694 10.5623L58.2901 16.7812L53 12.9377L47.7099 16.7812L49.7306 10.5623L44.4405 6.71885H50.9794L53 0.5Z" fill="#E9FF00"/>
<path d="M75 0.5L77.0206 6.71885H83.5595L78.2694 10.5623L80.2901 16.7812L75 12.9377L69.7099 16.7812L71.7306 10.5623L66.4405 6.71885H72.9794L75 0.5Z" fill="#E9FF00"/>
</svg>
