<svg width="48" height="48" viewBox="0 0 48 48" fill="currentColor" xmlns="http://www.w3.org/2000/svg">
<g clip-path="url(#clip0_1_161)">
<path d="M24 0C19.2533 0 14.6131 1.40758 10.6663 4.04473C6.71955 6.68188 3.64341 10.4302 1.8269 14.8156C0.0103987 19.201 -0.464881 24.0266 0.461164 28.6822C1.38721 33.3377 3.67299 37.6141 7.02945 40.9706C10.3859 44.327 14.6623 46.6128 19.3178 47.5388C23.9734 48.4649 28.799 47.9896 33.1844 46.1731C37.5698 44.3566 41.3181 41.2805 43.9553 37.3337C46.5924 33.3869 48 28.7468 48 24C47.9931 17.6369 45.4623 11.5365 40.9629 7.03711C36.4635 2.53774 30.3631 0.00694821 24 0V0ZM24 45.75C19.6983 45.75 15.4931 44.4744 11.9164 42.0845C8.33959 39.6945 5.55184 36.2977 3.90563 32.3234C2.25943 28.3491 1.8287 23.9759 2.66793 19.7568C3.50716 15.5377 5.57865 11.6622 8.62044 8.62043C11.6622 5.57864 15.5377 3.50715 19.7568 2.66792C23.9759 1.82869 28.3491 2.25941 32.3234 3.90562C36.2977 5.55183 39.6946 8.33958 42.0845 11.9163C44.4744 15.4931 45.75 19.6983 45.75 24C45.7431 29.7663 43.4493 35.2945 39.3719 39.3719C35.2945 43.4493 29.7663 45.7431 24 45.75Z" fill="white"/>
<path d="M21.795 13.455C21.5817 13.2563 21.2997 13.1481 21.0082 13.1532C20.7168 13.1584 20.4387 13.2764 20.2326 13.4826C20.0264 13.6887 19.9084 13.9668 19.9032 14.2582C19.8981 14.5497 20.0063 14.8317 20.205 15.045L29.16 24L20.205 32.955C20.0945 33.058 20.0058 33.1822 19.9443 33.3202C19.8828 33.4582 19.8498 33.6072 19.8471 33.7582C19.8444 33.9093 19.8722 34.0593 19.9288 34.1994C19.9854 34.3395 20.0696 34.4667 20.1764 34.5736C20.2833 34.6804 20.4105 34.7646 20.5506 34.8212C20.6907 34.8778 20.8407 34.9056 20.9918 34.9029C21.1428 34.9002 21.2918 34.8672 21.4298 34.8057C21.5678 34.7442 21.692 34.6555 21.795 34.545L31.545 24.795C31.7557 24.5841 31.874 24.2981 31.874 24C31.874 23.7019 31.7557 23.4159 31.545 23.205L21.795 13.455Z" fill="white"/>
</g>
<defs>
<clipPath id="clip0_1_161">
<rect width="48" height="48" fill="white"/>
</clipPath>
</defs>
</svg>
