<svg width="48" height="48" viewBox="0 0 48 48" fill="currentColor" xmlns="http://www.w3.org/2000/svg">
<g clip-path="url(#clip0_1_158)">
<path d="M24 0C19.2533 0 14.6131 1.40758 10.6663 4.04473C6.71955 6.68188 3.64341 10.4302 1.8269 14.8156C0.0103987 19.201 -0.464881 24.0266 0.461164 28.6822C1.38721 33.3377 3.67299 37.6141 7.02945 40.9706C10.3859 44.327 14.6623 46.6128 19.3178 47.5388C23.9734 48.4649 28.799 47.9896 33.1844 46.1731C37.5698 44.3566 41.3181 41.2805 43.9553 37.3337C46.5924 33.3869 48 28.7468 48 24C47.9931 17.6369 45.4623 11.5365 40.9629 7.03711C36.4635 2.53774 30.3631 0.00694821 24 0V0ZM24 45.75C19.6983 45.75 15.4931 44.4744 11.9164 42.0845C8.33959 39.6945 5.55184 36.2977 3.90563 32.3234C2.25943 28.3491 1.8287 23.9759 2.66793 19.7568C3.50716 15.5377 5.57865 11.6622 8.62044 8.62043C11.6622 5.57864 15.5377 3.50715 19.7568 2.66792C23.9759 1.82869 28.3491 2.25941 32.3234 3.90562C36.2977 5.55183 39.6946 8.33958 42.0845 11.9163C44.4744 15.4931 45.75 19.6983 45.75 24C45.7431 29.7663 43.4493 35.2945 39.3719 39.3719C35.2945 43.4493 29.7663 45.7431 24 45.75Z" fill="white"/>
<path d="M27.795 13.455C27.584 13.2443 27.2981 13.126 27 13.126C26.7019 13.126 26.4159 13.2443 26.205 13.455L16.455 23.205C16.2443 23.4159 16.126 23.7019 16.126 24C16.126 24.2981 16.2443 24.5841 16.455 24.795L26.205 34.545C26.4182 34.7437 26.7003 34.8519 26.9918 34.8468C27.2832 34.8416 27.5613 34.7236 27.7674 34.5174C27.9735 34.3113 28.0916 34.0332 28.0967 33.7418C28.1019 33.4503 27.9937 33.1683 27.795 32.955L18.84 24L27.795 15.045C28.0057 14.8341 28.124 14.5481 28.124 14.25C28.124 13.9519 28.0057 13.6659 27.795 13.455V13.455Z" fill="white"/>
</g>
<defs>
<clipPath id="clip0_1_158">
<rect width="48" height="48" fill="white"/>
</clipPath>
</defs>
</svg>
