<svg width="234" height="33" viewBox="0 0 234 33" fill="none" xmlns="http://www.w3.org/2000/svg">
<path d="M3.03744 24.564H0.672V5.74796H5.40288L12.2304 24.564L18.6278 5.74796H23.305V24.564H20.9395V5.90925H20.9126L14.6227 24.564H9.83808L3.06432 5.80173H3.03744V24.564ZM41.1963 5.74796V8.03277H28.1326V13.9464H41.1963V16.1505H28.1326V22.2523H41.1963V24.564H25.7134V5.74796H41.1963ZM61.732 5.74796V24.564H56.7323L46.0072 5.74796H48.5339L59.3397 24.564V5.74796H61.732ZM43.6149 24.564V5.74796H46.0072V24.564H43.6149ZM84.3282 15.156C84.3282 18.2203 83.4591 20.5588 81.7209 22.1716C79.9826 23.7665 77.4828 24.564 74.2213 24.564C70.9241 24.564 68.4153 23.7665 66.6949 22.1716C64.9925 20.5588 64.1413 18.2203 64.1413 15.156C64.1413 12.0558 65.0194 9.71725 66.7756 8.14029C68.5317 6.5454 71.0226 5.74796 74.2482 5.74796C77.4738 5.74796 79.9557 6.52748 81.694 8.08652C83.4501 9.62764 84.3282 11.9841 84.3282 15.156ZM81.8821 15.0753C81.8821 12.7816 81.246 11.0433 79.9737 9.8606C78.7013 8.65996 76.8108 8.05964 74.302 8.05964C71.7394 8.05964 69.813 8.66892 68.5228 9.88749C67.2325 11.106 66.5874 12.8622 66.5874 15.156C66.5874 17.5035 67.2325 19.2776 68.5228 20.4782C69.8309 21.6609 71.7573 22.2523 74.302 22.2523C76.8645 22.2523 78.7641 21.6161 80.0005 20.3438C81.2549 19.0715 81.8821 17.3153 81.8821 15.0753ZM87.0103 11.2584C87.0103 10.0936 87.2612 9.15277 87.763 8.43596C88.2647 7.71916 88.9099 7.16364 89.6983 6.7694C90.5047 6.35724 91.4007 6.08844 92.3863 5.963C93.3719 5.81964 94.3486 5.74796 95.3163 5.74796C96.3377 5.74796 97.3412 5.81068 98.3268 5.93612C99.3303 6.04364 100.226 6.29452 101.015 6.68876C101.803 7.08301 102.439 7.64748 102.923 8.3822C103.407 9.11692 103.649 10.1025 103.649 11.339H101.284C101.284 10.5505 101.113 9.93228 100.773 9.48428C100.432 9.01836 99.9844 8.67788 99.4289 8.46284C98.8734 8.22988 98.2372 8.08652 97.5204 8.03277C96.8036 7.96108 96.0689 7.92524 95.3163 7.92524C94.6174 7.92524 93.9095 7.95212 93.1927 8.00588C92.4939 8.05964 91.8577 8.203 91.2843 8.43596C90.7287 8.65101 90.2718 8.98253 89.9134 9.43052C89.555 9.8606 89.3758 10.452 89.3758 11.2046C89.3758 11.9752 89.6356 12.5934 90.1553 13.0593C90.6929 13.5252 91.5172 13.812 92.6283 13.9195L98.9719 14.484C100.567 14.6273 101.794 15.0574 102.655 15.7742C103.515 16.4731 103.945 17.5483 103.945 18.9998C103.945 20.2721 103.676 21.2756 103.138 22.0104C102.601 22.7451 101.902 23.3006 101.042 23.6769C100.182 24.0532 99.2228 24.2952 98.1655 24.4027C97.1083 24.5102 96.0689 24.564 95.0475 24.564C94.0619 24.564 93.0763 24.5012 92.0907 24.3758C91.1051 24.2324 90.2091 23.9636 89.4027 23.5694C88.6142 23.1572 87.9691 22.5928 87.4673 21.876C86.9835 21.1412 86.7415 20.1736 86.7415 18.9729H89.107C89.107 19.7076 89.2772 20.299 89.6177 20.747C89.9582 21.195 90.4062 21.5444 90.9617 21.7953C91.5351 22.0283 92.1803 22.1896 92.8971 22.2792C93.6139 22.3508 94.3396 22.3867 95.0743 22.3867C95.8807 22.3867 96.6692 22.3598 97.4398 22.306C98.2283 22.2523 98.9361 22.1179 99.5633 21.9028C100.191 21.6878 100.692 21.3652 101.069 20.9352C101.463 20.5051 101.66 19.9137 101.66 19.1611C101.66 18.7131 101.579 18.3457 101.418 18.059C101.275 17.7544 101.06 17.5124 100.773 17.3332C100.504 17.154 100.164 17.0196 99.7515 16.93C99.3572 16.8404 98.9182 16.7688 98.4343 16.715L92.0638 16.1236C90.4331 15.9803 89.1787 15.5054 88.3006 14.699C87.4404 13.8926 87.0103 12.7457 87.0103 11.2584Z" fill="white"/>
<path d="M117.168 20.0651V17.1897C117.048 17.8786 116.838 18.4277 116.539 18.8371C116.239 19.2364 115.91 19.5459 115.55 19.7656C115.191 19.9752 114.831 20.11 114.472 20.1699C114.122 20.2398 113.833 20.2748 113.603 20.2748C112.984 20.2748 112.435 20.1799 111.956 19.9902C111.487 19.8005 111.092 19.536 110.773 19.1965C110.453 18.8471 110.214 18.4327 110.054 17.9535C109.894 17.4743 109.814 16.9401 109.814 16.3511C109.814 15.8019 109.894 15.2977 110.054 14.8385C110.214 14.3692 110.443 13.9649 110.743 13.6254C111.052 13.276 111.432 13.0064 111.881 12.8167C112.34 12.617 112.859 12.5172 113.439 12.5172C113.588 12.5172 113.768 12.5322 113.978 12.5621C114.197 12.5821 114.432 12.632 114.682 12.7119C114.931 12.7818 115.186 12.8866 115.445 13.0264C115.705 13.1662 115.95 13.3509 116.179 13.5805C116.409 13.8001 116.608 14.0747 116.778 14.4042C116.958 14.7336 117.088 15.128 117.168 15.5873V9.59688H118.5V20.0651H117.168ZM117.168 16.3511C117.168 16.0515 117.113 15.747 117.003 15.4375C116.893 15.128 116.708 14.8485 116.449 14.5989C116.199 14.3493 115.865 14.1496 115.445 13.9998C115.036 13.8401 114.522 13.7602 113.903 13.7602C113.503 13.7602 113.134 13.8301 112.795 13.9699C112.465 14.1096 112.176 14.2993 111.926 14.539C111.686 14.7786 111.497 15.0581 111.357 15.3776C111.227 15.6871 111.162 16.0116 111.162 16.3511C111.162 16.7005 111.227 17.035 111.357 17.3544C111.497 17.6739 111.691 17.9585 111.941 18.2081C112.191 18.4577 112.485 18.6574 112.825 18.8071C113.174 18.9469 113.563 19.0168 113.993 19.0168C114.592 19.0168 115.091 18.9369 115.49 18.7772C115.9 18.6174 116.229 18.4128 116.479 18.1632C116.728 17.9036 116.903 17.614 117.003 17.2945C117.113 16.9751 117.168 16.6606 117.168 16.3511ZM119.247 16.3211C119.247 15.0232 119.622 14.0697 120.371 13.4607C121.129 12.8417 122.188 12.5322 123.546 12.5322C124.215 12.5322 124.809 12.6071 125.328 12.7568C125.857 12.8966 126.301 13.1212 126.661 13.4307C127.02 13.7303 127.295 14.1196 127.484 14.5989C127.674 15.0781 127.769 15.6522 127.769 16.3211C127.769 17.5791 127.394 18.5226 126.646 19.1516C125.897 19.7706 124.863 20.0801 123.546 20.0801C122.917 20.0801 122.338 20.0052 121.808 19.8554C121.289 19.6957 120.84 19.4611 120.461 19.1516C120.081 18.8321 119.782 18.4377 119.562 17.9685C119.352 17.4992 119.247 16.9501 119.247 16.3211ZM120.565 16.3061C120.565 16.7854 120.63 17.1947 120.76 17.5342C120.9 17.8636 121.095 18.1282 121.344 18.3279C121.604 18.5276 121.918 18.6723 122.288 18.7622C122.657 18.852 123.081 18.897 123.561 18.897C124.469 18.897 125.178 18.6773 125.687 18.238C126.196 17.7888 126.451 17.1448 126.451 16.3061C126.451 15.4275 126.196 14.7786 125.687 14.3592C125.178 13.9399 124.469 13.7303 123.561 13.7303C122.632 13.7303 121.898 13.9549 121.359 14.4042C120.83 14.8435 120.565 15.4775 120.565 16.3061Z" fill="black"/>
<path d="M133.277 6.43621L133.274 6.46156C133.66 6.79114 134.079 7.24747 134.478 7.83057C134.874 8.43902 135.054 8.94606 134.997 9.32634L132.796 24.0052H133.206L135.392 9.42775L142.924 19.0362L153.295 7.14607L150.766 24.0052H153.202L155.837 6.43621H153.35L144.361 16.8052L136.584 6.43621H133.277Z" fill="white"/>
<path d="M159.126 6.43621L156.491 24.0052H166.463L170.636 17.7179C169.697 18.6812 168.832 19.4925 168.041 20.1517C167.221 20.8362 166.331 21.47 165.346 22.0531C164.361 22.6361 163.348 23.0671 162.255 23.346C161.163 23.6249 160.041 23.7516 158.844 23.7009L160.084 15.4362H167.877L167.934 15.0559H160.141L161.384 6.76579C162.794 6.76579 164.086 6.86719 165.205 7.09536C166.325 7.32353 167.232 7.6024 167.926 7.93198C168.594 8.26155 169.221 8.69254 169.782 9.22493C170.344 9.75732 170.762 10.2137 171.035 10.6193C171.303 11.0503 171.59 11.532 171.942 12.0897C172.269 12.6475 172.515 13.0531 172.712 13.2813L170.226 6.43621H159.126Z" fill="white"/>
<path d="M180.142 24.3601C181.94 24.3347 183.466 23.9037 184.737 23.1178C186.009 22.3319 186.752 21.1404 186.965 19.5432C187.119 18.3517 186.831 17.3629 186.107 16.5517C185.357 15.7404 184.401 15.1066 183.261 14.6756C182.12 14.2446 180.955 13.8136 179.81 13.408C178.666 13.0024 177.695 12.47 176.919 11.8362C176.142 11.2024 175.795 10.4418 175.91 9.5038C176.04 8.46437 176.696 7.67846 177.878 7.14607C179.061 6.61367 180.395 6.43621 181.932 6.61367C183.469 6.79114 184.785 7.24747 185.872 8.03339C186.638 8.56578 187.213 9.17423 187.576 9.83338C187.913 10.4925 188.062 11.3799 187.993 12.5207H188.121L188.289 6.61367L187.389 6.46156C186.786 6.38551 185.929 6.2841 184.838 6.20804C183.722 6.13199 182.645 6.13199 181.616 6.15734C180.561 6.18269 179.59 6.3348 178.757 6.58832C177.898 6.84184 177.212 7.14607 176.727 7.47564C176.212 7.83057 175.767 8.2362 175.42 8.66719C175.073 9.09817 174.807 9.5038 174.677 9.85873C174.547 10.2137 174.447 10.5432 174.397 10.8728C174.301 11.6841 174.421 12.4193 174.788 13.0531C175.129 13.6869 175.638 14.2193 176.317 14.6503C176.97 15.0812 177.708 15.4615 178.526 15.8165C179.345 16.1714 180.167 16.501 180.989 16.8305C181.786 17.1601 182.531 17.4897 183.195 17.8446C183.86 18.1995 184.385 18.6305 184.749 19.1122C185.108 19.6193 185.255 20.177 185.16 20.8108C185.111 21.1404 184.985 21.47 184.807 21.7995C184.629 22.1291 184.345 22.484 183.988 22.8136C183.627 23.1685 183.124 23.4474 182.479 23.6502C181.803 23.8784 181.045 23.9798 180.195 24.0052C179.448 24.0305 178.741 23.9545 178.094 23.8277C177.421 23.7009 176.792 23.4474 176.183 23.0671C175.569 22.7122 175.048 22.2559 174.649 21.6728C174.22 21.115 173.894 20.3798 173.672 19.4671C173.446 18.5798 173.371 17.5404 173.422 16.3488H173.268L173.069 23.1432C173.142 23.1685 173.336 23.2446 173.702 23.3714C174.067 23.4981 174.287 23.5742 174.385 23.5995C174.484 23.6249 174.703 23.7009 175.047 23.8023C175.361 23.9291 175.636 23.9798 175.811 24.0052C175.987 24.0305 176.236 24.0812 176.609 24.1573C176.982 24.2333 177.311 24.2587 177.641 24.284C177.945 24.3094 178.329 24.3094 178.761 24.3347C179.193 24.3601 179.655 24.3601 180.142 24.3601Z" fill="white"/>
<path d="M189.731 6.43621L189.727 6.46156C190.113 6.79114 190.532 7.24747 190.932 7.83057C191.328 8.43902 191.508 8.94606 191.451 9.32634L189.249 24.0052H189.659L191.846 9.42775L199.377 19.0362L209.748 7.14607L207.22 24.0052H209.655L212.29 6.43621H209.804L200.814 16.8052L193.038 6.43621H189.731Z" fill="white"/>
<path d="M232.303 14.4474C232.423 11.9376 231.603 9.88408 229.851 8.2362C228.069 6.61367 225.894 5.90382 223.278 6.08128C220.659 6.2841 218.397 7.34888 216.445 9.25028C214.494 11.1517 213.471 13.3573 213.351 15.8672C213.256 18.377 214.072 20.4559 215.854 22.0784C217.61 23.7009 219.811 24.4108 222.427 24.2333C225.047 24.0305 227.308 22.9657 229.26 21.0643C231.186 19.1629 232.209 16.9573 232.303 14.4474ZM230.611 14.4474C229.983 16.7545 228.628 18.7826 226.542 20.5573C224.452 22.3573 222.359 23.3207 220.26 23.4728C218.468 23.6249 217.011 22.915 215.939 21.3432C214.863 19.7967 214.614 17.87 215.213 15.5883C215.815 13.2813 217.115 11.2784 219.095 9.52916C221.071 7.80522 223.083 6.86719 225.106 6.71508C226.949 6.56297 228.461 7.24747 229.669 8.7686C230.872 10.3151 231.18 12.1911 230.611 14.4474Z" fill="white"/>
</svg>
