<svg width="280" height="105" viewBox="0 0 280 105" fill="none" xmlns="http://www.w3.org/2000/svg">
<path d="M26.0705 33.2546V40.1329H8.16285V48.7308H23.6659V55.0995H8.16285V70.5119H0V33.2546H26.0705Z" fill="white"/>
<path fill-rule="evenodd" clip-rule="evenodd" d="M42.4587 70.1936C40.7441 70.8942 38.8391 71.2763 36.7435 71.2763C35.0925 71.2763 33.5049 71.0216 32.0444 70.5757C30.5839 70.0662 29.3138 69.3657 28.2343 68.4104C27.1548 67.4551 26.3292 66.3087 25.6942 64.9075C25.0592 63.5064 24.7417 61.9779 24.7417 60.1947C24.7417 58.8572 24.9957 57.6471 25.4402 56.5645C25.8847 55.4818 26.5197 54.4628 27.2818 53.5711C28.0438 52.6795 28.9328 51.9152 29.9488 51.2147C30.9649 50.5141 31.9809 49.8772 33.0604 49.3677C32.0444 48.1577 31.2189 46.9476 30.5204 45.7375C29.8218 44.5275 29.5043 43.0627 29.5043 41.4705C29.5043 40.1967 29.7583 38.9866 30.3299 37.9676C30.8379 36.9486 31.5999 35.9933 32.4889 35.2928C33.3779 34.5285 34.4575 33.9553 35.6005 33.5732C36.7435 33.1911 37.9501 33 39.2201 33C40.6171 33 41.9507 33.1911 43.2207 33.5732C44.4272 33.9553 45.5068 34.5285 46.4593 35.2928C47.3483 36.057 48.1103 36.9486 48.6184 38.095C49.1264 39.2414 49.4439 40.5152 49.4439 41.98C49.4439 44.1453 48.8089 45.9923 47.5388 47.5208C46.2688 49.0493 44.6812 50.2594 42.8397 51.2784L47.6658 57.2013C48.0468 56.5008 48.3643 55.8002 48.5549 55.0359C48.7454 54.2717 48.9359 53.5074 48.9994 52.7432H55.413C55.2225 54.3991 54.8415 56.055 54.27 57.5835C53.6985 59.1756 52.873 60.5768 51.7934 61.9142L59.3501 70.7668H50.2694L47.2213 67.0729C45.7608 68.3467 44.1732 69.4931 42.4587 70.1936ZM35.0039 55.1633C34.3689 55.5455 33.7974 55.9913 33.3529 56.5008C32.8449 57.0103 32.4638 57.5835 32.2098 58.2203C31.8923 58.8572 31.7653 59.5578 31.7653 60.322C31.7653 60.9589 31.8923 61.5958 32.2098 62.2327C32.5273 62.8695 32.9084 63.379 33.3529 63.8249C33.8609 64.2707 34.4324 64.5891 35.0674 64.8439C35.7024 65.0986 36.401 65.226 37.0995 65.226C38.433 65.226 39.576 64.9075 40.5921 64.3344C41.6081 63.6975 42.4971 62.9332 43.3861 61.9779L37.036 54.208C36.274 54.3991 35.6389 54.7812 35.0039 55.1633ZM39.5606 37.8403C40.4496 37.8403 41.2116 38.1588 41.9101 38.8593C42.6087 39.5599 42.9262 40.3878 42.9262 41.3432C42.9262 42.6806 42.5451 43.7633 41.7831 44.5275C41.0846 45.2918 40.1321 46.056 39.1161 46.6929C38.6273 46.1136 38.1696 45.5031 37.7213 44.9051C37.5289 44.6484 37.3382 44.394 37.1475 44.1454C36.5125 43.2538 36.195 42.2985 36.195 41.0884C36.195 40.1331 36.576 39.3688 37.211 38.732C37.846 38.1588 38.6715 37.8403 39.5606 37.8403Z" fill="white"/>
<path d="M69.5424 33.2546L78.2115 58.9208H78.338L86.5642 33.2546H98.0175V70.5756H90.3608V44.1452H90.2343L81.1223 70.5756H74.8578L65.809 44.4H65.6825V70.5756H58.0891V33.2546H69.5424Z" fill="white"/>
<path fill-rule="evenodd" clip-rule="evenodd" d="M123.852 34.401C121.756 33.6368 119.534 33.2546 117.121 33.2546H101.118V70.5756H117.184C120.042 70.5756 122.518 70.0661 124.614 69.1108C126.709 68.1555 128.487 66.8181 129.884 65.1622C131.281 63.4426 132.361 61.4683 133.06 59.1755C133.758 56.8828 134.076 54.399 134.076 51.6604C134.076 48.6034 133.631 45.8648 132.806 43.572C131.917 41.2793 130.773 39.3687 129.249 37.8402C127.725 36.3116 125.947 35.1653 123.852 34.401ZM119.949 63.1241C118.87 63.5062 117.727 63.6973 116.52 63.6973V63.6336H109.218V40.1328H115.06C117.092 40.1328 118.743 40.4513 120.14 41.0244C121.474 41.5976 122.617 42.4256 123.442 43.5083C124.268 44.591 124.839 45.8647 125.22 47.3932C125.601 48.9217 125.792 50.5776 125.792 52.4882C125.792 54.5262 125.538 56.3095 125.03 57.7106C124.522 59.1754 123.823 60.3218 122.934 61.2134C122.045 62.1051 121.093 62.7419 119.949 63.1241Z" fill="white"/>
<g clip-path="url(#clip0)">
<path d="M219.18 14.7442C218.568 14.9866 217.608 15.1112 216.33 15.1112L213.016 15.086V8.48413H216.407C217.725 8.48413 218.667 8.60199 219.233 8.82087C219.801 9.04649 220.283 9.44723 220.611 9.9658C220.957 10.4899 221.138 11.1075 221.129 11.7371C221.139 12.381 220.959 13.0135 220.611 13.5538C220.271 14.0902 219.769 14.5031 219.18 14.7324" fill="white"/>
<path d="M193.271 9.10899C194.593 8.37238 196.08 7.98598 197.591 7.98595C198.881 8.00616 200.154 8.28788 201.334 8.81434C202.649 9.38594 203.846 10.2028 204.86 11.2221L206.35 9.79763C204.981 8.5079 203.578 7.56839 202.143 6.97908C200.678 6.38733 199.113 6.0877 197.536 6.09682C195.648 6.0671 193.784 6.52563 192.122 7.42864C190.552 8.29612 189.248 9.58151 188.353 11.1446C187.444 12.6995 186.967 14.4732 186.975 16.2783C186.953 18.6748 187.806 20.9957 189.372 22.7993C191.447 25.2441 194.265 26.4642 197.826 26.4597C200.763 26.4597 203.101 25.5746 204.842 23.8045C206.599 22.0366 207.476 19.644 207.498 16.6268H199.211V18.521H205.34C205.124 20.2401 204.248 21.8052 202.899 22.8801C201.535 24.0026 199.86 24.5638 197.873 24.5638C196.3 24.58 194.748 24.1936 193.363 23.4408C192.025 22.7245 190.908 21.6517 190.134 20.3394C189.373 19.0923 188.969 17.6579 188.965 16.1941C188.964 14.7642 189.354 13.3617 190.09 12.1397C190.852 10.8546 191.95 9.80597 193.264 9.10899" fill="white"/>
<path d="M276.424 79.3031C275.916 79.0087 275.34 78.8538 274.753 78.8538C274.167 78.8538 273.591 79.0087 273.083 79.3031C272.575 79.5956 272.152 80.017 271.855 80.5255C271.563 81.0374 271.412 81.6187 271.417 82.2092C271.41 82.7999 271.561 83.3816 271.855 83.8929C272.156 84.4007 272.584 84.8208 273.095 85.1119C273.602 85.4095 274.178 85.5662 274.765 85.5662C275.352 85.5662 275.928 85.4095 276.435 85.1119C276.941 84.8182 277.361 84.3954 277.654 83.8859C277.946 83.3765 278.1 82.7985 278.1 82.21C278.1 81.6216 277.946 81.0436 277.654 80.5342C277.361 80.0247 276.941 79.6019 276.435 79.3081L276.424 79.3031ZM277.052 83.5292C276.819 83.9296 276.486 84.2608 276.085 84.4889C275.686 84.7265 275.231 84.8505 274.768 84.8476C274.298 84.8531 273.835 84.7291 273.429 84.4889C273.029 84.2578 272.698 83.9248 272.467 83.5235C272.236 83.1221 272.113 82.6665 272.112 82.2025C272.106 81.8545 272.172 81.5089 272.306 81.1882C272.44 80.8675 272.639 80.5786 272.891 80.3403C273.132 80.0859 273.422 79.8846 273.744 79.749C274.066 79.6134 274.413 79.5464 274.762 79.5523C275.108 79.5471 275.452 79.6144 275.772 79.7501C276.091 79.8857 276.379 80.0867 276.618 80.3403C276.868 80.5846 277.066 80.8786 277.198 81.2037C277.331 81.5288 277.395 81.878 277.388 82.2294C277.393 82.6872 277.272 83.1375 277.037 83.5292" fill="white"/>
<path d="M276.211 83.0459C276.217 82.8736 276.188 82.702 276.128 82.5408L275.857 82.2865C275.994 82.1898 276.108 82.0639 276.191 81.9178C276.257 81.7675 276.288 81.6038 276.28 81.4396C276.284 81.2324 276.233 81.0278 276.133 80.847C276.042 80.6916 275.909 80.566 275.749 80.485C275.507 80.4003 275.252 80.3643 274.997 80.3789H273.385V84.0511H274.185V82.6485H274.828C274.96 82.6392 275.092 82.6581 275.216 82.7041L275.354 82.8725C275.396 83.0671 275.413 83.2662 275.406 83.4651C275.403 83.5778 275.41 83.6906 275.428 83.8019L275.501 84.0477H276.435L276.268 83.849C276.253 83.7749 276.243 83.5123 276.21 83.0526L276.211 83.0459ZM275.375 81.8639C275.218 81.9487 275.04 81.9856 274.863 81.97H274.195V81.0894H274.863C275.04 81.0689 275.218 81.1036 275.375 81.1888C275.419 81.2317 275.453 81.2844 275.475 81.3427C275.496 81.4011 275.504 81.4636 275.498 81.5255C275.502 81.5873 275.494 81.6492 275.472 81.7073C275.451 81.7654 275.418 81.8182 275.375 81.8623" fill="white"/>
<path d="M176.376 105H280V0H176.376V105ZM277.64 83.8862C277.35 84.3969 276.93 84.8201 276.424 85.1119C275.916 85.4095 275.34 85.5662 274.753 85.5662C274.166 85.5662 273.59 85.4095 273.083 85.1119C272.574 84.8183 272.149 84.3958 271.852 83.8862C271.631 83.504 271.487 83.0813 271.43 82.6427C271.373 82.2041 271.403 81.7585 271.519 81.3318C271.635 80.9051 271.834 80.5059 272.104 80.1576C272.375 79.8092 272.711 79.5188 273.094 79.3031C273.601 79.0082 274.176 78.8526 274.761 78.8519C275.346 78.8513 275.921 79.0055 276.429 79.2993C276.936 79.593 277.358 80.016 277.653 80.5258C277.947 81.0356 278.103 81.6143 278.106 82.2041C278.111 82.7969 277.954 83.3796 277.651 83.8879" fill="#BA1F2C"/>
<path d="M267.415 79.0776L259.663 86.3648V79.0776H257.748V98.4606H259.663V89.4274L268.12 98.4606H270.696L260.697 87.7791L269.969 79.0776H267.415Z" fill="white"/>
<path d="M227.57 78.5857C225.807 78.575 224.072 79.0422 222.549 79.9386C221.026 80.8349 219.77 82.1273 218.912 83.6807C218.023 85.2581 217.562 87.0439 217.576 88.8581C217.576 91.6508 218.555 94.0305 220.513 95.9971C222.47 97.9637 224.875 98.9492 227.727 98.9537C230.537 98.9537 232.921 97.967 234.88 95.9937C236.839 94.0204 237.818 91.6071 237.818 88.7537C237.818 85.897 236.836 83.4837 234.87 81.5137C232.904 79.5438 230.47 78.5655 227.567 78.579L227.57 78.5857ZM234.76 92.958C234.068 94.22 233.042 95.2635 231.796 95.9718C230.536 96.6946 229.109 97.0676 227.659 97.0528C226.594 97.0717 225.536 96.8703 224.552 96.4611C223.567 96.0519 222.676 95.4436 221.934 94.6737C220.344 93.0876 219.559 91.1463 219.559 88.848C219.538 87.3644 219.909 85.9019 220.633 84.6101C221.341 83.3575 222.369 82.3186 223.61 81.6013C224.835 80.8688 226.234 80.4821 227.659 80.4816C229.102 80.4827 230.52 80.8715 231.765 81.608C233.009 82.313 234.044 83.3401 234.763 84.5831C235.479 85.8575 235.848 87.2996 235.834 88.7638C235.848 90.2371 235.478 91.6883 234.763 92.9731" fill="white"/>
<path d="M198.555 98.4623L204.331 83.7803L210.059 98.4623H210.388L215.915 79.0776H213.961L209.975 93.0491L204.521 79.0776H204.152L198.65 93.0491L194.701 79.0776H192.743L198.226 98.4623H198.555Z" fill="white"/>
<path d="M243.194 74.2907V56.8036H247.48V54.9111H236.995V56.8036H241.279V74.2907H243.194Z" fill="white"/>
<path d="M258.777 50.1361H269.713V48.2436H260.691V40.618H269.713V38.7171H260.691V32.6423H269.787V30.7498H258.777V50.1361Z" fill="white"/>
<path d="M236.113 40.3335C236.113 43.0274 236.925 45.3285 238.548 47.2367C240.493 49.4985 243.141 50.6289 246.495 50.6277C248.145 50.648 249.78 50.3032 251.284 49.6175C252.687 48.9666 253.913 47.9849 254.86 46.7552L253.357 45.6035C251.544 47.7267 249.291 48.8026 246.601 48.8026C244.151 48.8026 242.123 48.0073 240.516 46.4168C238.909 44.8262 238.103 42.8546 238.099 40.5019C238.079 39.0179 238.454 37.5556 239.185 36.2673C239.907 35.0079 240.958 33.9724 242.223 33.2737C243.52 32.5273 244.99 32.1399 246.483 32.1506C247.813 32.1405 249.128 32.4311 250.332 33.0009C251.517 33.577 252.551 34.4274 253.348 35.4827L254.852 34.3159C253.936 33.0375 252.72 32.0073 251.314 31.3172C249.801 30.5932 248.144 30.2291 246.469 30.2531C243.506 30.2542 241.039 31.2263 239.068 33.1693C237.095 35.1123 236.113 37.4947 236.113 40.3385" fill="white"/>
<path d="M259.464 8.48593H263.748V25.9764H265.668V8.48593H269.949V6.58838H259.464V8.48593Z" fill="white"/>
<path d="M274.86 81.0827H274.192V81.9633H274.86C275.037 81.9793 275.215 81.9418 275.371 81.8555C275.415 81.812 275.449 81.7593 275.471 81.7011C275.493 81.6429 275.501 81.5807 275.497 81.5188C275.503 81.4567 275.495 81.394 275.473 81.3356C275.451 81.2772 275.416 81.2247 275.371 81.182C275.215 81.0968 275.037 81.0621 274.86 81.0827" fill="#BA1F2C"/>
<path d="M274.765 79.5523C274.416 79.5472 274.07 79.6142 273.747 79.7492C273.425 79.8841 273.134 80.0841 272.891 80.3369C272.605 80.6224 272.389 80.9705 272.259 81.3539C272.129 81.7374 272.088 82.146 272.14 82.5478C272.192 82.9497 272.336 83.3341 272.559 83.671C272.783 84.008 273.08 84.2884 273.429 84.4906C273.83 84.7249 274.286 84.848 274.75 84.8475C275.212 84.8488 275.667 84.7256 276.066 84.4906C276.469 84.2637 276.803 83.9315 277.033 83.5292C277.269 83.1376 277.392 82.6874 277.388 82.2294C277.389 81.5246 277.115 80.8477 276.623 80.3463C276.132 79.8448 275.464 79.5594 274.765 79.5523V79.5523ZM275.503 84.0528L275.43 83.8053C275.411 83.6942 275.402 83.5814 275.405 83.4686C275.412 83.2696 275.395 83.0705 275.353 82.8759L275.214 82.7075C275.092 82.6597 274.961 82.6407 274.83 82.652H274.187V84.0562H273.387V80.384H274.999C275.254 80.3694 275.51 80.406 275.751 80.4918C275.909 80.5741 276.042 80.6988 276.135 80.8521C276.235 81.033 276.285 81.2377 276.28 81.4448C276.287 81.6076 276.257 81.7699 276.193 81.9196C276.111 82.0671 275.997 82.1942 275.859 82.2917L276.125 82.5459C276.188 82.7064 276.218 82.8783 276.213 83.051C276.242 83.5073 276.253 83.7683 276.272 83.8457L276.439 84.0562L275.503 84.0528Z" fill="#BA1F2C"/>
<path d="M221.129 11.7439C221.137 11.1131 220.956 10.4946 220.609 9.96927C220.281 9.45253 219.799 9.05314 219.233 8.82771C218.667 8.59872 217.73 8.49097 216.408 8.49097H213.016V15.0878L216.328 15.1097C217.608 15.1097 218.568 14.9834 219.178 14.7443C219.767 14.5149 220.269 14.102 220.609 13.5657C220.957 13.0259 221.138 12.3942 221.129 11.7506" fill="#BA1F2C"/>
<path d="M223.424 26.0219L218.313 16.8523C218.985 16.7813 219.645 16.6152 220.272 16.359C221.143 15.9853 221.879 15.3504 222.38 14.5406C222.883 13.699 223.14 12.7313 223.122 11.749C223.122 10.4828 222.765 9.41649 222.051 8.54994C221.338 7.68362 220.358 7.08311 219.266 6.84433C218.506 6.67596 217.06 6.59009 214.923 6.59009H211.098V25.9781H213.019V16.982H216.321L221.368 26.0219H223.424ZM213.016 15.0777V8.48764H216.407C217.725 8.48764 218.668 8.59989 219.235 8.82438C219.801 9.04961 220.283 9.44905 220.611 9.96594C220.956 10.4907 221.137 11.1077 221.131 11.7372C221.138 12.3816 220.957 13.014 220.611 13.5556C220.271 14.0927 219.769 14.5058 219.179 14.7342C218.565 14.9784 217.608 15.103 216.33 15.103L213.016 15.0777Z" fill="white"/>
<path d="M254.081 98.5547L248.963 89.3886C249.637 89.3129 250.297 89.1429 250.924 88.8835C251.8 88.513 252.538 87.8753 253.036 87.06C253.54 86.2222 253.798 85.2567 253.777 84.2768C253.777 83.014 253.42 81.9381 252.703 81.0778C251.992 80.2102 251.01 79.6118 249.917 79.3806C249.161 79.2032 247.713 79.1151 245.574 79.1162H241.752V98.4975H243.673V89.5098H246.972L252.02 98.5547H254.081ZM243.673 87.6106V81.0121H247.064C248.382 81.0121 249.324 81.1299 249.887 81.3572C250.456 81.5822 250.938 81.9838 251.265 82.5039C251.614 83.0254 251.797 83.6412 251.791 84.2701C251.8 84.9141 251.618 85.5462 251.268 86.0851C250.929 86.6265 250.425 87.0428 249.832 87.2721C249.219 87.518 248.265 87.6476 246.984 87.6476L243.673 87.6106Z" fill="white"/>
<path d="M190.127 20.3428C190.903 21.6539 192.02 22.7264 193.356 23.4442C194.742 24.1962 196.293 24.5825 197.867 24.5672C199.854 24.5672 201.532 24.006 202.898 22.8835C204.247 21.8068 205.124 20.2411 205.343 18.521H199.213V16.6285H207.502C207.48 19.644 206.603 22.0366 204.851 23.8045C203.098 25.5724 200.761 26.4597 197.835 26.4597C194.271 26.4597 191.452 25.2396 189.377 22.7993C187.811 20.996 186.957 18.675 186.979 16.2783C186.971 14.4739 187.445 12.7006 188.352 11.1446C189.248 9.5823 190.552 8.29721 192.122 7.42864C193.784 6.52553 195.648 6.0659 197.536 6.09346C199.113 6.08544 200.677 6.38681 202.14 6.98077C203.578 7.56502 204.979 8.50791 206.351 9.79763L204.861 11.2221C203.845 10.2033 202.647 9.3865 201.331 8.81434C200.152 8.2878 198.88 8.00607 197.591 7.98595C196.081 7.98693 194.595 8.37328 193.273 9.10899C191.959 9.80648 190.861 10.855 190.099 12.1397C189.365 13.3614 188.977 14.7625 188.978 16.1907C188.98 17.6544 189.38 19.0896 190.136 20.3394" fill="white"/>
<path d="M199.989 39.0976C200.668 38.2658 201.012 37.2017 201.012 35.8985C201.012 34.5953 200.664 33.5564 199.968 32.7163C199.28 31.8704 198.333 31.2782 197.275 31.0325C196.503 30.8406 195.021 30.7446 192.828 30.7446H188.996V50.1377H190.909V41.1163H192.282C194.672 41.1163 196.304 41.0119 197.178 40.7914C198.372 40.5051 199.308 39.9377 199.988 39.0976H199.989ZM194.168 39.2525L190.909 39.2087V32.6422H194.313C195.615 32.6422 196.553 32.7567 197.123 32.9789C197.692 33.2061 198.174 33.6093 198.501 34.1306C198.848 34.6581 199.03 35.2777 199.026 35.9103C199.032 36.5531 198.849 37.1834 198.501 37.722C198.154 38.2529 197.65 38.6609 197.061 38.8888C196.455 39.1279 195.483 39.2457 194.168 39.2457" fill="white"/>
<path d="M238.283 8.48593H229.187V14.5574H238.211V16.4533H229.187V24.0721H238.211V25.9764H227.273V6.58838H238.283V8.48593Z" fill="#BA1F2C"/>
<path d="M238.283 8.48593H229.187V14.5574H238.211V16.4533H229.187V24.0721H238.211V25.9764H227.273V6.58838H238.283V8.48593Z" fill="white"/>
<path d="M256.975 25.9764L253.98 19.6136H245.627L242.642 25.9764H240.502L249.606 6.58838H250.089L259.043 25.9764H256.975ZM246.523 17.7161H253.139L249.847 10.6276L246.523 17.7161Z" fill="white"/>
<path d="M232.68 50.1883L229.673 43.8323H221.339L218.354 50.1883H216.215L225.32 30.802H225.801L234.751 50.1883H232.68ZM222.232 41.9381H228.846L225.552 34.853L222.232 41.9381Z" fill="white"/>
<path d="M206.586 30.7498H204.672V50.1378H214.006V48.2402H206.586V30.7498Z" fill="white"/>
<path d="M266.779 71.8207C268.733 69.8406 269.71 67.4312 269.709 64.5925C269.709 61.7385 268.733 59.319 266.767 57.3525C264.801 55.3859 262.374 54.4144 259.465 54.4144C257.703 54.408 255.971 54.8763 254.449 55.7709C252.926 56.6655 251.669 57.9538 250.806 59.5026C249.917 61.0813 249.456 62.8681 249.47 64.6834C249.47 67.4851 250.455 69.8574 252.418 71.8308C254.381 73.8041 256.783 74.7874 259.629 74.7874C262.442 74.7874 264.828 73.7968 266.785 71.8156L266.779 71.8207ZM253.831 70.509C252.252 68.9213 251.456 66.9732 251.456 64.6766C251.436 63.195 251.807 61.7347 252.531 60.4455C253.244 59.2018 254.266 58.1668 255.496 57.4423C256.726 56.7177 258.123 56.3287 259.547 56.3136C260.992 56.3122 262.411 56.6987 263.658 57.4333C264.905 58.1391 265.943 59.1672 266.665 60.4118C267.38 61.684 267.747 63.1252 267.727 64.5874C267.745 66.0601 267.379 67.5117 266.665 68.7967C265.965 70.0494 264.936 71.0838 263.692 71.787C262.434 72.5224 261.006 72.9082 259.552 72.905C258.487 72.9203 257.43 72.717 256.445 72.3074C255.461 71.8978 254.569 71.2905 253.824 70.5225" fill="white"/>
</g>
<defs>
<clipPath id="clip0">
<rect x="176.376" width="103.624" height="105" fill="white"/>
</clipPath>
</defs>
</svg>
