<svg width="1440" height="544" viewBox="0 0 1440 544" fill="none" xmlns="http://www.w3.org/2000/svg">
<g clip-path="url(#clip0_9209_573)" filter="url(#filter0_f_9209_573)">
<path opacity="0.15" d="M1374.19 237.88C1407.7 274.97 1434.88 339.451 1384.8 384.973C1379.63 389.666 1331.18 432.248 1258.3 426.96C1169.54 420.52 1151.34 350.812 1053.38 332.716C947.298 313.119 885.037 379.425 833.231 359.056C771.971 334.97 764.451 205.071 875.331 149.396C1008.91 82.3255 1284.08 138.151 1374.19 237.88Z" fill="#EBC136"/>
<path opacity="0.15" d="M539.245 429.639C570.307 410.569 604.155 372.148 583.134 333.285C580.966 329.278 560.262 292.654 511.679 283.834C452.505 273.09 423.162 316.52 355.091 311.996C281.375 307.096 257.688 252.301 218.971 257.114C173.189 262.806 135.627 348.21 193.513 404.149C263.248 471.538 455.723 480.917 539.245 429.639Z" fill="#EBC136"/>
<path opacity="0.15" d="M721.575 321.89C706.187 300.799 690.464 260.221 703.947 222.859C705.337 219.007 718.519 183.857 744.878 178.297C776.983 171.526 790.013 216.799 826.481 216.823C865.973 216.849 881.817 163.774 902.122 171.155C926.131 179.883 941.044 267.57 906.945 319.508C865.865 382.075 762.953 378.602 721.575 321.89Z" fill="#EBC136"/>
<path opacity="0.15" d="M709.467 274.802C726.284 264.124 744.622 242.633 733.276 220.936C732.107 218.699 720.931 198.254 694.654 193.363C662.649 187.407 646.745 211.693 609.923 209.218C570.047 206.538 557.27 175.943 536.321 178.661C511.55 181.876 491.171 229.62 522.448 260.828C560.128 298.423 664.247 303.514 709.467 274.802Z" fill="#EBC136"/>
<path opacity="0.15" d="M1433.62 248.365C1451.76 232.046 1471.7 199.494 1459.95 167.192C1458.74 163.861 1447.14 133.43 1419.17 126.595C1385.09 118.269 1367.7 154.965 1328.42 151.946C1285.89 148.678 1272.75 103.066 1250.34 107.534C1223.83 112.818 1201.28 184.751 1234.15 230.934C1273.76 286.569 1384.86 292.244 1433.62 248.365Z" fill="#8047F8"/>
<path opacity="0.15" d="M1445.61 377.852C1459.71 388.804 1475.15 410.725 1465.84 432.622C1464.88 434.88 1455.7 455.511 1433.82 460.261C1407.16 466.047 1393.73 441.312 1363.03 443.533C1329.79 445.938 1319.35 476.841 1301.86 473.922C1281.17 470.471 1263.84 421.932 1289.71 390.552C1320.88 352.749 1407.69 348.404 1445.61 377.852Z" fill="#8047F8"/>
<path opacity="0.15" d="M246.937 136.891C259.506 158.616 271.932 200.056 259.695 237.491C258.433 241.351 246.5 276.558 224.055 281.502C196.717 287.524 186.675 241.405 155.792 240.442C122.347 239.4 107.765 292.665 90.7318 284.678C70.5903 275.234 59.8829 186.175 89.8997 134.53C126.06 72.3152 213.139 78.4762 246.937 136.891Z" fill="#EBC136"/>
<path opacity="0.15" d="M888.507 432.947C862.621 413.727 837.461 375.18 863.926 336.528C866.654 332.543 892.434 296.123 939.6 287.62C997.048 277.262 1017.11 320.78 1081.84 316.683C1151.94 312.246 1183.66 257.712 1219.2 262.753C1261.23 268.713 1281.76 354.166 1217.71 409.631C1140.55 476.449 958.112 484.627 888.507 432.947Z" fill="#EBC136"/>
<path opacity="0.15" d="M814.922 399.538C836.564 380.513 859.249 343.904 841.967 310.187C840.185 306.71 823.247 274.989 787.43 269.962C743.804 263.84 724.654 304.687 674.868 304.695C620.953 304.704 600.92 256.808 572.979 263.46C539.939 271.327 516.942 350.444 561.931 397.321C616.129 453.792 756.728 450.695 814.922 399.538Z" fill="#8047F8"/>
<path opacity="0.15" d="M862.472 141.004C903.019 151.666 946.078 171.465 915.336 188.257C912.166 189.989 881.993 205.762 816.11 207.009C735.863 208.528 699.181 186.67 607.369 184.784C507.942 182.742 472.601 206.767 420.851 202.269C359.659 196.95 314.602 155.145 396 132.591C494.058 105.42 753.443 112.335 862.472 141.004Z" fill="#8047F8"/>
<path opacity="0.15" d="M195.139 382.866C214.225 360.714 234.35 318.381 219.454 279.978C217.918 276.018 203.31 239.899 171.98 234.685C133.82 228.335 116.761 275.475 73.1632 276.25C25.9491 277.089 8.74424 222.467 -15.7709 230.526C-44.7595 240.056 -65.4579 331.145 -26.3915 384.214C20.6708 448.144 143.816 442.431 195.139 382.866Z" fill="#8047F8"/>
</g>
<defs>
<filter id="filter0_f_9209_573" x="-160" y="-160" width="1760" height="864" filterUnits="userSpaceOnUse" color-interpolation-filters="sRGB">
<feFlood flood-opacity="0" result="BackgroundImageFix"/>
<feBlend mode="normal" in="SourceGraphic" in2="BackgroundImageFix" result="shape"/>
<feGaussianBlur stdDeviation="80" result="effect1_foregroundBlur_9209_573"/>
</filter>
<clipPath id="clip0_9209_573">
<rect width="1440" height="544" fill="white"/>
</clipPath>
</defs>
</svg>
