<svg width="96" height="322" viewBox="0 0 96 322" fill="none" xmlns="http://www.w3.org/2000/svg">
<g filter="url(#filter0_i_287_255)">
<path fill-rule="evenodd" clip-rule="evenodd" d="M56.9356 -24.8562C56.9356 -23.1037 52.3799 -10.8465 49.8523 -5.79845C45.4427 3.009 41.0374 8.37154 36.7379 10.1662C34.8181 10.9672 34.5661 11.3349 34.4812 13.4624C34.2017 20.474 26.0655 32.1873 4.69267 56.3469C-6.00537 68.4395 -11.0239 74.9622 -15.4904 82.5777C-18.0039 86.8621 -18.092 87.195 -18.4863 93.8975C-19.0042 102.706 -20.3402 110.082 -21.6865 111.571C-22.4642 112.431 -23.5697 112.734 -25.9243 112.734C-32.1339 112.734 -34.5955 116.904 -33.9718 126.364C-33.7676 129.469 -33.4142 133.054 -33.1873 134.331C-32.9599 135.609 -33.0186 136.609 -33.3176 136.554C-34.571 136.321 -35.3176 136.735 -38.4187 139.384C-41.9019 142.36 -51.058 155.728 -51.6957 158.771C-51.9256 159.865 -53.4688 161.609 -56.1499 163.805C-61.6136 168.277 -66.442 173.452 -67.4417 175.905C-67.8892 177.002 -68.4529 179.27 -68.6944 180.945C-69.3792 185.694 -72.4724 190.98 -78.6472 197.952L-81.2457 200.887L-81.2494 208.361C-81.2531 217.363 -81.8467 219.772 -84.8788 223.091C-89.1104 227.722 -89.6631 229.531 -90.3608 241.04C-90.8102 248.447 -91.0499 249.518 -94.6536 260.202C-96.7532 266.426 -98.9769 274.161 -99.5951 277.393C-100.873 284.075 -100.499 283.122 -108.634 300.393C-115.279 314.5 -120.526 323.644 -120.89 321.753C-121.236 319.952 -119.878 311.566 -117.263 299.359C-112.129 275.39 -111.753 266.841 -115.45 258.129C-116.437 255.805 -116.432 255.638 -115.349 254.555C-114.363 253.568 -114.222 252.474 -114.28 246.253C-114.317 242.312 -114.288 238.4 -114.216 237.559C-114.145 236.717 -114.299 234.458 -114.561 232.537C-115.076 228.754 -115.18 228.943 -110.594 225.383L-109.065 224.196L-110.831 218.968C-112.846 212.997 -112.609 211.496 -109.086 207.964C-107.071 205.943 -99.3707 194.297 -97.2998 190.138C-95.1935 185.907 -93.5274 180.537 -89.8228 166.034C-87.44 156.708 -85.4211 150.24 -83.8345 146.852C-81.7147 142.325 -80.9272 141.324 -76.9364 138.085C-71.5174 133.687 -68.9078 129.228 -64.0684 116.1C-57.5666 98.4591 -53.3362 92.2399 -33.8923 71.7382C-29.2645 66.8584 -23.1136 60.1509 -20.2234 56.8333C-15.5044 51.4151 -14.9603 50.5364 -14.8814 48.21C-14.7365 43.9042 -11.2459 39.5225 4.3943 24.0113C15.8022 12.6982 20.2002 7.86123 25.0212 1.32632C34.2586 -11.194 39.3016 -16.2133 47.425 -20.9738C51.5569 -23.3944 56.9356 -25.5904 56.9356 -24.8562ZM-18.2693 -12.4227C-18.2693 -12.2691 -19.0439 -10.8238 -19.991 -9.21031C-20.9375 -7.59677 -23.1717 -3.11045 -24.9558 0.759716C-34.0996 20.5994 -39.2924 28.4915 -44.2902 30.1417C-45.9435 30.6881 -46.3617 31.1067 -46.0945 31.9492C-45.4623 33.9421 -48.1482 39.536 -52.3456 44.9689C-54.6214 47.9139 -59.8955 54.51 -64.066 59.626C-76.0823 74.3674 -79.0581 79.5421 -81.2335 89.4828C-84.3621 103.775 -88.3725 110.89 -101.881 126.111C-107.205 132.11 -108.201 133.538 -107.057 133.538C-106.793 133.538 -106.071 134.397 -105.452 135.446C-104.604 136.882 -104.414 138.052 -104.683 140.188C-105.195 144.24 -109.099 154.014 -113.833 163.092C-116.075 167.391 -118.491 172.894 -119.202 175.322C-123.732 190.794 -125.704 196.916 -128.004 202.643C-130.539 208.954 -137.875 224.096 -142.252 232.052C-144.869 236.808 -153.127 250.088 -154.808 252.244L-156 253.773L-155.594 250.042C-155.175 246.187 -152.322 235.035 -149.428 225.933C-142.516 204.194 -140.485 194.389 -141.687 188.566C-142.34 185.403 -142.305 184.766 -141.402 183.388C-140.515 182.033 -140.445 180.997 -140.897 175.881C-141.184 172.616 -141.431 167.581 -141.445 164.691C-141.469 159.868 -141.325 159.225 -139.7 156.88C-137.947 154.349 -137.933 154.263 -138.327 148.061L-138.725 141.799L-136.667 140.401C-134.528 138.949 -128.654 133.159 -126.574 130.452C-125.044 128.461 -121.866 122.21 -120.693 118.885C-119.499 115.496 -118.198 107.708 -117.038 97.0047C-116.52 92.2234 -116.097 88.0687 -116.097 87.7714C-116.097 87.474 -113.827 85.3293 -111.053 83.006C-98.7941 72.7404 -94.741 68.6788 -94.0948 66.0152C-92.1174 57.8637 -85.0023 48.8127 -72.739 38.8494C-63.1427 31.0528 -62.2794 30.1503 -53.2738 18.5043C-42.673 4.79447 -32.823 -5.07337 -25.33 -9.48933C-20.4679 -12.3548 -18.2693 -13.2683 -18.2693 -12.4227ZM76.5011 42.9313C76.5011 43.2409 74.816 47.7156 72.7562 52.8744C65.1317 71.9695 57.4578 84.2475 51.8027 86.3989C50.8679 86.7544 50.2406 87.8172 49.6848 89.9888C48.572 94.3338 45.5387 99.0851 39.7767 105.509C30.6047 115.735 23.8375 125.85 19.0373 136.509C17.052 140.917 16.2663 142.016 14.3256 143.102C10.3563 145.321 9.61157 150.327 12.0371 158.481C12.3801 159.636 11.7308 160.553 8.13498 163.988C4.55389 167.409 3.46494 168.941 1.72851 173.005C-3.08889 184.277 -7.23678 190.357 -11.68 192.655C-13.3333 193.512 -13.354 193.582 -12.3788 195.072C-11.5675 196.311 -11.4415 197.576 -11.7252 201.632C-12.1392 207.544 -13.8175 213.155 -18.91 225.652C-20.962 230.686 -23.8674 237.814 -25.366 241.492C-27.0762 245.688 -28.6598 251.045 -29.6173 255.872C-31.7089 266.416 -33.5151 271.027 -39.175 280.273C-40.5538 282.525 -44.0199 288.773 -46.8777 294.158C-54.0631 307.697 -61.3427 319.481 -62.0709 318.752C-62.6346 318.188 -60.3443 304.18 -58.0875 294.386C-56.7405 288.539 -54.9216 280.039 -54.0454 275.495C-51.434 261.946 -51.099 260.661 -49.785 259.132C-48.7052 257.876 -48.2913 257.757 -46.871 258.298C-45.96 258.644 -45.0936 258.731 -44.945 258.49C-44.7964 258.249 -45.3669 255.988 -46.2119 253.466C-48.0229 248.063 -49.7881 238.248 -50.339 230.522C-50.7822 224.294 -50.5261 223.554 -45.9153 217.746L-43.2966 214.446L-44.4809 212.388C-47.3846 207.34 -46.7151 203.794 -42.3819 201.267C-40.7219 200.299 -38.7048 198.913 -37.8996 198.188C-34.8669 195.454 -31.8398 187.33 -26.0227 166.308C-23.4926 157.166 -23.3771 156.42 -24.1891 154.476C-24.669 153.327 -24.9735 151.02 -24.872 149.304C-24.6378 145.337 -22.8892 143.865 -17.9232 143.453L-14.4693 143.166L-13.0123 140.035C-12.2113 138.313 -11.5528 136.484 -11.5497 135.971C-11.5461 135.458 -8.98422 133.058 -5.85558 130.636C-0.474449 126.471 -0.180359 126.124 -0.402916 124.218C-0.791168 120.888 3.42336 115.435 15.3296 103.862C36.0079 83.7629 37.9932 81.6005 45.6243 70.8571C56.4948 55.5539 63.528 48.5588 72.6596 43.9703C76.1856 42.1989 76.5011 42.1132 76.5011 42.9313ZM93.9701 124.515C89.8576 135.567 87.9922 138.593 80.8642 145.776C74.1001 152.593 71.9723 156.003 72.5813 159.05C73.0252 161.271 71.9332 162.288 68.6285 162.731L66.2103 163.056L66.5441 166.292L66.878 169.529L59.6143 176.452C44.7365 190.628 43.8805 191.722 43.8805 196.562C43.8805 198.077 44.3312 200.176 44.8814 201.228L45.8823 203.14L42.8491 205.027C40.9781 206.19 39.8158 207.349 39.8158 208.05C39.8158 209.96 35.7969 221.714 33.7022 225.933C30.085 233.215 29.5103 235.813 30.4066 240.822C31.7139 248.127 31.7194 248.107 27.5036 251.243C25.4395 252.777 23.5092 254.114 23.2127 254.213C22.9167 254.312 21.6982 257.282 20.5047 260.814C17.5215 269.643 14.6375 275.441 11.1279 279.661C7.66174 283.829 6.26953 286.412 3.36467 294.064C0.300224 302.136 -3.72049 309.898 -4.42668 309.104C-4.69754 308.799 -3.43618 296.931 -2.38087 289.858C-1.98038 287.175 -0.699448 280.849 0.465309 275.801C1.63068 270.753 3.54871 262.355 4.72753 257.139C7.34136 245.571 7.83111 244.658 11.1236 245.214C12.4443 245.438 13.5247 245.383 13.5247 245.092C13.5247 244.801 12.2566 242.525 10.7066 240.032L7.8892 235.501L9.00015 233.624C10.3832 231.286 11.1053 219.178 10.2438 212.777C9.75037 209.113 9.9075 207.169 11.3297 199.316C12.4822 192.955 13.3052 189.897 14.0114 189.355C14.5714 188.924 17.2366 187.44 19.933 186.056C26.5828 182.642 29.133 180.812 33.1165 176.594C37.2185 172.25 39.2289 169.064 40.1435 165.46C40.7605 163.027 41.1126 162.642 43.5754 161.706C49.0116 159.641 54.2038 154.896 70.8601 136.767C74.3153 133.006 79.3821 128.135 82.1207 125.943C86.6471 122.319 94.4366 117.629 95.9303 117.629C96.2617 117.629 95.3794 120.728 93.9701 124.515Z" fill="#E9FF00"/>
</g>
<defs>
<filter id="filter0_i_287_255" x="-156" y="-25" width="252" height="347" filterUnits="userSpaceOnUse" color-interpolation-filters="sRGB">
<feFlood flood-opacity="0" result="BackgroundImageFix"/>
<feBlend mode="normal" in="SourceGraphic" in2="BackgroundImageFix" result="shape"/>
<feColorMatrix in="SourceAlpha" type="matrix" values="0 0 0 0 0 0 0 0 0 0 0 0 0 0 0 0 0 0 127 0" result="hardAlpha"/>
<feOffset/>
<feGaussianBlur stdDeviation="6.5"/>
<feComposite in2="hardAlpha" operator="arithmetic" k2="-1" k3="1"/>
<feColorMatrix type="matrix" values="0 0 0 0 0 0 0 0 0 0 0 0 0 0 0 0 0 0 1 0"/>
<feBlend mode="normal" in2="shape" result="effect1_innerShadow_287_255"/>
</filter>
</defs>
</svg>
