<svg width="283" height="431" viewBox="0 0 283 431" fill="none" xmlns="http://www.w3.org/2000/svg">
<g filter="url(#filter0_i_220_96)">
<path fill-rule="evenodd" clip-rule="evenodd" d="M234.48 0.178654C234.48 2.35531 228.821 17.5797 225.682 23.8498C220.205 34.7893 214.733 41.45 209.393 43.6791C207.008 44.6739 206.695 45.1307 206.59 47.7732C206.243 56.4821 196.137 71.0309 169.59 101.039C156.303 116.059 150.069 124.161 144.522 133.62C141.4 138.941 141.291 139.355 140.801 147.68C140.157 158.62 138.498 167.782 136.826 169.631C135.86 170.699 134.487 171.076 131.562 171.076C123.85 171.076 120.792 176.255 121.567 188.005C121.82 191.862 122.259 196.315 122.541 197.902C122.824 199.488 122.751 200.73 122.379 200.662C120.823 200.373 119.895 200.888 116.043 204.178C111.717 207.874 100.345 224.478 99.5526 228.257C99.267 229.616 97.3502 231.783 94.0201 234.509C87.2339 240.065 81.2368 246.492 79.9951 249.539C79.4392 250.902 78.739 253.719 78.4391 255.799C77.5885 261.698 73.7466 268.263 66.0771 276.923L62.8496 280.568L62.845 289.852C62.8404 301.033 62.1031 304.025 58.3371 308.147C53.0811 313.9 52.3946 316.147 51.5281 330.442C50.9699 339.642 50.6722 340.972 46.1962 354.242C43.5883 361.973 40.8263 371.581 40.0585 375.594C38.4713 383.894 38.936 382.711 28.8311 404.163C20.5777 421.684 14.0611 433.042 13.6092 430.693C13.1786 428.456 14.8653 418.041 18.1134 402.878C24.4903 373.107 24.9573 362.488 20.3651 351.667C19.1401 348.781 19.1462 348.574 20.4911 347.228C21.7161 346.002 21.8907 344.644 21.8186 336.917C21.773 332.022 21.8087 327.162 21.8983 326.117C21.9872 325.072 21.795 322.266 21.47 319.88C20.8306 315.182 20.7007 315.417 26.3972 310.994L28.2957 309.52L26.1033 303.027C23.5995 295.61 23.8949 293.746 28.2707 289.358C30.773 286.849 40.3372 272.384 42.9094 267.217C45.5256 261.962 47.595 255.293 52.1964 237.279C55.1558 225.695 57.6635 217.661 59.6342 213.453C62.2671 207.83 63.2452 206.587 68.202 202.564C74.9328 197.101 78.174 191.562 84.1848 175.256C92.2606 153.345 97.515 145.621 121.665 120.156C127.414 114.095 135.053 105.764 138.643 101.643C144.504 94.9133 145.18 93.8219 145.278 90.9324C145.458 85.5842 149.794 80.1418 169.22 60.8757C183.389 46.824 188.852 40.8161 194.84 32.6993C206.313 17.148 212.577 10.9137 222.667 5.00088C227.799 1.9943 234.48 -0.733352 234.48 0.178654ZM141.07 15.622C141.07 15.8127 140.108 17.6078 138.932 19.612C137.756 21.6161 134.981 27.1885 132.765 31.9955C121.408 56.6379 114.958 66.4404 108.751 68.4902C106.697 69.1689 106.178 69.6887 106.51 70.7352C107.295 73.2106 103.959 80.1585 98.7453 86.9066C95.9187 90.5645 89.3679 98.7574 84.1879 105.112C69.2629 123.422 65.5668 129.849 62.8647 142.196C58.9788 159.948 53.9977 168.786 37.219 187.692C30.6059 195.143 29.3696 196.917 30.7897 196.917C31.1178 196.917 32.0146 197.983 32.7839 199.285C33.8373 201.069 34.0727 202.523 33.7385 205.176C33.1037 210.208 28.254 222.349 22.3745 233.624C19.5897 238.964 16.5884 245.799 15.706 248.815C10.0794 268.032 7.62952 275.636 4.77255 282.749C1.62473 290.588 -7.48761 309.397 -12.9243 319.277C-16.1747 325.185 -26.4314 341.68 -28.5191 344.357L-30 346.258L-29.4957 341.622C-28.9748 336.835 -25.4321 322.983 -21.8377 311.677C-13.2524 284.677 -10.7296 272.498 -12.2219 265.265C-13.0329 261.336 -12.9896 260.546 -11.8687 258.833C-10.7668 257.151 -10.6802 255.864 -11.2407 249.509C-11.5976 245.454 -11.9044 239.199 -11.9219 235.61C-11.9515 229.62 -11.7723 228.821 -9.75449 225.908C-7.57645 222.765 -7.55975 222.658 -8.04883 214.955L-8.54398 207.177L-5.98697 205.441C-3.33051 203.637 3.9653 196.445 6.54886 193.083C8.44971 190.61 12.3964 182.846 13.853 178.716C15.3369 174.506 16.953 164.833 18.3928 151.539C19.0361 145.6 19.5623 140.44 19.5623 140.07C19.5623 139.701 22.3813 137.037 25.8276 134.152C41.0533 121.401 46.0875 116.356 46.8902 113.048C49.3462 102.923 58.1837 91.681 73.4154 79.3058C85.3346 69.6218 86.4069 68.5008 97.5925 54.0356C110.759 37.007 122.994 24.7504 132.3 19.2654C138.339 15.7063 141.07 14.5716 141.07 15.622ZM258.781 84.3758C258.781 84.7604 256.688 90.3183 254.13 96.7259C244.66 120.443 235.128 135.694 228.104 138.366C226.943 138.807 226.164 140.127 225.474 142.825C224.091 148.222 220.324 154.123 213.167 162.102C201.775 174.803 193.37 187.367 187.407 200.606C184.942 206.081 183.966 207.446 181.555 208.795C176.625 211.552 175.7 217.77 178.713 227.897C179.139 229.332 178.332 230.471 173.866 234.737C169.418 238.987 168.066 240.89 165.909 245.937C159.925 259.938 154.773 267.489 149.255 270.344C147.201 271.408 147.175 271.496 148.387 273.346C149.394 274.885 149.551 276.456 149.198 281.494C148.684 288.838 146.6 295.807 140.274 311.328C137.726 317.581 134.117 326.435 132.256 331.003C130.132 336.215 128.165 342.869 126.975 348.864C124.377 361.961 122.134 367.688 115.104 379.172C113.392 381.969 109.086 389.73 105.537 396.418C96.6121 413.234 87.5704 427.871 86.6659 426.966C85.9657 426.266 88.8105 408.866 91.6135 396.701C93.2865 389.439 95.5458 378.881 96.6341 373.238C99.8776 356.409 100.294 354.812 101.926 352.914C103.267 351.353 103.781 351.206 105.545 351.877C106.677 352.307 107.753 352.415 107.937 352.116C108.122 351.817 107.413 349.009 106.364 345.875C104.114 339.164 101.922 326.973 101.238 317.377C100.687 309.642 101.005 308.723 106.732 301.508L109.985 297.41L108.514 294.854C104.907 288.584 105.739 284.18 111.121 281.041C113.183 279.838 115.688 278.117 116.688 277.216C120.455 273.821 124.215 263.73 131.44 237.619C134.583 226.264 134.726 225.338 133.718 222.923C133.121 221.496 132.743 218.63 132.869 216.498C133.16 211.572 135.332 209.743 141.5 209.231L145.79 208.875L147.6 204.986C148.595 202.847 149.413 200.575 149.416 199.938C149.421 199.301 152.603 196.32 156.489 193.312C163.173 188.138 163.538 187.708 163.261 185.339C162.779 181.203 168.014 174.431 182.802 160.056C208.486 135.092 210.952 132.406 220.43 119.062C233.932 100.054 242.668 91.3656 254.01 85.6663C258.389 83.4661 258.781 83.3597 258.781 84.3758ZM280.479 185.709C275.371 199.436 273.054 203.194 264.2 212.117C255.799 220.584 253.156 224.819 253.912 228.604C254.464 231.362 253.107 232.625 249.003 233.176L245.999 233.58L246.414 237.6L246.829 241.62L237.807 250.218C219.328 267.827 218.264 269.185 218.264 275.197C218.264 277.078 218.824 279.686 219.508 280.992L220.751 283.367L216.983 285.711C214.659 287.156 213.216 288.595 213.216 289.465C213.216 291.837 208.224 306.438 205.622 311.677C201.129 320.723 200.416 323.949 201.529 330.171C203.153 339.244 203.159 339.22 197.923 343.114C195.359 345.02 192.962 346.681 192.593 346.803C192.226 346.926 190.712 350.615 189.23 355.002C185.525 365.969 181.943 373.17 177.583 378.412C173.278 383.589 171.549 386.797 167.941 396.302C164.135 406.328 159.141 415.968 158.264 414.982C157.927 414.604 159.494 399.862 160.805 391.077C161.302 387.745 162.893 379.888 164.34 373.618C165.787 367.348 168.17 356.917 169.634 350.438C172.88 336.07 173.489 334.936 177.578 335.627C179.218 335.904 180.56 335.836 180.56 335.475C180.56 335.114 178.985 332.286 177.06 329.19L173.561 323.561L174.941 321.23C176.658 318.326 177.555 303.287 176.485 295.337C175.872 290.786 176.068 288.371 177.834 278.617C179.266 270.717 180.288 266.918 181.165 266.245C181.861 265.71 185.171 263.866 188.52 262.147C196.779 257.907 199.947 255.634 204.895 250.394C209.99 244.999 212.487 241.042 213.623 236.565C214.389 233.543 214.826 233.065 217.885 231.903C224.637 229.338 231.086 223.444 251.775 200.926C256.066 196.255 262.36 190.206 265.761 187.483C271.383 182.981 281.058 177.156 282.913 177.156C283.325 177.156 282.229 181.005 280.479 185.709Z" fill="#E9FF00"/>
</g>
<defs>
<filter id="filter0_i_220_96" x="-30" y="0" width="313" height="431" filterUnits="userSpaceOnUse" color-interpolation-filters="sRGB">
<feFlood flood-opacity="0" result="BackgroundImageFix"/>
<feBlend mode="normal" in="SourceGraphic" in2="BackgroundImageFix" result="shape"/>
<feColorMatrix in="SourceAlpha" type="matrix" values="0 0 0 0 0 0 0 0 0 0 0 0 0 0 0 0 0 0 127 0" result="hardAlpha"/>
<feOffset/>
<feGaussianBlur stdDeviation="6.5"/>
<feComposite in2="hardAlpha" operator="arithmetic" k2="-1" k3="1"/>
<feColorMatrix type="matrix" values="0 0 0 0 0 0 0 0 0 0 0 0 0 0 0 0 0 0 1 0"/>
<feBlend mode="normal" in2="shape" result="effect1_innerShadow_220_96"/>
</filter>
</defs>
</svg>
