<svg width="234" height="52" viewBox="0 0 234 52" fill="none" xmlns="http://www.w3.org/2000/svg">
<path d="M118.8 0.799805V25.9998L126.612 2.0598L118.8 25.9998L133.668 5.5878L118.8 25.9998L139.212 11.1318L118.8 25.9998L142.74 18.1878L118.8 25.9998H144H118.8L142.74 33.8118L118.8 25.9998L139.212 40.8678L118.8 25.9998L133.668 46.4118L118.8 25.9998L126.612 49.9398L118.8 25.9998V51.1998V25.9998L110.988 49.9398L118.8 25.9998L103.932 46.4118L118.8 25.9998L98.3881 40.8678L118.8 25.9998L94.8601 33.8118L118.8 25.9998H93.6001H118.8L94.8601 18.1878L118.8 25.9998L98.3881 11.1318L118.8 25.9998L103.932 5.5878L118.8 25.9998L110.988 2.0598L118.8 25.9998V0.799805Z" stroke="#E9FF00" stroke-width="3.168" stroke-miterlimit="10" stroke-linecap="square"/>
<path d="M3.03744 35.564H0.672V16.748H5.40288L12.2304 35.564L18.6278 16.748H23.305V35.564H20.9395V16.9092H20.9126L14.6227 35.564H9.83808L3.06432 16.8017H3.03744V35.564ZM41.1963 16.748V19.0328H28.1326V24.9464H41.1963V27.1505H28.1326V33.2523H41.1963V35.564H25.7134V16.748H41.1963ZM61.732 16.748V35.564H56.7323L46.0072 16.748H48.5339L59.3397 35.564V16.748H61.732ZM43.6149 35.564V16.748H46.0072V35.564H43.6149ZM84.3282 26.156C84.3282 29.2203 83.4591 31.5588 81.7209 33.1716C79.9826 34.7665 77.4828 35.564 74.2213 35.564C70.9241 35.564 68.4153 34.7665 66.6949 33.1716C64.9925 31.5588 64.1413 29.2203 64.1413 26.156C64.1413 23.0558 65.0194 20.7172 66.7756 19.1403C68.5317 17.5454 71.0226 16.748 74.2482 16.748C77.4738 16.748 79.9557 17.5275 81.694 19.0865C83.4501 20.6276 84.3282 22.9841 84.3282 26.156ZM81.8821 26.0753C81.8821 23.7816 81.246 22.0433 79.9737 20.8606C78.7013 19.66 76.8108 19.0596 74.302 19.0596C71.7394 19.0596 69.813 19.6689 68.5228 20.8875C67.2325 22.106 66.5874 23.8622 66.5874 26.156C66.5874 28.5035 67.2325 30.2776 68.5228 31.4782C69.8309 32.6609 71.7573 33.2523 74.302 33.2523C76.8645 33.2523 78.7641 32.6161 80.0005 31.3438C81.2549 30.0715 81.8821 28.3153 81.8821 26.0753ZM87.0103 22.2584C87.0103 21.0936 87.2612 20.1528 87.763 19.436C88.2647 18.7192 88.9099 18.1636 89.6983 17.7694C90.5047 17.3572 91.4007 17.0884 92.3863 16.963C93.3719 16.8196 94.3486 16.748 95.3163 16.748C96.3377 16.748 97.3412 16.8107 98.3268 16.9361C99.3303 17.0436 100.226 17.2945 101.015 17.6888C101.803 18.083 102.439 18.6475 102.923 19.3822C103.407 20.1169 103.649 21.1025 103.649 22.339H101.284C101.284 21.5505 101.113 20.9323 100.773 20.4843C100.432 20.0184 99.9844 19.6779 99.4289 19.4628C98.8734 19.2299 98.2372 19.0865 97.5204 19.0328C96.8036 18.9611 96.0689 18.9252 95.3163 18.9252C94.6174 18.9252 93.9095 18.9521 93.1927 19.0059C92.4939 19.0596 91.8577 19.203 91.2843 19.436C90.7287 19.651 90.2718 19.9825 89.9134 20.4305C89.555 20.8606 89.3758 21.452 89.3758 22.2046C89.3758 22.9752 89.6356 23.5934 90.1553 24.0593C90.6929 24.5252 91.5172 24.812 92.6283 24.9195L98.9719 25.484C100.567 25.6273 101.794 26.0574 102.655 26.7742C103.515 27.4731 103.945 28.5483 103.945 29.9998C103.945 31.2721 103.676 32.2756 103.138 33.0104C102.601 33.7451 101.902 34.3006 101.042 34.6769C100.182 35.0532 99.2228 35.2952 98.1655 35.4027C97.1083 35.5102 96.0689 35.564 95.0475 35.564C94.0619 35.564 93.0763 35.5012 92.0907 35.3758C91.1051 35.2324 90.2091 34.9636 89.4027 34.5694C88.6142 34.1572 87.9691 33.5928 87.4673 32.876C86.9835 32.1412 86.7415 31.1736 86.7415 29.9729H89.107C89.107 30.7076 89.2772 31.299 89.6177 31.747C89.9582 32.195 90.4062 32.5444 90.9617 32.7953C91.5351 33.0283 92.1803 33.1896 92.8971 33.2792C93.6139 33.3508 94.3396 33.3867 95.0743 33.3867C95.8807 33.3867 96.6692 33.3598 97.4398 33.306C98.2283 33.2523 98.9361 33.1179 99.5633 32.9028C100.191 32.6878 100.692 32.3652 101.069 31.9352C101.463 31.5051 101.66 30.9137 101.66 30.1611C101.66 29.7131 101.579 29.3457 101.418 29.059C101.275 28.7544 101.06 28.5124 100.773 28.3332C100.504 28.154 100.164 28.0196 99.7515 27.93C99.3572 27.8404 98.9182 27.7688 98.4343 27.715L92.0638 27.1236C90.4331 26.9803 89.1787 26.5054 88.3006 25.699C87.4404 24.8926 87.0103 23.7457 87.0103 22.2584Z" fill="white"/>
<path d="M117.168 31.0651V28.1897C117.048 28.8786 116.838 29.4277 116.539 29.8371C116.239 30.2364 115.91 30.5459 115.55 30.7656C115.191 30.9752 114.831 31.11 114.472 31.1699C114.122 31.2398 113.833 31.2748 113.603 31.2748C112.984 31.2748 112.435 31.1799 111.956 30.9902C111.487 30.8005 111.092 30.536 110.773 30.1965C110.453 29.8471 110.214 29.4327 110.054 28.9535C109.894 28.4743 109.814 27.9401 109.814 27.3511C109.814 26.8019 109.894 26.2977 110.054 25.8385C110.214 25.3692 110.443 24.9649 110.743 24.6254C111.052 24.276 111.432 24.0064 111.881 23.8167C112.34 23.617 112.859 23.5172 113.439 23.5172C113.588 23.5172 113.768 23.5322 113.978 23.5621C114.197 23.5821 114.432 23.632 114.682 23.7119C114.931 23.7818 115.186 23.8866 115.445 24.0264C115.705 24.1662 115.95 24.3509 116.179 24.5805C116.409 24.8001 116.608 25.0747 116.778 25.4042C116.958 25.7336 117.088 26.128 117.168 26.5873V20.5969H118.5V31.0651H117.168ZM117.168 27.3511C117.168 27.0515 117.113 26.747 117.003 26.4375C116.893 26.128 116.708 25.8485 116.449 25.5989C116.199 25.3493 115.865 25.1496 115.445 24.9998C115.036 24.8401 114.522 24.7602 113.903 24.7602C113.503 24.7602 113.134 24.8301 112.795 24.9699C112.465 25.1096 112.176 25.2993 111.926 25.539C111.686 25.7786 111.497 26.0581 111.357 26.3776C111.227 26.6871 111.162 27.0116 111.162 27.3511C111.162 27.7005 111.227 28.035 111.357 28.3544C111.497 28.6739 111.691 28.9585 111.941 29.2081C112.191 29.4577 112.485 29.6574 112.825 29.8071C113.174 29.9469 113.563 30.0168 113.993 30.0168C114.592 30.0168 115.091 29.9369 115.49 29.7772C115.9 29.6174 116.229 29.4128 116.479 29.1632C116.728 28.9036 116.903 28.614 117.003 28.2945C117.113 27.9751 117.168 27.6606 117.168 27.3511ZM119.247 27.3211C119.247 26.0232 119.622 25.0697 120.371 24.4607C121.129 23.8417 122.188 23.5322 123.546 23.5322C124.215 23.5322 124.809 23.6071 125.328 23.7568C125.857 23.8966 126.301 24.1212 126.661 24.4307C127.02 24.7303 127.295 25.1196 127.484 25.5989C127.674 26.0781 127.769 26.6522 127.769 27.3211C127.769 28.5791 127.394 29.5226 126.646 30.1516C125.897 30.7706 124.863 31.0801 123.546 31.0801C122.917 31.0801 122.338 31.0052 121.808 30.8554C121.289 30.6957 120.84 30.4611 120.461 30.1516C120.081 29.8321 119.782 29.4377 119.562 28.9685C119.352 28.4992 119.247 27.9501 119.247 27.3211ZM120.565 27.3061C120.565 27.7854 120.63 28.1947 120.76 28.5342C120.9 28.8636 121.095 29.1282 121.344 29.3279C121.604 29.5276 121.918 29.6723 122.288 29.7622C122.657 29.852 123.081 29.897 123.561 29.897C124.469 29.897 125.178 29.6773 125.687 29.238C126.196 28.7888 126.451 28.1448 126.451 27.3061C126.451 26.4275 126.196 25.7786 125.687 25.3592C125.178 24.9399 124.469 24.7303 123.561 24.7303C122.632 24.7303 121.898 24.9549 121.359 25.4042C120.83 25.8435 120.565 26.4775 120.565 27.3061Z" fill="black"/>
<path d="M133.277 17.4362L133.274 17.4616C133.66 17.7911 134.079 18.2475 134.478 18.8306C134.874 19.439 135.054 19.9461 134.997 20.3263L132.796 35.0052H133.206L135.392 20.4277L142.924 30.0362L153.295 18.1461L150.766 35.0052H153.202L155.837 17.4362H153.35L144.361 27.8052L136.584 17.4362H133.277Z" fill="white"/>
<path d="M159.126 17.4362L156.491 35.0052H166.463L170.636 28.7179C169.697 29.6812 168.832 30.4925 168.041 31.1517C167.221 31.8362 166.331 32.47 165.346 33.0531C164.361 33.6361 163.348 34.0671 162.255 34.346C161.163 34.6249 160.041 34.7516 158.844 34.7009L160.084 26.4362H167.877L167.934 26.0559H160.141L161.384 17.7658C162.794 17.7658 164.086 17.8672 165.205 18.0954C166.325 18.3235 167.232 18.6024 167.926 18.932C168.594 19.2616 169.221 19.6925 169.782 20.2249C170.344 20.7573 170.762 21.2137 171.035 21.6193C171.303 22.0503 171.59 22.532 171.942 23.0897C172.269 23.6475 172.515 24.0531 172.712 24.2813L170.226 17.4362H159.126Z" fill="white"/>
<path d="M180.142 35.3601C181.94 35.3347 183.466 34.9037 184.737 34.1178C186.009 33.3319 186.752 32.1404 186.965 30.5432C187.119 29.3517 186.831 28.3629 186.107 27.5517C185.357 26.7404 184.401 26.1066 183.261 25.6756C182.12 25.2446 180.955 24.8136 179.81 24.408C178.666 24.0024 177.695 23.47 176.919 22.8362C176.142 22.2024 175.795 21.4418 175.91 20.5038C176.04 19.4644 176.696 18.6785 177.878 18.1461C179.061 17.6137 180.395 17.4362 181.932 17.6137C183.469 17.7911 184.785 18.2475 185.872 19.0334C186.638 19.5658 187.213 20.1742 187.576 20.8334C187.913 21.4925 188.062 22.3799 187.993 23.5207H188.121L188.289 17.6137L187.389 17.4616C186.786 17.3855 185.929 17.2841 184.838 17.208C183.722 17.132 182.645 17.132 181.616 17.1573C180.561 17.1827 179.59 17.3348 178.757 17.5883C177.898 17.8418 177.212 18.1461 176.727 18.4756C176.212 18.8306 175.767 19.2362 175.42 19.6672C175.073 20.0982 174.807 20.5038 174.677 20.8587C174.547 21.2137 174.447 21.5432 174.397 21.8728C174.301 22.6841 174.421 23.4193 174.788 24.0531C175.129 24.6869 175.638 25.2193 176.317 25.6503C176.97 26.0812 177.708 26.4615 178.526 26.8165C179.345 27.1714 180.167 27.501 180.989 27.8305C181.786 28.1601 182.531 28.4897 183.195 28.8446C183.86 29.1995 184.385 29.6305 184.749 30.1122C185.108 30.6193 185.255 31.177 185.16 31.8108C185.111 32.1404 184.985 32.47 184.807 32.7995C184.629 33.1291 184.345 33.484 183.988 33.8136C183.627 34.1685 183.124 34.4474 182.479 34.6502C181.803 34.8784 181.045 34.9798 180.195 35.0052C179.448 35.0305 178.741 34.9545 178.094 34.8277C177.421 34.7009 176.792 34.4474 176.183 34.0671C175.569 33.7122 175.048 33.2559 174.649 32.6728C174.22 32.115 173.894 31.3798 173.672 30.4671C173.446 29.5798 173.371 28.5404 173.422 27.3488H173.268L173.069 34.1432C173.142 34.1685 173.336 34.2446 173.702 34.3714C174.067 34.4981 174.287 34.5742 174.385 34.5995C174.484 34.6249 174.703 34.7009 175.047 34.8023C175.361 34.9291 175.636 34.9798 175.811 35.0052C175.987 35.0305 176.236 35.0812 176.609 35.1573C176.982 35.2333 177.311 35.2587 177.641 35.284C177.945 35.3094 178.329 35.3094 178.761 35.3347C179.193 35.3601 179.655 35.3601 180.142 35.3601Z" fill="white"/>
<path d="M189.731 17.4362L189.727 17.4616C190.113 17.7911 190.532 18.2475 190.932 18.8306C191.328 19.439 191.508 19.9461 191.451 20.3263L189.249 35.0052H189.659L191.846 20.4277L199.377 30.0362L209.748 18.1461L207.22 35.0052H209.655L212.29 17.4362H209.804L200.814 27.8052L193.038 17.4362H189.731Z" fill="white"/>
<path d="M232.303 25.4474C232.423 22.9376 231.603 20.8841 229.851 19.2362C228.069 17.6137 225.894 16.9038 223.278 17.0813C220.659 17.2841 218.397 18.3489 216.445 20.2503C214.494 22.1517 213.471 24.3573 213.351 26.8672C213.256 29.377 214.072 31.4559 215.854 33.0784C217.61 34.7009 219.811 35.4108 222.427 35.2333C225.047 35.0305 227.308 33.9657 229.26 32.0643C231.186 30.1629 232.209 27.9573 232.303 25.4474ZM230.611 25.4474C229.983 27.7545 228.628 29.7826 226.542 31.5573C224.452 33.3573 222.359 34.3207 220.26 34.4728C218.468 34.6249 217.011 33.915 215.939 32.3432C214.863 30.7967 214.614 28.87 215.213 26.5883C215.815 24.2813 217.115 22.2784 219.095 20.5292C221.071 18.8052 223.083 17.8672 225.106 17.7151C226.949 17.563 228.461 18.2475 229.669 19.7686C230.872 21.3151 231.18 23.1911 230.611 25.4474Z" fill="white"/>
</svg>
