<svg width="234" height="51" viewBox="0 0 234 51" fill="none" xmlns="http://www.w3.org/2000/svg">
<path d="M118.8 0V25.2L126.612 1.26L118.8 25.2L133.668 4.788L118.8 25.2L139.212 10.332L118.8 25.2L142.74 17.388L118.8 25.2H144H118.8L142.74 33.012L118.8 25.2L139.212 40.068L118.8 25.2L133.668 45.612L118.8 25.2L126.612 49.14L118.8 25.2V50.4V25.2L110.988 49.14L118.8 25.2L103.932 45.612L118.8 25.2L98.3881 40.068L118.8 25.2L94.8601 33.012L118.8 25.2H93.6001H118.8L94.8601 17.388L118.8 25.2L98.3881 10.332L118.8 25.2L103.932 4.788L118.8 25.2L110.988 1.26L118.8 25.2V0Z" stroke="#E9FF00" stroke-width="3.168" stroke-miterlimit="10" stroke-linecap="square"/>
<path d="M3.03744 34.7642H0.672V15.9482H5.40288L12.2304 34.7642L18.6278 15.9482H23.305V34.7642H20.9395V16.1094H20.9126L14.6227 34.7642H9.83808L3.06432 16.0019H3.03744V34.7642ZM41.1963 15.9482V18.233H28.1326V24.1466H41.1963V26.3507H28.1326V32.4525H41.1963V34.7642H25.7134V15.9482H41.1963ZM61.732 15.9482V34.7642H56.7323L46.0072 15.9482H48.5339L59.3397 34.7642V15.9482H61.732ZM43.6149 34.7642V15.9482H46.0072V34.7642H43.6149ZM84.3282 25.3562C84.3282 28.4205 83.4591 30.759 81.7209 32.3718C79.9826 33.9667 77.4828 34.7642 74.2213 34.7642C70.9241 34.7642 68.4153 33.9667 66.6949 32.3718C64.9925 30.759 64.1413 28.4205 64.1413 25.3562C64.1413 22.256 65.0194 19.9174 66.7756 18.3405C68.5317 16.7456 71.0226 15.9482 74.2482 15.9482C77.4738 15.9482 79.9557 16.7277 81.694 18.2867C83.4501 19.8278 84.3282 22.1843 84.3282 25.3562ZM81.8821 25.2755C81.8821 22.9818 81.246 21.2435 79.9737 20.0608C78.7013 18.8602 76.8108 18.2598 74.302 18.2598C71.7394 18.2598 69.813 18.8691 68.5228 20.0877C67.2325 21.3062 66.5874 23.0624 66.5874 25.3562C66.5874 27.7037 67.2325 29.4778 68.5228 30.6784C69.8309 31.8611 71.7573 32.4525 74.302 32.4525C76.8645 32.4525 78.7641 31.8163 80.0005 30.544C81.2549 29.2717 81.8821 27.5155 81.8821 25.2755ZM87.0103 21.4586C87.0103 20.2938 87.2612 19.353 87.763 18.6362C88.2647 17.9194 88.9099 17.3638 89.6983 16.9696C90.5047 16.5574 91.4007 16.2886 92.3863 16.1632C93.3719 16.0198 94.3486 15.9482 95.3163 15.9482C96.3377 15.9482 97.3412 16.0109 98.3268 16.1363C99.3303 16.2438 100.226 16.4947 101.015 16.889C101.803 17.2832 102.439 17.8477 102.923 18.5824C103.407 19.3171 103.649 20.3027 103.649 21.5392H101.284C101.284 20.7507 101.113 20.1325 100.773 19.6845C100.432 19.2186 99.9844 18.8781 99.4289 18.663C98.8734 18.4301 98.2372 18.2867 97.5204 18.233C96.8036 18.1613 96.0689 18.1254 95.3163 18.1254C94.6174 18.1254 93.9095 18.1523 93.1927 18.2061C92.4939 18.2598 91.8577 18.4032 91.2843 18.6362C90.7287 18.8512 90.2718 19.1827 89.9134 19.6307C89.555 20.0608 89.3758 20.6522 89.3758 21.4048C89.3758 22.1754 89.6356 22.7936 90.1553 23.2595C90.6929 23.7254 91.5172 24.0122 92.6283 24.1197L98.9719 24.6842C100.567 24.8275 101.794 25.2576 102.655 25.9744C103.515 26.6733 103.945 27.7485 103.945 29.2C103.945 30.4723 103.676 31.4758 103.138 32.2106C102.601 32.9453 101.902 33.5008 101.042 33.8771C100.182 34.2534 99.2228 34.4954 98.1655 34.6029C97.1083 34.7104 96.0689 34.7642 95.0475 34.7642C94.0619 34.7642 93.0763 34.7014 92.0907 34.576C91.1051 34.4326 90.2091 34.1638 89.4027 33.7696C88.6142 33.3574 87.9691 32.793 87.4673 32.0762C86.9835 31.3414 86.7415 30.3738 86.7415 29.1731H89.107C89.107 29.9078 89.2772 30.4992 89.6177 30.9472C89.9582 31.3952 90.4062 31.7446 90.9617 31.9955C91.5351 32.2285 92.1803 32.3898 92.8971 32.4794C93.6139 32.551 94.3396 32.5869 95.0743 32.5869C95.8807 32.5869 96.6692 32.56 97.4398 32.5062C98.2283 32.4525 98.9361 32.3181 99.5633 32.103C100.191 31.888 100.692 31.5654 101.069 31.1354C101.463 30.7053 101.66 30.1139 101.66 29.3613C101.66 28.9133 101.579 28.5459 101.418 28.2592C101.275 27.9546 101.06 27.7126 100.773 27.5334C100.504 27.3542 100.164 27.2198 99.7515 27.1302C99.3572 27.0406 98.9182 26.969 98.4343 26.9152L92.0638 26.3238C90.4331 26.1805 89.1787 25.7056 88.3006 24.8992C87.4404 24.0928 87.0103 22.9459 87.0103 21.4586Z" fill="black"/>
<path d="M117.168 30.2651V27.3897C117.048 28.0786 116.838 28.6277 116.539 29.037C116.239 29.4364 115.91 29.7459 115.55 29.9655C115.191 30.1752 114.831 30.31 114.472 30.3699C114.122 30.4398 113.833 30.4747 113.603 30.4747C112.984 30.4747 112.435 30.3799 111.956 30.1902C111.487 30.0005 111.092 29.7359 110.773 29.3964C110.453 29.047 110.214 28.6327 110.054 28.1534C109.894 27.6742 109.814 27.1401 109.814 26.551C109.814 26.0019 109.894 25.4977 110.054 25.0384C110.214 24.5692 110.443 24.1648 110.743 23.8254C111.052 23.4759 111.432 23.2064 111.881 23.0167C112.34 22.817 112.859 22.7171 113.439 22.7171C113.588 22.7171 113.768 22.7321 113.978 22.7621C114.197 22.782 114.432 22.832 114.682 22.9118C114.931 22.9817 115.186 23.0866 115.445 23.2263C115.705 23.3661 115.95 23.5508 116.179 23.7804C116.409 24.0001 116.608 24.2747 116.778 24.6041C116.958 24.9336 117.088 25.328 117.168 25.7872V19.7968H118.5V30.2651H117.168ZM117.168 26.551C117.168 26.2515 117.113 25.947 117.003 25.6375C116.893 25.328 116.708 25.0484 116.449 24.7988C116.199 24.5492 115.865 24.3495 115.445 24.1998C115.036 24.04 114.522 23.9602 113.903 23.9602C113.503 23.9602 113.134 24.03 112.795 24.1698C112.465 24.3096 112.176 24.4993 111.926 24.7389C111.686 24.9785 111.497 25.2581 111.357 25.5776C111.227 25.8871 111.162 26.2115 111.162 26.551C111.162 26.9004 111.227 27.2349 111.357 27.5544C111.497 27.8739 111.691 28.1584 111.941 28.408C112.191 28.6576 112.485 28.8573 112.825 29.0071C113.174 29.1468 113.563 29.2167 113.993 29.2167C114.592 29.2167 115.091 29.1369 115.49 28.9771C115.9 28.8174 116.229 28.6127 116.479 28.3631C116.728 28.1035 116.903 27.814 117.003 27.4945C117.113 27.175 117.168 26.8605 117.168 26.551ZM119.247 26.5211C119.247 25.2231 119.622 24.2697 120.371 23.6606C121.129 23.0416 122.188 22.7321 123.546 22.7321C124.215 22.7321 124.809 22.807 125.328 22.9568C125.857 23.0965 126.301 23.3212 126.661 23.6307C127.02 23.9302 127.295 24.3196 127.484 24.7988C127.674 25.278 127.769 25.8521 127.769 26.5211C127.769 27.779 127.394 28.7225 126.646 29.3515C125.897 29.9705 124.863 30.28 123.546 30.28C122.917 30.28 122.338 30.2051 121.808 30.0554C121.289 29.8956 120.84 29.661 120.461 29.3515C120.081 29.032 119.782 28.6377 119.562 28.1684C119.352 27.6992 119.247 27.15 119.247 26.5211ZM120.565 26.5061C120.565 26.9853 120.63 27.3947 120.76 27.7341C120.9 28.0636 121.095 28.3282 121.344 28.5278C121.604 28.7275 121.918 28.8723 122.288 28.9621C122.657 29.052 123.081 29.0969 123.561 29.0969C124.469 29.0969 125.178 28.8773 125.687 28.438C126.196 27.9887 126.451 27.3447 126.451 26.5061C126.451 25.6275 126.196 24.9785 125.687 24.5592C125.178 24.1399 124.469 23.9302 123.561 23.9302C122.632 23.9302 121.898 24.1548 121.359 24.6041C120.83 25.0434 120.565 25.6774 120.565 26.5061Z" fill="black"/>
<path d="M133.277 16.6362L133.274 16.6615C133.66 16.9911 134.079 17.4474 134.478 18.0305C134.874 18.639 135.054 19.146 134.997 19.5263L132.796 34.2051H133.206L135.392 19.6277L142.924 29.2361L153.295 17.346L150.766 34.2051H153.202L155.837 16.6362H153.35L144.361 27.0051L136.584 16.6362H133.277Z" fill="black"/>
<path d="M159.126 16.6362L156.491 34.2051H166.463L170.636 27.9178C169.697 28.8812 168.832 29.6924 168.041 30.3516C167.221 31.0361 166.331 31.6699 165.346 32.253C164.361 32.8361 163.348 33.2671 162.255 33.546C161.163 33.8248 160.041 33.9516 158.844 33.9009L160.084 25.6361H167.877L167.934 25.2558H160.141L161.384 16.9657C162.794 16.9657 164.086 17.0671 165.205 17.2953C166.325 17.5235 167.232 17.8024 167.926 18.1319C168.594 18.4615 169.221 18.8925 169.782 19.4249C170.344 19.9573 170.762 20.4136 171.035 20.8192C171.303 21.2502 171.59 21.7319 171.942 22.2897C172.269 22.8474 172.515 23.253 172.712 23.4812L170.226 16.6362H159.126Z" fill="black"/>
<path d="M180.142 34.56C181.94 34.5347 183.466 34.1037 184.737 33.3178C186.009 32.5319 186.752 31.3403 186.965 29.7432C187.119 28.5516 186.831 27.5629 186.107 26.7516C185.357 25.9404 184.401 25.3066 183.261 24.8756C182.12 24.4446 180.955 24.0136 179.81 23.608C178.666 23.2023 177.695 22.6699 176.919 22.0361C176.142 21.4023 175.795 20.6418 175.91 19.7038C176.04 18.6643 176.696 17.8784 177.878 17.346C179.061 16.8136 180.395 16.6362 181.932 16.8136C183.469 16.9911 184.785 17.4474 185.872 18.2333C186.638 18.7657 187.213 19.3742 187.576 20.0333C187.913 20.6925 188.062 21.5798 187.993 22.7206H188.121L188.289 16.8136L187.389 16.6615C186.786 16.5855 185.929 16.484 184.838 16.408C183.722 16.3319 182.645 16.3319 181.616 16.3573C180.561 16.3826 179.59 16.5348 178.757 16.7883C177.898 17.0418 177.212 17.346 176.727 17.6756C176.212 18.0305 175.767 18.4362 175.42 18.8671C175.073 19.2981 174.807 19.7038 174.677 20.0587C174.547 20.4136 174.447 20.7432 174.397 21.0728C174.301 21.884 174.421 22.6192 174.788 23.253C175.129 23.8868 175.638 24.4192 176.317 24.8502C176.97 25.2812 177.708 25.6615 178.526 26.0164C179.345 26.3713 180.167 26.7009 180.989 27.0305C181.786 27.3601 182.531 27.6896 183.195 28.0446C183.86 28.3995 184.385 28.8305 184.749 29.3122C185.108 29.8192 185.255 30.377 185.16 31.0108C185.111 31.3403 184.985 31.6699 184.807 31.9995C184.629 32.3291 184.345 32.684 183.988 33.0136C183.627 33.3685 183.124 33.6474 182.479 33.8502C181.803 34.0783 181.045 34.1798 180.195 34.2051C179.448 34.2305 178.741 34.1544 178.094 34.0276C177.421 33.9009 176.792 33.6474 176.183 33.2671C175.569 32.9122 175.048 32.4558 174.649 31.8727C174.22 31.315 173.894 30.5798 173.672 29.6671C173.446 28.7798 173.371 27.7403 173.422 26.5488H173.268L173.069 33.3431C173.142 33.3685 173.336 33.4445 173.702 33.5713C174.067 33.6981 174.287 33.7741 174.385 33.7995C174.484 33.8248 174.703 33.9009 175.047 34.0023C175.361 34.1291 175.636 34.1798 175.811 34.2051C175.987 34.2305 176.236 34.2812 176.609 34.3572C176.982 34.4333 177.311 34.4586 177.641 34.484C177.945 34.5093 178.329 34.5093 178.761 34.5347C179.193 34.56 179.655 34.56 180.142 34.56Z" fill="black"/>
<path d="M189.731 16.6362L189.727 16.6615C190.113 16.9911 190.532 17.4474 190.932 18.0305C191.328 18.639 191.508 19.146 191.451 19.5263L189.249 34.2051H189.659L191.846 19.6277L199.377 29.2361L209.748 17.346L207.22 34.2051H209.655L212.29 16.6362H209.804L200.814 27.0051L193.038 16.6362H189.731Z" fill="black"/>
<path d="M232.303 24.6474C232.423 22.1375 231.603 20.084 229.851 18.4362C228.069 16.8136 225.894 16.1038 223.278 16.2812C220.659 16.484 218.397 17.5488 216.445 19.4502C214.494 21.3516 213.471 23.5573 213.351 26.0671C213.256 28.577 214.072 30.6558 215.854 32.2784C217.61 33.9009 219.811 34.6107 222.427 34.4333C225.047 34.2305 227.308 33.1657 229.26 31.2643C231.186 29.3629 232.209 27.1572 232.303 24.6474ZM230.611 24.6474C229.983 26.9544 228.628 28.9826 226.542 30.7572C224.452 32.5572 222.359 33.5206 220.26 33.6727C218.468 33.8248 217.011 33.115 215.939 31.5431C214.863 29.9967 214.614 28.0699 215.213 25.7882C215.815 23.4812 217.115 21.4784 219.095 19.7291C221.071 18.0052 223.083 17.0671 225.106 16.915C226.949 16.7629 228.461 17.4474 229.669 18.9685C230.872 20.515 231.18 22.3911 230.611 24.6474Z" fill="black"/>
</svg>
