<svg width="1466" height="554" viewBox="0 0 1466 554" fill="none" xmlns="http://www.w3.org/2000/svg">
<path fill-rule="evenodd" clip-rule="evenodd" d="M109.888 553.702C105.472 553.702 101.164 553.65 96.7825 553.546C88.6794 553.337 79.0692 552.866 69.6937 551.189C60.8472 549.596 52.9862 546.999 45.6832 543.271C38.125 539.446 31.3323 534.505 25.4364 528.575C19.435 522.703 14.503 515.955 10.6465 508.387C6.88864 501.09 4.32032 493.255 2.7768 484.431C1.00712 474.705 0.555055 464.836 0.363848 457.325C0.275029 454.274 0.149658 444.126 0.149658 444.126V110.183C0.149658 110.183 0.27513 100.189 0.358658 97.2522C0.551792 89.6792 1.00122 79.8187 2.75685 70.1892C4.30759 61.3178 6.87573 53.4899 10.6339 46.1619C14.4831 38.5811 19.4223 31.7986 25.3455 25.954C31.3398 19.9677 38.1618 15.0134 45.6692 11.1727C53.1141 7.40549 60.9621 4.82633 69.6303 3.31002C79.3883 1.56494 89.2826 1.126 96.8117 0.937898L109.89 0.781494H1355.71L1368.94 0.990494C1376.37 1.1995 1386.26 1.61242 1395.87 3.34186C1404.6 4.86754 1412.5 7.45894 1420.09 11.2622C1427.52 15.0607 1434.33 20.0151 1440.26 25.9438C1446.19 31.8156 1451.15 38.6347 1455.09 46.2442C1458.83 53.6344 1461.37 61.4623 1462.85 70.0808C1464.53 79.2009 1465.05 88.5671 1465.36 97.3622C1465.41 101.459 1465.41 105.853 1465.41 110.229C1465.52 115.65 1465.52 120.81 1465.52 126.013V428.558C1465.52 433.81 1465.52 438.934 1465.41 444.101C1465.41 448.803 1465.41 453.109 1465.35 457.541C1465.05 466.054 1464.53 475.414 1462.87 484.335C1461.37 493.201 1458.82 501.036 1455.05 508.477C1451.14 515.986 1446.17 522.776 1440.33 528.509C1434.34 534.551 1427.55 539.478 1420.05 543.289C1412.53 547.098 1404.86 549.627 1395.87 551.238C1386.59 552.92 1376.98 553.369 1368.78 553.594C1364.54 553.699 1360.09 553.75 1355.78 553.75L1340.06 553.777L109.888 553.702Z" fill="black"/>
<path d="M573.12 192.893V112.829H585.703V182.33H623.828V192.893H573.12ZM642.362 125.192C638.461 125.192 635.064 122.193 635.064 118.35C635.064 114.51 638.461 111.388 642.362 111.388C646.388 111.388 649.66 114.507 649.66 118.35C649.66 122.191 646.389 125.192 642.362 125.192ZM636.825 192.893V134.915H648.15V192.893H636.825ZM660.266 185.331L665.677 177.409C669.829 181.73 677.882 185.691 686.061 185.691C694.617 185.691 699.147 182.332 699.147 177.409C699.147 171.647 692.226 169.726 684.425 168.046C674.107 165.762 662.028 163.124 662.028 150.64C662.028 141.398 670.332 133.475 685.18 133.475C695.624 133.475 703.174 137.075 708.332 141.758L703.299 149.32C699.776 145.239 692.982 142.238 685.306 142.238C677.631 142.238 672.849 145.116 672.849 149.8C672.849 154.842 679.392 156.522 686.942 158.203C697.511 160.481 710.094 163.245 710.094 176.568C710.094 186.531 701.538 194.334 685.558 194.334C675.366 194.334 666.432 191.335 660.266 185.331ZM740.581 194.334C731.018 194.334 726.111 189.172 726.111 180.049V144.398H716.045V134.915H726.111V119.071H737.435V134.915H749.767V144.398H737.435V177.648C737.435 181.729 739.449 184.731 743.349 184.731C745.991 184.731 748.383 183.649 749.515 182.453L752.409 190.615C750.018 192.773 746.495 194.334 740.581 194.334ZM757.982 163.844C757.982 147.039 770.691 133.475 788.432 133.475C806.677 133.475 818.001 147.039 818.001 164.805V167.443H769.936C770.816 177.286 778.366 185.449 790.572 185.449C796.989 185.449 804.035 183.045 808.565 178.607L813.849 185.689C807.81 191.331 799.254 194.332 789.439 194.332C771.32 194.332 757.982 182.09 757.982 163.844ZM788.432 142.358C776.227 142.358 770.439 151.721 769.81 159.643H806.929C806.68 151.961 801.267 142.358 788.432 142.358ZM872.648 192.893V155.802C872.648 146.199 867.489 143.078 859.687 143.078C852.642 143.078 846.225 147.159 842.953 151.481V192.893H831.628V134.915H842.953V143.078C846.979 138.396 855.032 133.475 864.469 133.475C877.303 133.475 883.973 139.957 883.973 152.201V192.893H872.648ZM960.172 194.335C941.298 194.335 929.47 180.651 929.47 163.846C929.47 147.16 941.298 133.476 960.172 133.476C979.172 133.476 990.874 147.16 990.874 163.846C990.874 180.651 979.172 194.335 960.172 194.335ZM960.172 184.733C972.377 184.733 979.046 174.889 979.046 163.846C979.046 152.923 972.377 143.079 960.172 143.079C948.092 143.079 941.298 152.923 941.298 163.846C941.298 174.889 948.093 184.733 960.172 184.733ZM1045.65 192.895V155.804C1045.65 146.201 1040.49 143.079 1032.69 143.079C1025.64 143.079 1019.22 147.16 1015.95 151.482V192.895H1004.63V134.917H1015.95V143.079C1019.98 138.398 1028.03 133.476 1037.47 133.476C1050.3 133.476 1056.97 139.958 1056.97 152.202V192.895H1045.65Z" fill="white"/>
<path fill-rule="evenodd" clip-rule="evenodd" d="M443.542 258.455C390.068 226.698 301.864 223.778 250.817 239.271C242.617 241.758 233.949 237.134 231.465 228.934C228.98 220.731 233.604 212.068 241.807 209.577C300.406 191.789 397.82 195.224 459.38 231.767C466.753 236.146 469.172 245.668 464.802 253.028C460.428 260.402 450.897 262.833 443.542 258.455ZM441.791 305.491C438.039 311.578 430.08 313.488 424 309.749C379.419 282.346 311.438 274.407 258.695 290.417C251.855 292.48 244.632 288.63 242.554 281.8C240.494 274.961 244.351 267.751 251.179 265.671C311.43 247.386 386.332 256.241 437.536 287.709C443.615 291.455 445.529 299.417 441.791 305.491ZM421.492 350.662C418.511 355.553 412.146 357.082 407.275 354.105C368.319 330.296 319.287 324.92 261.542 338.109C255.977 339.384 250.43 335.899 249.161 330.334C247.887 324.771 251.361 319.225 256.938 317.954C320.13 303.51 374.335 309.726 418.061 336.445C422.937 339.423 424.472 345.789 421.492 350.662ZM345.412 111.388C253.794 111.388 179.52 185.66 179.52 277.277C179.52 368.905 253.794 443.171 345.412 443.171C437.033 443.171 511.303 368.905 511.303 277.277C511.303 185.66 437.033 111.388 345.412 111.388Z" fill="#1ED760"/>
<path d="M1267.61 404.436C1257.46 404.436 1249.51 396.049 1249.51 386.339C1249.51 376.188 1257.46 367.802 1268.05 367.802C1278.2 367.802 1286.15 376.188 1286.15 385.898C1286.15 396.049 1278.2 404.436 1267.61 404.436ZM1268.05 369.567C1258.78 369.567 1251.72 377.071 1251.72 386.339C1251.72 395.608 1258.78 402.67 1268.05 402.67C1277.32 402.67 1284.38 395.167 1284.38 385.898C1284.38 377.071 1277.32 369.567 1268.05 369.567ZM1272.02 388.105L1277.32 395.167H1272.91L1268.05 388.546H1264.08V395.167H1260.55V375.747H1268.93C1273.35 375.747 1276.44 377.954 1276.44 381.926C1276.44 385.015 1274.67 387.222 1272.02 388.105ZM1268.93 379.278H1264.08V385.457H1268.93C1271.14 385.457 1272.91 384.133 1272.91 382.367C1272.46 380.16 1271.14 379.278 1268.93 379.278Z" fill="#1DD15D"/>
<path d="M643.075 313.514C613.945 306.452 608.649 301.597 608.649 291.445C608.649 281.735 617.917 275.115 631.158 275.115C644.4 275.115 657.199 279.97 670.881 290.122C671.323 290.563 671.764 290.563 672.206 290.563C672.647 290.563 673.088 290.121 673.529 289.68L687.653 269.819C688.095 268.936 688.095 268.053 687.212 267.17C670.881 254.371 652.785 247.75 631.6 247.75C600.263 247.75 578.194 266.729 578.194 293.652C578.194 322.341 597.173 332.934 629.834 340.879C657.64 347.499 662.495 352.795 662.495 362.064C662.495 372.657 652.785 379.278 637.779 379.278C621.007 379.278 606.883 373.54 591.435 360.299C590.994 359.857 590.553 359.857 590.111 359.857C589.67 359.857 589.229 360.299 588.787 360.74L572.898 379.719C572.015 380.602 572.456 381.484 572.898 382.367C590.994 398.256 613.062 407.083 636.896 407.083C670.881 407.083 692.509 388.546 692.509 359.857C692.95 335.141 678.384 321.9 643.075 313.514Z" fill="#1DD15D"/>
<path d="M769.306 284.825C754.741 284.825 742.824 290.563 732.673 302.48V289.239C732.673 288.356 731.79 287.473 730.907 287.473H704.867C703.984 287.473 703.101 288.356 703.101 289.239V437.096C703.101 437.979 703.984 438.862 704.867 438.862H730.907C731.79 438.862 732.673 437.979 732.673 437.096V390.311C742.383 401.346 754.741 407.083 769.306 407.083C796.671 407.083 824.035 386.339 824.035 346.175C824.035 305.569 796.671 284.825 769.306 284.825ZM794.023 345.733C794.023 366.036 781.664 380.16 763.568 380.16C745.914 380.16 732.231 365.154 732.231 345.733C732.231 325.872 745.472 311.307 763.568 311.307C781.223 311.307 794.023 325.872 794.023 345.733Z" fill="#1DD15D"/>
<path d="M894.654 284.825C859.786 284.825 831.98 311.748 831.98 346.175C831.98 380.16 859.345 407.083 894.213 407.083C929.522 407.083 956.887 380.16 956.887 345.733C957.328 311.748 929.963 284.825 894.654 284.825ZM894.654 380.602C876.117 380.602 861.993 365.595 861.993 345.733C861.993 325.872 875.675 311.307 894.213 311.307C913.192 311.307 927.315 326.313 927.315 346.175C927.315 366.036 913.633 380.602 894.654 380.602Z" fill="#1DD15D"/>
<path d="M1031.92 287.032H1003.23V257.902C1003.23 257.019 1002.35 256.136 1001.46 256.136H975.424C974.541 256.136 973.659 257.019 973.659 257.902V287.032H961.301C960.418 287.032 959.535 287.915 959.535 288.797V311.307C959.535 312.19 960.418 313.073 961.301 313.073H973.659V370.891C973.659 394.284 985.134 406.201 1008.09 406.201C1017.35 406.201 1025.3 404.435 1032.36 400.022C1032.8 399.58 1033.24 399.139 1033.24 398.256V377.07C1033.24 376.629 1032.8 375.746 1032.36 375.305C1031.92 374.864 1031.04 374.864 1030.59 375.305C1025.74 377.953 1020.88 378.836 1015.15 378.836C1006.76 378.836 1003.23 374.864 1003.23 366.478V313.073H1031.92C1032.8 313.073 1033.68 312.19 1033.68 311.307V288.797C1034.13 287.915 1033.24 287.032 1031.92 287.032Z" fill="#1DD15D"/>
<path d="M1131.67 287.032V283.501C1131.67 272.908 1135.64 268.053 1144.91 268.053C1150.2 268.053 1154.62 268.936 1159.47 270.701C1159.92 270.701 1160.8 270.701 1161.24 270.26C1161.68 269.818 1162.12 269.377 1162.12 268.494V246.426C1162.12 245.543 1161.68 244.661 1160.8 244.661C1155.5 243.337 1148.88 241.571 1139.17 241.571C1115.34 241.571 1102.54 255.253 1102.54 280.853V286.149H1090.18C1089.3 286.149 1088.41 287.032 1088.41 287.915V310.424C1088.41 311.307 1089.3 312.19 1090.18 312.19H1102.54V401.346C1102.54 402.228 1103.42 403.111 1104.3 403.111H1130.34C1131.23 403.111 1132.11 402.228 1132.11 401.346V313.072H1156.38L1193.46 402.228C1189.05 411.497 1185.07 413.262 1179.34 413.262C1174.92 413.262 1170.07 411.939 1165.21 409.29C1164.77 408.849 1164.33 408.849 1163.89 409.29C1163.45 409.29 1163 409.732 1162.56 410.173L1153.74 429.593C1153.29 430.476 1153.74 431.359 1154.62 432.241C1163.89 437.096 1172.27 439.303 1182.43 439.303C1201.85 439.303 1212.44 430.476 1221.71 406.201L1266.73 289.68C1267.17 289.239 1266.73 288.356 1266.73 287.915C1266.28 287.473 1265.84 287.032 1264.96 287.032H1238.04C1237.15 287.032 1236.71 287.473 1236.27 288.356L1208.47 367.802L1178.01 288.356C1177.57 287.473 1177.13 287.032 1176.25 287.032H1131.67Z" fill="#1DD15D"/>
<path d="M1073.85 287.032H1047.81C1046.93 287.032 1046.04 287.915 1046.04 288.797V402.228C1046.04 403.111 1046.93 403.994 1047.81 403.994H1073.85C1074.73 403.994 1075.61 403.111 1075.61 402.228V288.797C1076.06 287.915 1075.17 287.032 1073.85 287.032Z" fill="#1DD15D"/>
<path d="M1061.05 235.392C1050.9 235.392 1042.51 243.778 1042.51 253.93C1042.51 264.081 1050.9 272.467 1061.05 272.467C1071.2 272.467 1079.59 264.081 1079.59 253.93C1079.59 243.778 1071.2 235.392 1061.05 235.392Z" fill="#1DD15D"/>
</svg>
