<svg width="64" height="64" viewBox="0 0 64 64" fill="none" xmlns="http://www.w3.org/2000/svg">
<g clip-path="url(#clip0_9210_1408)">
<path d="M45.6167 45.5999H29.6167V23.9458L43.4513 31.5247L45.6167 45.5999Z" fill="#2F2E41"/>
<path d="M32.5724 41.7781C38.3095 41.7781 42.9603 37.1273 42.9603 31.3903C42.9603 25.6532 38.3095 21.0024 32.5724 21.0024C26.8354 21.0024 22.1846 25.6532 22.1846 31.3903C22.1846 37.1273 26.8354 41.7781 32.5724 41.7781Z" fill="#FFB6B6"/>
<path d="M26.6096 43.3144L26.1403 38.5705L35.5118 36.8181L41.0457 50.2918L31.4216 61.3595L24.5645 47.8858L26.6096 43.3144Z" fill="#FFB6B6"/>
<path d="M54.9823 54.2663C54.8656 54.3878 54.7465 54.5081 54.6274 54.6272C54.2496 55.005 53.8647 55.3719 53.4713 55.728C47.5765 61.0742 40.0132 63.9999 32 63.9999C24.6123 63.9999 17.6072 61.5133 11.9398 56.9358C11.9362 56.9334 11.9338 56.931 11.9302 56.9274C11.7582 56.7891 11.5886 56.6483 11.4189 56.5051C11.449 56.4185 11.4815 56.3331 11.514 56.2489C13.3365 51.5006 16.9359 49.1776 19.1206 48.1611C20.2033 47.657 20.9383 47.473 20.9383 47.473L23.5032 42.8534L25.3089 46.2218L26.6394 48.7048L32.0986 58.8907L36.8084 47.1638L38.2677 43.5283L38.6418 42.5972L40.4211 43.9818L42.1053 45.2919L45.4965 46.0402L48.2478 46.6477L51.9844 47.473C53.4953 48.7036 54.4144 51.0447 54.9281 53.9536C54.9474 54.057 54.9654 54.1617 54.9823 54.2663Z" fill="#8047F8"/>
<path d="M27.1087 19.5853C28.374 17.4598 30.6979 16.0015 33.1622 15.7866C35.6264 15.5716 38.1677 16.6056 39.782 18.4799C40.7439 19.5968 41.3746 20.9647 42.3122 22.102C44.3299 24.5496 47.7705 25.9807 48.6519 29.0278C49.0366 30.3575 48.8449 31.7771 48.6503 33.1475C48.4835 34.3221 48.3167 35.4968 48.1499 36.6714C48.02 37.5855 47.8956 38.5492 48.2383 39.4065C48.6405 40.4123 49.6028 41.0711 50.225 41.9578C51.2838 43.4666 51.2064 45.6755 50.0446 47.1065C49.5408 47.727 48.8729 48.195 48.3446 48.795C47.8164 49.3949 47.4246 50.2152 47.6459 50.9833C48.0697 52.4548 50.3772 52.8076 50.6303 54.3178C50.7597 55.0899 50.2264 55.861 49.5277 56.2141C48.8289 56.5671 48.0064 56.5774 47.2292 56.4829C44.2754 56.1239 41.5406 54.2782 40.1024 51.6733C38.6643 49.0684 38.5596 45.7707 39.8295 43.0798C40.8726 40.8697 42.8112 38.9167 42.7901 36.4729C42.7786 35.1416 42.1679 33.8981 41.5708 32.7081C40.3486 30.2726 39.1265 27.837 37.9043 25.4014C37.2496 24.0967 36.4899 22.6908 35.1421 22.1303C34.1004 21.6972 32.9185 21.8652 31.8044 22.0424C30.6903 22.2195 29.5101 22.392 28.4653 21.9663C27.4206 21.5407 26.6312 20.2761 27.1289 19.2638" fill="#2F2E41"/>
<path d="M28.9287 19.6964C26.9218 19.0358 24.6704 20.0963 23.3117 21.7144C21.953 23.3325 21.2939 25.4084 20.6661 27.4258C20.3064 28.5814 19.9468 29.737 19.5871 30.8925C19.2488 31.9796 18.9105 33.0667 18.5722 34.1538C18.1743 35.4324 17.7731 36.7908 18.0996 38.0895C18.3358 39.0284 18.9433 39.8809 18.9563 40.849C18.97 41.8602 18.3367 42.7479 17.7818 43.5933C17.2268 44.4388 16.7059 45.4432 16.9703 46.4193C17.3725 47.9041 19.4367 48.7202 19.3235 50.2542C19.2858 50.7662 18.9897 51.2397 18.9951 51.7531C19.0019 52.4062 19.5133 52.9705 20.1124 53.2308C20.7115 53.491 21.3854 53.5051 22.0384 53.4936C24.0416 53.4584 26.0411 53.2205 27.9967 52.7848C28.749 52.6171 29.5141 52.4115 30.1404 51.9621C30.7666 51.5127 31.2338 50.7682 31.1523 50.0017C31.0253 48.8073 29.7411 48.1296 29.093 47.1183C28.4565 46.125 28.4712 44.8663 28.1967 43.7189C27.8195 42.1419 26.8878 40.7652 26.1884 39.3024C23.559 33.8027 24.4795 26.7926 28.4395 22.1582C28.7897 21.7484 29.1722 21.3362 29.3183 20.8174C29.4644 20.2986 29.276 19.6375 28.7685 19.4561" fill="#2F2E41"/>
<path d="M54.6274 9.37263C48.5835 3.32872 40.5474 0 32 0C23.4526 0 15.4165 3.32872 9.37263 9.37263C3.32872 15.4165 0 23.4526 0 32C0 39.8015 2.77293 47.1771 7.85443 53.0009C8.33925 53.5579 8.84572 54.1004 9.37263 54.6274C9.49654 54.7513 9.62165 54.8752 9.74797 54.9955C10.0848 55.3215 10.4277 55.6403 10.7765 55.9495C10.9883 56.1383 11.2024 56.3236 11.4189 56.5053C11.5886 56.6484 11.7582 56.7892 11.9302 56.9275C11.9338 56.9311 11.9362 56.9335 11.9399 56.9359C17.6072 61.5134 24.6123 64 32 64C40.0132 64 47.5765 61.0743 53.4713 55.7281C53.8647 55.372 54.2496 55.0051 54.6274 54.6274C54.7465 54.5083 54.8656 54.388 54.9823 54.2665C55.3071 53.932 55.6223 53.5916 55.9302 53.2463C61.1477 47.3853 64 39.9122 64 32C64 23.4526 60.6713 15.4165 54.6274 9.37263ZM55.852 52.9468C55.5513 53.2884 55.2433 53.6253 54.9281 53.9537C54.4373 54.465 53.9308 54.9606 53.4075 55.4382C53.209 55.6211 53.0081 55.7991 52.8048 55.9759C50.7513 57.7624 48.4656 59.2878 46.0006 60.5029C45.1356 60.9299 44.249 61.3185 43.342 61.6662C39.8183 63.0183 35.994 63.7594 32 63.7594C28.1456 63.7594 24.4499 63.0689 21.0298 61.8057C19.6259 61.2884 18.2689 60.6737 16.966 59.9699C16.7747 59.8665 16.5847 59.7618 16.3958 59.6547C15.4021 59.0917 14.4409 58.477 13.5182 57.8129C12.8289 57.3185 12.16 56.7976 11.514 56.249C11.2878 56.0577 11.0641 55.8641 10.8439 55.6656C10.4854 55.3468 10.1341 55.0183 9.79128 54.6815C9.14165 54.0451 8.52091 53.3823 7.92782 52.6929C3.13865 47.1302 0.240602 39.8977 0.240602 32C0.240602 14.4878 14.4878 0.240602 32 0.240602C49.5122 0.240602 63.7594 14.4878 63.7594 32C63.7594 40.0192 60.7723 47.3528 55.852 52.9468Z" fill="#3F3D56"/>
</g>
<defs>
<clipPath id="clip0_9210_1408">
<rect width="64" height="64" fill="white"/>
</clipPath>
</defs>
</svg>
